M48
; DRILL file {KiCad (6.0.10)} date Sat Feb 25 21:09:25 2023
; FORMAT={-:-/ absolute / inch / decimal}
; #@! TF.CreationDate,2023-02-25T21:09:25+08:00
; #@! TF.GenerationSoftware,Kicad,Pcbnew,(6.0.10)
; #@! TF.FileFunction,Plated,1,2,PTH
FMAT,2
INCH
; #@! TA.AperFunction,Plated,PTH,ComponentDrill
T1C0.0315
; #@! TA.AperFunction,Plated,PTH,ComponentDrill
T2C0.0354
; #@! TA.AperFunction,Plated,PTH,ComponentDrill
T3C0.0394
; #@! TA.AperFunction,Plated,PTH,ComponentDrill
T4C0.0433
; #@! TA.AperFunction,Plated,PTH,ComponentDrill
T5C0.1260
%
G90
G05
T1
X5.315Y-3.8748
X5.315Y-4.1307
X5.315Y-4.2685
X5.315Y-4.5244
X5.415Y-3.8748
X5.415Y-4.5244
X5.4921Y-4.6756
X5.4921Y-5.0756
X5.502Y-2.674
X5.502Y-3.074
X5.648Y-3.8748
X5.648Y-4.5244
X5.6693Y-2.674
X5.6693Y-3.074
X5.748Y-3.8748
X5.748Y-4.1339
X5.748Y-4.2717
X5.748Y-4.5244
X5.748Y-4.6787
X5.748Y-5.0787
X5.7874Y-3.3071
X5.7874Y-3.5039
X5.9646Y-3.7764
X5.9843Y-4.82
X5.9843Y-5.0169
X6.0236Y-3.3827
X6.0854Y-4.2094
X6.1024Y-3.7764
X6.1236Y-3.3827
X6.2232Y-4.2094
X6.278Y-3.3827
X6.3189Y-4.8197
X6.3189Y-4.9575
X6.378Y-2.7496
X6.378Y-3.1496
X6.378Y-3.3827
X6.378Y-3.5764
X6.378Y-3.9764
X6.6142Y-2.7496
X6.6142Y-3.1496
X6.6142Y-3.3827
X6.6142Y-3.5764
X6.6142Y-3.9764
X6.6732Y-4.8197
X6.6732Y-4.9575
X6.7142Y-3.3827
X6.7717Y-4.2094
X6.8685Y-3.3827
X6.8898Y-3.7764
X6.9094Y-4.2094
X6.9685Y-3.3827
X7.0079Y-4.822
X7.0079Y-5.0189
X7.0276Y-3.7764
X7.2423Y-4.5244
X7.2441Y-3.8748
X7.2441Y-4.1367
X7.2441Y-4.2745
X7.2441Y-4.6756
X7.2441Y-5.0756
X7.3228Y-3.5039
X7.3228Y-3.7008
X7.3423Y-4.5244
X7.3441Y-3.8748
X7.3622Y-2.6709
X7.3622Y-3.0709
X7.5Y-2.6709
X7.5Y-3.0709
X7.5197Y-4.6756
X7.5197Y-5.0756
X7.5772Y-4.5244
X7.5787Y-3.8748
X7.6772Y-4.1367
X7.6772Y-4.2745
X7.6772Y-4.5244
X7.6787Y-3.8748
T2
X6.0795Y-2.7528
X6.1795Y-2.7528
X6.811Y-2.7528
X6.911Y-2.7528
T3
X5.5299Y-2.4772
X5.5512Y-5.3906
X5.6299Y-2.4772
X5.6512Y-5.3906
X5.7512Y-5.3906
X7.2409Y-5.3906
X7.3409Y-5.3906
X7.3622Y-2.4772
X7.4409Y-5.3906
X7.4622Y-2.4772
T4
X5.978Y-4.5244
X6.378Y-4.5244
X6.6142Y-4.5244
X7.0142Y-4.5244
T5
X5.1575Y-2.5953
X5.1575Y-5.2724
X7.8346Y-2.5953
X7.8346Y-5.2724
T0
M30
