%TF.GenerationSoftware,KiCad,Pcbnew,(6.0.10)*%
%TF.CreationDate,2023-02-25T21:09:21+08:00*%
%TF.ProjectId,LutrarmyMic_PreAmp,4c757472-6172-46d7-994d-69635f507265,rev?*%
%TF.SameCoordinates,Original*%
%TF.FileFunction,Soldermask,Top*%
%TF.FilePolarity,Negative*%
%FSLAX46Y46*%
G04 Gerber Fmt 4.6, Leading zero omitted, Abs format (unit mm)*
G04 Created by KiCad (PCBNEW (6.0.10)) date 2023-02-25 21:09:21*
%MOMM*%
%LPD*%
G01*
G04 APERTURE LIST*
G04 Aperture macros list*
%AMRoundRect*
0 Rectangle with rounded corners*
0 $1 Rounding radius*
0 $2 $3 $4 $5 $6 $7 $8 $9 X,Y pos of 4 corners*
0 Add a 4 corners polygon primitive as box body*
4,1,4,$2,$3,$4,$5,$6,$7,$8,$9,$2,$3,0*
0 Add four circle primitives for the rounded corners*
1,1,$1+$1,$2,$3*
1,1,$1+$1,$4,$5*
1,1,$1+$1,$6,$7*
1,1,$1+$1,$8,$9*
0 Add four rect primitives between the rounded corners*
20,1,$1+$1,$2,$3,$4,$5,0*
20,1,$1+$1,$4,$5,$6,$7,0*
20,1,$1+$1,$6,$7,$8,$9,0*
20,1,$1+$1,$8,$9,$2,$3,0*%
G04 Aperture macros list end*
%ADD10C,1.600000*%
%ADD11O,1.600000X1.600000*%
%ADD12C,5.600000*%
%ADD13R,1.600000X1.600000*%
%ADD14R,1.700000X1.700000*%
%ADD15O,1.700000X1.700000*%
%ADD16R,2.200000X2.200000*%
%ADD17O,2.200000X2.200000*%
%ADD18R,1.800000X1.800000*%
%ADD19C,1.800000*%
%ADD20RoundRect,0.150000X0.825000X0.150000X-0.825000X0.150000X-0.825000X-0.150000X0.825000X-0.150000X0*%
%ADD21RoundRect,0.150000X-0.825000X-0.150000X0.825000X-0.150000X0.825000X0.150000X-0.825000X0.150000X0*%
G04 APERTURE END LIST*
D10*
%TO.C,R4*%
X144000000Y-67920000D03*
D11*
X144000000Y-78080000D03*
%TD*%
D10*
%TO.C,R16*%
X162000000Y-69840000D03*
D11*
X162000000Y-80000000D03*
%TD*%
D12*
%TO.C,H4*%
X199000000Y-133920000D03*
%TD*%
D13*
%TO.C,C8*%
X155000000Y-95920000D03*
D10*
X151500000Y-95920000D03*
%TD*%
D12*
%TO.C,H3*%
X199000000Y-65920000D03*
%TD*%
D10*
%TO.C,R10*%
X177000000Y-85920000D03*
D11*
X174460000Y-85920000D03*
%TD*%
D14*
%TO.C,MK2*%
X143000000Y-62920000D03*
D15*
X140460000Y-62920000D03*
%TD*%
D10*
%TO.C,R21*%
X191000000Y-118760000D03*
D11*
X191000000Y-128920000D03*
%TD*%
D10*
%TO.C,R22*%
X184000000Y-128920000D03*
D11*
X184000000Y-118760000D03*
%TD*%
D10*
%TO.C,R17*%
X195000000Y-114920000D03*
D11*
X192460000Y-114920000D03*
%TD*%
D10*
%TO.C,R15*%
X168000000Y-69840000D03*
D11*
X168000000Y-80000000D03*
%TD*%
D10*
%TO.C,R18*%
X183955000Y-114920000D03*
D11*
X186495000Y-114920000D03*
%TD*%
D10*
%TO.C,C13*%
X178000000Y-122478800D03*
X178000000Y-127478800D03*
%TD*%
%TO.C,R9*%
X170540000Y-85920000D03*
D11*
X168000000Y-85920000D03*
%TD*%
D10*
%TO.C,R2*%
X139750000Y-78080000D03*
D11*
X139750000Y-67920000D03*
%TD*%
D13*
%TO.C,C5*%
X135000000Y-108420000D03*
D10*
X135000000Y-104920000D03*
%TD*%
%TO.C,R14*%
X162000000Y-101000000D03*
D11*
X162000000Y-90840000D03*
%TD*%
D16*
%TO.C,D1*%
X168000000Y-114920000D03*
D17*
X178160000Y-114920000D03*
%TD*%
D10*
%TO.C,R23*%
X139500000Y-118760000D03*
D11*
X139500000Y-128920000D03*
%TD*%
D10*
%TO.C,R8*%
X146000000Y-98420000D03*
D11*
X143460000Y-98420000D03*
%TD*%
D13*
%TO.C,C9*%
X172000000Y-106920000D03*
D10*
X175500000Y-106920000D03*
%TD*%
D13*
%TO.C,C6*%
X146000000Y-108501812D03*
D10*
X146000000Y-105001812D03*
%TD*%
%TO.C,R19*%
X135000000Y-114920000D03*
D11*
X137540000Y-114920000D03*
%TD*%
D14*
%TO.C,J1*%
X189000000Y-136920000D03*
D15*
X186460000Y-136920000D03*
X183920000Y-136920000D03*
%TD*%
D10*
%TO.C,R13*%
X168000000Y-101000000D03*
D11*
X168000000Y-90840000D03*
%TD*%
D13*
%TO.C,C10*%
X158068557Y-106920000D03*
D10*
X154568557Y-106920000D03*
%TD*%
%TO.C,R7*%
X137540000Y-98420000D03*
D11*
X135000000Y-98420000D03*
%TD*%
D13*
%TO.C,C4*%
X184000000Y-108572651D03*
D10*
X184000000Y-105072651D03*
%TD*%
D12*
%TO.C,H1*%
X131000000Y-65920000D03*
%TD*%
D10*
%TO.C,R11*%
X159460000Y-85920000D03*
D11*
X162000000Y-85920000D03*
%TD*%
D16*
%TO.C,D2*%
X162000000Y-114920000D03*
D17*
X151840000Y-114920000D03*
%TD*%
D10*
%TO.C,C14*%
X152000000Y-122428000D03*
X152000000Y-127428000D03*
%TD*%
%TO.C,R24*%
X146000000Y-129000000D03*
D11*
X146000000Y-118840000D03*
%TD*%
D18*
%TO.C,D3*%
X175540000Y-69920000D03*
D19*
X173000000Y-69920000D03*
%TD*%
D10*
%TO.C,R5*%
X192500000Y-98420000D03*
D11*
X195040000Y-98420000D03*
%TD*%
D10*
%TO.C,R3*%
X187000000Y-67840000D03*
D11*
X187000000Y-78000000D03*
%TD*%
D13*
%TO.C,C3*%
X195000000Y-108572651D03*
D10*
X195000000Y-105072651D03*
%TD*%
D18*
%TO.C,D4*%
X154420000Y-69920000D03*
D19*
X156960000Y-69920000D03*
%TD*%
D20*
%TO.C,U1*%
X194975000Y-93325000D03*
X194975000Y-92055000D03*
X194975000Y-90785000D03*
X194975000Y-89515000D03*
X190025000Y-89515000D03*
X190025000Y-90785000D03*
X190025000Y-92055000D03*
X190025000Y-93325000D03*
%TD*%
D13*
%TO.C,C12*%
X160500000Y-122420000D03*
D10*
X160500000Y-125920000D03*
%TD*%
D13*
%TO.C,C7*%
X175000000Y-95920000D03*
D10*
X178500000Y-95920000D03*
%TD*%
%TO.C,R6*%
X184000000Y-98420000D03*
D11*
X186540000Y-98420000D03*
%TD*%
D10*
%TO.C,C1*%
X186000000Y-94000000D03*
X186000000Y-89000000D03*
%TD*%
%TO.C,R12*%
X153000000Y-85920000D03*
D11*
X155540000Y-85920000D03*
%TD*%
D14*
%TO.C,MK1*%
X187000000Y-62920000D03*
D15*
X189540000Y-62920000D03*
%TD*%
D12*
%TO.C,H2*%
X131000000Y-133920000D03*
%TD*%
D21*
%TO.C,U2*%
X134775000Y-89765000D03*
X134775000Y-91035000D03*
X134775000Y-92305000D03*
X134775000Y-93575000D03*
X139725000Y-93575000D03*
X139725000Y-92305000D03*
X139725000Y-91035000D03*
X139725000Y-89765000D03*
%TD*%
D14*
%TO.C,J2*%
X141000000Y-136920000D03*
D15*
X143540000Y-136920000D03*
X146080000Y-136920000D03*
%TD*%
D10*
%TO.C,R20*%
X146000000Y-114920000D03*
D11*
X143460000Y-114920000D03*
%TD*%
D10*
%TO.C,R1*%
X190500000Y-78000000D03*
D11*
X190500000Y-67840000D03*
%TD*%
D13*
%TO.C,C11*%
X169500000Y-122420000D03*
D10*
X169500000Y-125920000D03*
%TD*%
%TO.C,C2*%
X147000000Y-89000000D03*
X147000000Y-84000000D03*
%TD*%
M02*
