%TF.GenerationSoftware,KiCad,Pcbnew,(6.0.10)*%
%TF.CreationDate,2023-02-21T22:54:33+08:00*%
%TF.ProjectId,LutrarmyMic_BatPwr,4c757472-6172-46d7-994d-69635f426174,rev?*%
%TF.SameCoordinates,Original*%
%TF.FileFunction,Copper,L1,Top*%
%TF.FilePolarity,Positive*%
%FSLAX46Y46*%
G04 Gerber Fmt 4.6, Leading zero omitted, Abs format (unit mm)*
G04 Created by KiCad (PCBNEW (6.0.10)) date 2023-02-21 22:54:33*
%MOMM*%
%LPD*%
G01*
G04 APERTURE LIST*
%TA.AperFunction,ComponentPad*%
%ADD10C,5.700000*%
%TD*%
%TA.AperFunction,ComponentPad*%
%ADD11C,1.600000*%
%TD*%
%TA.AperFunction,SMDPad,CuDef*%
%ADD12R,8.200000X2.600000*%
%TD*%
%TA.AperFunction,ComponentPad*%
%ADD13O,1.600000X1.600000*%
%TD*%
%TA.AperFunction,ComponentPad*%
%ADD14R,2.000000X2.000000*%
%TD*%
%TA.AperFunction,ComponentPad*%
%ADD15C,2.000000*%
%TD*%
%TA.AperFunction,ComponentPad*%
%ADD16R,1.700000X1.700000*%
%TD*%
%TA.AperFunction,ComponentPad*%
%ADD17O,1.700000X1.700000*%
%TD*%
%TA.AperFunction,ComponentPad*%
%ADD18R,1.600000X1.600000*%
%TD*%
%TA.AperFunction,ComponentPad*%
%ADD19R,2.600000X2.600000*%
%TD*%
%TA.AperFunction,ComponentPad*%
%ADD20O,2.600000X2.600000*%
%TD*%
%TA.AperFunction,ComponentPad*%
%ADD21R,1.800000X1.800000*%
%TD*%
%TA.AperFunction,ComponentPad*%
%ADD22C,1.800000*%
%TD*%
%TA.AperFunction,ComponentPad*%
%ADD23C,1.750000*%
%TD*%
%TA.AperFunction,Conductor*%
%ADD24C,0.800000*%
%TD*%
%TA.AperFunction,Conductor*%
%ADD25C,0.500000*%
%TD*%
G04 APERTURE END LIST*
D10*
%TO.P,REF\u002A\u002A,1*%
%TO.N,GND*%
X186500000Y-134000000D03*
%TD*%
D11*
%TO.P,C2,1*%
%TO.N,Net-(C2-Pad1)*%
X144500000Y-109000000D03*
%TO.P,C2,2*%
%TO.N,GND*%
X144500000Y-114000000D03*
%TD*%
D10*
%TO.P,REF\u002A\u002A,1*%
%TO.N,GND*%
X118500000Y-134000000D03*
%TD*%
D12*
%TO.P,L2,1,1*%
%TO.N,Net-(C3-Pad1)*%
X138500000Y-123200000D03*
%TO.P,L2,2,2*%
%TO.N,Net-(C4-Pad1)*%
X138500000Y-128800000D03*
%TD*%
D11*
%TO.P,R3,1*%
%TO.N,Net-(R3-Pad1)*%
X160420000Y-103720000D03*
D13*
%TO.P,R3,2*%
%TO.N,Net-(L1-Pad1)*%
X170580000Y-103720000D03*
%TD*%
D14*
%TO.P,C4,1*%
%TO.N,Net-(C4-Pad1)*%
X130500000Y-129000000D03*
D15*
%TO.P,C4,2*%
%TO.N,GND*%
X125500000Y-129000000D03*
%TD*%
D11*
%TO.P,R5,1*%
%TO.N,Net-(D2-Pad2)*%
X158585000Y-129000000D03*
D13*
%TO.P,R5,2*%
%TO.N,Net-(C4-Pad1)*%
X148425000Y-129000000D03*
%TD*%
D16*
%TO.P,BT1,1,+*%
%TO.N,+9V*%
X188182500Y-105270000D03*
D17*
%TO.P,BT1,2,-*%
%TO.N,GND*%
X188182500Y-102730000D03*
%TD*%
D14*
%TO.P,C3,1*%
%TO.N,Net-(C3-Pad1)*%
X130500000Y-115000000D03*
D15*
%TO.P,C3,2*%
%TO.N,GND*%
X125500000Y-115000000D03*
%TD*%
D10*
%TO.P,REF\u002A\u002A,1*%
%TO.N,GND*%
X186500000Y-66000000D03*
%TD*%
D11*
%TO.P,R4,1*%
%TO.N,Net-(R4-Pad1)*%
X158615000Y-120000000D03*
D13*
%TO.P,R4,2*%
%TO.N,Net-(C3-Pad1)*%
X148455000Y-120000000D03*
%TD*%
D12*
%TO.P,L1,1,1*%
%TO.N,Net-(L1-Pad1)*%
X128500000Y-98200000D03*
%TO.P,L1,2,2*%
%TO.N,Net-(D1-Pad2)*%
X128500000Y-103800000D03*
%TD*%
D18*
%TO.P,U1,1,SwC*%
%TO.N,Net-(D1-Pad2)*%
X148700000Y-103920000D03*
D13*
%TO.P,U1,2,SwE*%
%TO.N,GND*%
X148700000Y-106460000D03*
%TO.P,U1,3,TC*%
%TO.N,Net-(C2-Pad1)*%
X148700000Y-109000000D03*
%TO.P,U1,4,GND*%
%TO.N,GND*%
X148700000Y-111540000D03*
%TO.P,U1,5,Vfb*%
%TO.N,Net-(R2-Pad2)*%
X156320000Y-111540000D03*
%TO.P,U1,6,Vin*%
%TO.N,Net-(C1-Pad1)*%
X156320000Y-109000000D03*
%TO.P,U1,7,Ipk*%
%TO.N,Net-(L1-Pad1)*%
X156320000Y-106460000D03*
%TO.P,U1,8,DC*%
%TO.N,Net-(R3-Pad1)*%
X156320000Y-103920000D03*
%TD*%
D16*
%TO.P,SW1,1,A*%
%TO.N,unconnected-(SW1-Pad1)*%
X174500000Y-137000000D03*
D17*
%TO.P,SW1,2,B*%
%TO.N,+9V*%
X171960000Y-137000000D03*
%TO.P,SW1,3,C*%
%TO.N,Net-(C1-Pad1)*%
X169420000Y-137000000D03*
%TD*%
D11*
%TO.P,R1,1*%
%TO.N,Net-(L1-Pad1)*%
X170580000Y-108720000D03*
D13*
%TO.P,R1,2*%
%TO.N,Net-(C1-Pad1)*%
X160420000Y-108720000D03*
%TD*%
D19*
%TO.P,D1,1,K*%
%TO.N,Net-(C3-Pad1)*%
X138500000Y-118620000D03*
D20*
%TO.P,D1,2,A*%
%TO.N,Net-(D1-Pad2)*%
X138500000Y-103380000D03*
%TD*%
D16*
%TO.P,J1,1,Pin_1*%
%TO.N,GND*%
X138500000Y-137000000D03*
D17*
%TO.P,J1,2,Pin_2*%
%TO.N,Net-(C4-Pad1)*%
X141040000Y-137000000D03*
%TD*%
D21*
%TO.P,D2,1,K*%
%TO.N,GND*%
X155960000Y-135000000D03*
D22*
%TO.P,D2,2,A*%
%TO.N,Net-(D2-Pad2)*%
X158500000Y-135000000D03*
%TD*%
D14*
%TO.P,C1,1*%
%TO.N,Net-(C1-Pad1)*%
X175190907Y-111720000D03*
D15*
%TO.P,C1,2*%
%TO.N,GND*%
X180190907Y-111720000D03*
%TD*%
D10*
%TO.P,REF\u002A\u002A,1*%
%TO.N,GND*%
X118500000Y-66000000D03*
%TD*%
D23*
%TO.P,RV1,1,1*%
%TO.N,unconnected-(RV1-Pad1)*%
X163500000Y-123000000D03*
%TO.P,RV1,2,2*%
%TO.N,Net-(R4-Pad1)*%
X166040000Y-120460000D03*
%TO.P,RV1,3,3*%
%TO.N,Net-(R2-Pad2)*%
X168580000Y-123000000D03*
%TD*%
D11*
%TO.P,R2,1*%
%TO.N,GND*%
X160420000Y-113720000D03*
D13*
%TO.P,R2,2*%
%TO.N,Net-(R2-Pad2)*%
X170580000Y-113720000D03*
%TD*%
D24*
%TO.N,+9V*%
X188182500Y-105270000D02*
X188182500Y-117317500D01*
X171960000Y-133540000D02*
X171960000Y-137000000D01*
X188182500Y-117317500D02*
X171960000Y-133540000D01*
%TO.N,Net-(C1-Pad1)*%
X167500000Y-111720000D02*
X175190907Y-111720000D01*
X175190907Y-111720000D02*
X175190907Y-126309093D01*
X169420000Y-132080000D02*
X169420000Y-137000000D01*
X175190907Y-126309093D02*
X169420000Y-132080000D01*
X160420000Y-108720000D02*
X164500000Y-108720000D01*
X164500000Y-108720000D02*
X167500000Y-111720000D01*
X160140000Y-109000000D02*
X160420000Y-108720000D01*
X156320000Y-109000000D02*
X160140000Y-109000000D01*
D25*
%TO.N,Net-(C2-Pad1)*%
X144500000Y-109000000D02*
X148700000Y-109000000D01*
%TO.N,Net-(C3-Pad1)*%
X142880000Y-118620000D02*
X144260000Y-120000000D01*
D24*
X130500000Y-115000000D02*
X130500000Y-116000000D01*
D25*
X148455000Y-120000000D02*
X144260000Y-120000000D01*
D24*
X130500000Y-116000000D02*
X133120000Y-118620000D01*
X133120000Y-118620000D02*
X138500000Y-118620000D01*
X138500000Y-123200000D02*
X138500000Y-118620000D01*
D25*
X138500000Y-118620000D02*
X142880000Y-118620000D01*
D24*
%TO.N,Net-(D1-Pad2)*%
X128500000Y-103800000D02*
X138080000Y-103800000D01*
X144500000Y-103920000D02*
X148700000Y-103920000D01*
X138080000Y-103800000D02*
X138500000Y-103380000D01*
X143960000Y-103380000D02*
X144500000Y-103920000D01*
X138500000Y-103380000D02*
X143960000Y-103380000D01*
D25*
%TO.N,Net-(D2-Pad2)*%
X158500000Y-129085000D02*
X158585000Y-129000000D01*
X158500000Y-135000000D02*
X158500000Y-129085000D01*
D24*
%TO.N,Net-(L1-Pad1)*%
X156320000Y-106460000D02*
X168320000Y-106460000D01*
X172500000Y-103720000D02*
X173500000Y-104720000D01*
X166220000Y-103720000D02*
X160700000Y-98200000D01*
X173500000Y-107720000D02*
X172500000Y-108720000D01*
X168320000Y-106460000D02*
X170580000Y-108720000D01*
X170580000Y-103720000D02*
X166220000Y-103720000D01*
X172500000Y-108720000D02*
X170580000Y-108720000D01*
X128500000Y-98200000D02*
X160700000Y-98200000D01*
X170580000Y-103720000D02*
X172500000Y-103720000D01*
X173500000Y-104720000D02*
X173500000Y-107720000D01*
D25*
%TO.N,Net-(R2-Pad2)*%
X165500000Y-113720000D02*
X170580000Y-113720000D01*
X156320000Y-111540000D02*
X163320000Y-111540000D01*
X168580000Y-123000000D02*
X168580000Y-119920000D01*
X163320000Y-111540000D02*
X165500000Y-113720000D01*
X170580000Y-117920000D02*
X170580000Y-113720000D01*
X168580000Y-119920000D02*
X170580000Y-117920000D01*
D24*
%TO.N,Net-(R3-Pad1)*%
X156320000Y-103920000D02*
X160220000Y-103920000D01*
X160220000Y-103920000D02*
X160420000Y-103720000D01*
%TO.N,Net-(C4-Pad1)*%
X138500000Y-132000000D02*
X138500000Y-128800000D01*
X141040000Y-137000000D02*
X141040000Y-134540000D01*
X130500000Y-129000000D02*
X138300000Y-129000000D01*
X141040000Y-134540000D02*
X138500000Y-132000000D01*
X138300000Y-129000000D02*
X138500000Y-128800000D01*
D25*
X138700000Y-129000000D02*
X138500000Y-128800000D01*
X148425000Y-129000000D02*
X138700000Y-129000000D01*
%TO.N,Net-(R4-Pad1)*%
X166040000Y-120460000D02*
X162960000Y-120460000D01*
X158615000Y-120000000D02*
X162500000Y-120000000D01*
X162500000Y-120000000D02*
X162960000Y-120460000D01*
%TD*%
%TA.AperFunction,Conductor*%
%TO.N,GND*%
G36*
X186470018Y-60510000D02*
G01*
X186484851Y-60512310D01*
X186484855Y-60512310D01*
X186493724Y-60513691D01*
X186514664Y-60510953D01*
X186536202Y-60509997D01*
X186724026Y-60517766D01*
X186948278Y-60527041D01*
X186958656Y-60527901D01*
X187234674Y-60562307D01*
X187398702Y-60582753D01*
X187408967Y-60584465D01*
X187572054Y-60618661D01*
X187842976Y-60675467D01*
X187853072Y-60678023D01*
X188278101Y-60804561D01*
X188287938Y-60807938D01*
X188701081Y-60969147D01*
X188710581Y-60973314D01*
X189108983Y-61168081D01*
X189118141Y-61173037D01*
X189499085Y-61400030D01*
X189507804Y-61405726D01*
X189868705Y-61663405D01*
X189876923Y-61669801D01*
X190215326Y-61956413D01*
X190222987Y-61963467D01*
X190536533Y-62277013D01*
X190543587Y-62284674D01*
X190830199Y-62623077D01*
X190836595Y-62631295D01*
X191094274Y-62992196D01*
X191099970Y-63000915D01*
X191326963Y-63381859D01*
X191331918Y-63391015D01*
X191366926Y-63462624D01*
X191526682Y-63789411D01*
X191530853Y-63798919D01*
X191692062Y-64212062D01*
X191695439Y-64221899D01*
X191821977Y-64646928D01*
X191824533Y-64657024D01*
X191879573Y-64919521D01*
X191915534Y-65091030D01*
X191917248Y-65101302D01*
X191972099Y-65541344D01*
X191972959Y-65551722D01*
X191989694Y-65956335D01*
X191988302Y-65980920D01*
X191986309Y-65993724D01*
X191987473Y-66002626D01*
X191987473Y-66002628D01*
X191990436Y-66025283D01*
X191991500Y-66041621D01*
X191991500Y-133950633D01*
X191990000Y-133970018D01*
X191987690Y-133984851D01*
X191987690Y-133984855D01*
X191986309Y-133993724D01*
X191989047Y-134014659D01*
X191990003Y-134036202D01*
X191987101Y-134106358D01*
X191972959Y-134448278D01*
X191972099Y-134458656D01*
X191917248Y-134898698D01*
X191915535Y-134908967D01*
X191884241Y-135058215D01*
X191824533Y-135342976D01*
X191821977Y-135353072D01*
X191695439Y-135778101D01*
X191692062Y-135787938D01*
X191530853Y-136201081D01*
X191526686Y-136210581D01*
X191359901Y-136551745D01*
X191331919Y-136608983D01*
X191326964Y-136618139D01*
X191254596Y-136739588D01*
X191099970Y-136999085D01*
X191094274Y-137007804D01*
X190836595Y-137368705D01*
X190830199Y-137376923D01*
X190543587Y-137715326D01*
X190536533Y-137722987D01*
X190222987Y-138036533D01*
X190215326Y-138043587D01*
X189876923Y-138330199D01*
X189868705Y-138336595D01*
X189507804Y-138594274D01*
X189499085Y-138599970D01*
X189118141Y-138826963D01*
X189108985Y-138831918D01*
X188710581Y-139026686D01*
X188701081Y-139030853D01*
X188287938Y-139192062D01*
X188278101Y-139195439D01*
X187853072Y-139321977D01*
X187842975Y-139324533D01*
X187408967Y-139415535D01*
X187398702Y-139417247D01*
X187234674Y-139437693D01*
X186958656Y-139472099D01*
X186948278Y-139472959D01*
X186770676Y-139480305D01*
X186543661Y-139489694D01*
X186519080Y-139488302D01*
X186506276Y-139486309D01*
X186497374Y-139487473D01*
X186497372Y-139487473D01*
X186482323Y-139489441D01*
X186474714Y-139490436D01*
X186458379Y-139491500D01*
X118549367Y-139491500D01*
X118529982Y-139490000D01*
X118515149Y-139487690D01*
X118515145Y-139487690D01*
X118506276Y-139486309D01*
X118485336Y-139489047D01*
X118463798Y-139490003D01*
X118275974Y-139482234D01*
X118051722Y-139472959D01*
X118041344Y-139472099D01*
X117765326Y-139437693D01*
X117601298Y-139417247D01*
X117591033Y-139415535D01*
X117157025Y-139324533D01*
X117146928Y-139321977D01*
X116721899Y-139195439D01*
X116712062Y-139192062D01*
X116298919Y-139030853D01*
X116289419Y-139026686D01*
X115891015Y-138831918D01*
X115881859Y-138826963D01*
X115500915Y-138599970D01*
X115492196Y-138594274D01*
X115131295Y-138336595D01*
X115123077Y-138330199D01*
X114784674Y-138043587D01*
X114777013Y-138036533D01*
X114635149Y-137894669D01*
X137142001Y-137894669D01*
X137142371Y-137901490D01*
X137147895Y-137952352D01*
X137151521Y-137967604D01*
X137196676Y-138088054D01*
X137205214Y-138103649D01*
X137281715Y-138205724D01*
X137294276Y-138218285D01*
X137396351Y-138294786D01*
X137411946Y-138303324D01*
X137532394Y-138348478D01*
X137547649Y-138352105D01*
X137598514Y-138357631D01*
X137605328Y-138358000D01*
X138227885Y-138358000D01*
X138243124Y-138353525D01*
X138244329Y-138352135D01*
X138246000Y-138344452D01*
X138246000Y-137272115D01*
X138241525Y-137256876D01*
X138240135Y-137255671D01*
X138232452Y-137254000D01*
X137160116Y-137254000D01*
X137144877Y-137258475D01*
X137143672Y-137259865D01*
X137142001Y-137267548D01*
X137142001Y-137894669D01*
X114635149Y-137894669D01*
X114463467Y-137722987D01*
X114456413Y-137715326D01*
X114169801Y-137376923D01*
X114163405Y-137368705D01*
X113905726Y-137007804D01*
X113900030Y-136999085D01*
X113745404Y-136739588D01*
X113673036Y-136618139D01*
X113668081Y-136608983D01*
X113640099Y-136551745D01*
X116313795Y-136551745D01*
X116313871Y-136552815D01*
X116317055Y-136557648D01*
X116597342Y-136772720D01*
X116602972Y-136776575D01*
X116907929Y-136961992D01*
X116913931Y-136965210D01*
X117237139Y-137116611D01*
X117243444Y-137119159D01*
X117581117Y-137234771D01*
X117587668Y-137236624D01*
X117935838Y-137315087D01*
X117942557Y-137316224D01*
X118297174Y-137356628D01*
X118303964Y-137357031D01*
X118660865Y-137358899D01*
X118667666Y-137358567D01*
X119022686Y-137321880D01*
X119029414Y-137320814D01*
X119378402Y-137245997D01*
X119384950Y-137244218D01*
X119723820Y-137132147D01*
X119730162Y-137129661D01*
X120054921Y-136981660D01*
X120060975Y-136978495D01*
X120367839Y-136796293D01*
X120373520Y-136792490D01*
X120459566Y-136727885D01*
X137142000Y-136727885D01*
X137146475Y-136743124D01*
X137147865Y-136744329D01*
X137155548Y-136746000D01*
X138227885Y-136746000D01*
X138243124Y-136741525D01*
X138244329Y-136740135D01*
X138246000Y-136732452D01*
X138246000Y-135660116D01*
X138241525Y-135644877D01*
X138240135Y-135643672D01*
X138232452Y-135642001D01*
X137605331Y-135642001D01*
X137598510Y-135642371D01*
X137547648Y-135647895D01*
X137532396Y-135651521D01*
X137411946Y-135696676D01*
X137396351Y-135705214D01*
X137294276Y-135781715D01*
X137281715Y-135794276D01*
X137205214Y-135896351D01*
X137196676Y-135911946D01*
X137151522Y-136032394D01*
X137147895Y-136047649D01*
X137142369Y-136098514D01*
X137142000Y-136105328D01*
X137142000Y-136727885D01*
X120459566Y-136727885D01*
X120658918Y-136578207D01*
X120664145Y-136573821D01*
X120676988Y-136561803D01*
X120685057Y-136548123D01*
X120685029Y-136547398D01*
X120679887Y-136539097D01*
X118512812Y-134372022D01*
X118498868Y-134364408D01*
X118497035Y-134364539D01*
X118490420Y-134368790D01*
X116321409Y-136537801D01*
X116313795Y-136551745D01*
X113640099Y-136551745D01*
X113473314Y-136210581D01*
X113469147Y-136201081D01*
X113307938Y-135787938D01*
X113304561Y-135778101D01*
X113178023Y-135353072D01*
X113175467Y-135342976D01*
X113115759Y-135058215D01*
X113084465Y-134908967D01*
X113082752Y-134898698D01*
X113027901Y-134458656D01*
X113027041Y-134448278D01*
X113010462Y-134047439D01*
X113012100Y-134021329D01*
X113012769Y-134017351D01*
X113012770Y-134017345D01*
X113013576Y-134012552D01*
X113013729Y-134000000D01*
X113012534Y-133991657D01*
X115137260Y-133991657D01*
X115155318Y-134348127D01*
X115156028Y-134354883D01*
X115212478Y-134707305D01*
X115213917Y-134713960D01*
X115308094Y-135058215D01*
X115310243Y-135064676D01*
X115441053Y-135396756D01*
X115443884Y-135402939D01*
X115609792Y-135718949D01*
X115613275Y-135724791D01*
X115812340Y-136021031D01*
X115816442Y-136026475D01*
X115940942Y-136174322D01*
X115953680Y-136182764D01*
X115964124Y-136176666D01*
X118127978Y-134012812D01*
X118134356Y-134001132D01*
X118864408Y-134001132D01*
X118864539Y-134002965D01*
X118868790Y-134009580D01*
X121034463Y-136175253D01*
X121048060Y-136182678D01*
X121057669Y-136175981D01*
X121162197Y-136054457D01*
X121166346Y-136049069D01*
X121368503Y-135754929D01*
X121372050Y-135749118D01*
X121541250Y-135434879D01*
X121544157Y-135428701D01*
X121678435Y-135098016D01*
X121680649Y-135091586D01*
X121778427Y-134748331D01*
X121779934Y-134741701D01*
X121840073Y-134389873D01*
X121840853Y-134383133D01*
X121862740Y-134025275D01*
X121862856Y-134021673D01*
X121862926Y-134001820D01*
X121862834Y-133998193D01*
X121843446Y-133640208D01*
X121842711Y-133633442D01*
X121785034Y-133281233D01*
X121783567Y-133274561D01*
X121688194Y-132930655D01*
X121686020Y-132924192D01*
X121554053Y-132592575D01*
X121551197Y-132586395D01*
X121384194Y-132270981D01*
X121380682Y-132265137D01*
X121180588Y-131969598D01*
X121176467Y-131964170D01*
X121059041Y-131825704D01*
X121046215Y-131817267D01*
X121035890Y-131823320D01*
X118872022Y-133987188D01*
X118864408Y-134001132D01*
X118134356Y-134001132D01*
X118135592Y-133998868D01*
X118135461Y-133997035D01*
X118131210Y-133990420D01*
X115965527Y-131824737D01*
X115951990Y-131817345D01*
X115942289Y-131824132D01*
X115830649Y-131954847D01*
X115826515Y-131960255D01*
X115625394Y-132255086D01*
X115621859Y-132260923D01*
X115453754Y-132575757D01*
X115450878Y-132581926D01*
X115317754Y-132913081D01*
X115315561Y-132919521D01*
X115218979Y-133263121D01*
X115217496Y-133269756D01*
X115158589Y-133621773D01*
X115157830Y-133628545D01*
X115137284Y-133984862D01*
X115137260Y-133991657D01*
X113012534Y-133991657D01*
X113009773Y-133972376D01*
X113008500Y-133954514D01*
X113008500Y-131451492D01*
X116314580Y-131451492D01*
X116314615Y-131452333D01*
X116319667Y-131460457D01*
X118487188Y-133627978D01*
X118501132Y-133635592D01*
X118502965Y-133635461D01*
X118509580Y-133631210D01*
X120678166Y-131462624D01*
X120685780Y-131448680D01*
X120685712Y-131447723D01*
X120680771Y-131440251D01*
X120676870Y-131436931D01*
X120392958Y-131220649D01*
X120387332Y-131216825D01*
X120081722Y-131032469D01*
X120075710Y-131029272D01*
X119751966Y-130878995D01*
X119745666Y-130876475D01*
X119407595Y-130762045D01*
X119401017Y-130760209D01*
X119052592Y-130682965D01*
X119045857Y-130681850D01*
X118691106Y-130642685D01*
X118684324Y-130642306D01*
X118327395Y-130641683D01*
X118320622Y-130642038D01*
X117965714Y-130679966D01*
X117959005Y-130681053D01*
X117610289Y-130757086D01*
X117603714Y-130758897D01*
X117265250Y-130872145D01*
X117258928Y-130874648D01*
X116934680Y-131023785D01*
X116928637Y-131026971D01*
X116622404Y-131210248D01*
X116616744Y-131214066D01*
X116332094Y-131429346D01*
X116326891Y-131433742D01*
X116322601Y-131437785D01*
X116314580Y-131451492D01*
X113008500Y-131451492D01*
X113008500Y-130232670D01*
X124632160Y-130232670D01*
X124637887Y-130240320D01*
X124809042Y-130345205D01*
X124817837Y-130349687D01*
X125027988Y-130436734D01*
X125037373Y-130439783D01*
X125258554Y-130492885D01*
X125268301Y-130494428D01*
X125495070Y-130512275D01*
X125504930Y-130512275D01*
X125731699Y-130494428D01*
X125741446Y-130492885D01*
X125962627Y-130439783D01*
X125972012Y-130436734D01*
X126182163Y-130349687D01*
X126190958Y-130345205D01*
X126358445Y-130242568D01*
X126367907Y-130232110D01*
X126364124Y-130223334D01*
X126188924Y-130048134D01*
X128991500Y-130048134D01*
X128998255Y-130110316D01*
X129049385Y-130246705D01*
X129136739Y-130363261D01*
X129253295Y-130450615D01*
X129389684Y-130501745D01*
X129451866Y-130508500D01*
X131548134Y-130508500D01*
X131610316Y-130501745D01*
X131746705Y-130450615D01*
X131863261Y-130363261D01*
X131950615Y-130246705D01*
X132001745Y-130110316D01*
X132008500Y-130048134D01*
X132008500Y-130034500D01*
X132028502Y-129966379D01*
X132082158Y-129919886D01*
X132134500Y-129908500D01*
X133765500Y-129908500D01*
X133833621Y-129928502D01*
X133880114Y-129982158D01*
X133891500Y-130034500D01*
X133891500Y-130148134D01*
X133898255Y-130210316D01*
X133949385Y-130346705D01*
X134036739Y-130463261D01*
X134153295Y-130550615D01*
X134289684Y-130601745D01*
X134351866Y-130608500D01*
X137465500Y-130608500D01*
X137533621Y-130628502D01*
X137580114Y-130682158D01*
X137591500Y-130734500D01*
X137591500Y-131918583D01*
X137589949Y-131938292D01*
X137587748Y-131952190D01*
X137588093Y-131958777D01*
X137588093Y-131958782D01*
X137591327Y-132020480D01*
X137591500Y-132027074D01*
X137591500Y-132047610D01*
X137591844Y-132050882D01*
X137591844Y-132050884D01*
X137593647Y-132068042D01*
X137594164Y-132074616D01*
X137596607Y-132121218D01*
X137597743Y-132142903D01*
X137599453Y-132149284D01*
X137599453Y-132149286D01*
X137601383Y-132156491D01*
X137604985Y-132175925D01*
X137605766Y-132183354D01*
X137605768Y-132183363D01*
X137606458Y-132189928D01*
X137627600Y-132254997D01*
X137629467Y-132261299D01*
X137647171Y-132327370D01*
X137653559Y-132339907D01*
X137661125Y-132358173D01*
X137665473Y-132371556D01*
X137668776Y-132377278D01*
X137668777Y-132377279D01*
X137699667Y-132430782D01*
X137702814Y-132436577D01*
X137733871Y-132497530D01*
X137738024Y-132502658D01*
X137738025Y-132502660D01*
X137742727Y-132508466D01*
X137753927Y-132524763D01*
X137757657Y-132531224D01*
X137757660Y-132531228D01*
X137760960Y-132536944D01*
X137765377Y-132541850D01*
X137765381Y-132541855D01*
X137806722Y-132587769D01*
X137811006Y-132592784D01*
X137823928Y-132608741D01*
X137838443Y-132623256D01*
X137842984Y-132628041D01*
X137888747Y-132678866D01*
X137894086Y-132682745D01*
X137894087Y-132682746D01*
X137900135Y-132687140D01*
X137915168Y-132699981D01*
X140094595Y-134879408D01*
X140128621Y-134941720D01*
X140131500Y-134968503D01*
X140131500Y-135933737D01*
X140111498Y-136001858D01*
X140096593Y-136020789D01*
X140053898Y-136065466D01*
X139992374Y-136100895D01*
X139921461Y-136097438D01*
X139863675Y-136056191D01*
X139844823Y-136022644D01*
X139803324Y-135911946D01*
X139794786Y-135896351D01*
X139718285Y-135794276D01*
X139705724Y-135781715D01*
X139603649Y-135705214D01*
X139588054Y-135696676D01*
X139467606Y-135651522D01*
X139452351Y-135647895D01*
X139401486Y-135642369D01*
X139394672Y-135642000D01*
X138772115Y-135642000D01*
X138756876Y-135646475D01*
X138755671Y-135647865D01*
X138754000Y-135655548D01*
X138754000Y-138339884D01*
X138758475Y-138355123D01*
X138759865Y-138356328D01*
X138767548Y-138357999D01*
X139394669Y-138357999D01*
X139401490Y-138357629D01*
X139452352Y-138352105D01*
X139467604Y-138348479D01*
X139588054Y-138303324D01*
X139603649Y-138294786D01*
X139705724Y-138218285D01*
X139718285Y-138205724D01*
X139794786Y-138103649D01*
X139803324Y-138088054D01*
X139844225Y-137978952D01*
X139886867Y-137922188D01*
X139953428Y-137897488D01*
X140022777Y-137912696D01*
X140057444Y-137940684D01*
X140082865Y-137970031D01*
X140082869Y-137970035D01*
X140086250Y-137973938D01*
X140258126Y-138116632D01*
X140451000Y-138229338D01*
X140659692Y-138309030D01*
X140664760Y-138310061D01*
X140664763Y-138310062D01*
X140763740Y-138330199D01*
X140878597Y-138353567D01*
X140883772Y-138353757D01*
X140883774Y-138353757D01*
X141096673Y-138361564D01*
X141096677Y-138361564D01*
X141101837Y-138361753D01*
X141106957Y-138361097D01*
X141106959Y-138361097D01*
X141318288Y-138334025D01*
X141318289Y-138334025D01*
X141323416Y-138333368D01*
X141333979Y-138330199D01*
X141532429Y-138270661D01*
X141532434Y-138270659D01*
X141537384Y-138269174D01*
X141737994Y-138170896D01*
X141919860Y-138041173D01*
X142078096Y-137883489D01*
X142137594Y-137800689D01*
X142205435Y-137706277D01*
X142208453Y-137702077D01*
X142229320Y-137659857D01*
X142305136Y-137506453D01*
X142305137Y-137506451D01*
X142307430Y-137501811D01*
X142351540Y-137356628D01*
X142370865Y-137293023D01*
X142370865Y-137293021D01*
X142372370Y-137288069D01*
X142401529Y-137066590D01*
X142401611Y-137063240D01*
X142403074Y-137003365D01*
X142403074Y-137003361D01*
X142403156Y-137000000D01*
X142384852Y-136777361D01*
X142330431Y-136560702D01*
X142241354Y-136355840D01*
X142129386Y-136182764D01*
X142122822Y-136172617D01*
X142122820Y-136172614D01*
X142120014Y-136168277D01*
X142106704Y-136153649D01*
X141981307Y-136015839D01*
X141950255Y-135951993D01*
X141949642Y-135944669D01*
X154552001Y-135944669D01*
X154552371Y-135951490D01*
X154557895Y-136002352D01*
X154561521Y-136017604D01*
X154606676Y-136138054D01*
X154615214Y-136153649D01*
X154691715Y-136255724D01*
X154704276Y-136268285D01*
X154806351Y-136344786D01*
X154821946Y-136353324D01*
X154942394Y-136398478D01*
X154957649Y-136402105D01*
X155008514Y-136407631D01*
X155015328Y-136408000D01*
X155687885Y-136408000D01*
X155703124Y-136403525D01*
X155704329Y-136402135D01*
X155706000Y-136394452D01*
X155706000Y-136389884D01*
X156214000Y-136389884D01*
X156218475Y-136405123D01*
X156219865Y-136406328D01*
X156227548Y-136407999D01*
X156904669Y-136407999D01*
X156911490Y-136407629D01*
X156962352Y-136402105D01*
X156977604Y-136398479D01*
X157098054Y-136353324D01*
X157113649Y-136344786D01*
X157215724Y-136268285D01*
X157228285Y-136255724D01*
X157304786Y-136153649D01*
X157313324Y-136138054D01*
X157334773Y-136080840D01*
X157377415Y-136024075D01*
X157443977Y-135999376D01*
X157513325Y-136014584D01*
X157533240Y-136028126D01*
X157675706Y-136146403D01*
X157689349Y-136157730D01*
X157889322Y-136274584D01*
X158105694Y-136357209D01*
X158110760Y-136358240D01*
X158110761Y-136358240D01*
X158122312Y-136360590D01*
X158332656Y-136403385D01*
X158463324Y-136408176D01*
X158558949Y-136411683D01*
X158558953Y-136411683D01*
X158564113Y-136411872D01*
X158569233Y-136411216D01*
X158569235Y-136411216D01*
X158668668Y-136398478D01*
X158793847Y-136382442D01*
X158798795Y-136380957D01*
X158798802Y-136380956D01*
X159010747Y-136317369D01*
X159015690Y-136315886D01*
X159020324Y-136313616D01*
X159219049Y-136216262D01*
X159219052Y-136216260D01*
X159223684Y-136213991D01*
X159412243Y-136079494D01*
X159576303Y-135916005D01*
X159711458Y-135727917D01*
X159715891Y-135718949D01*
X159811784Y-135524922D01*
X159811785Y-135524920D01*
X159814078Y-135520280D01*
X159881408Y-135298671D01*
X159911640Y-135069041D01*
X159913327Y-135000000D01*
X159905424Y-134903871D01*
X159894773Y-134774318D01*
X159894772Y-134774312D01*
X159894349Y-134769167D01*
X159857237Y-134621416D01*
X159839184Y-134549544D01*
X159839183Y-134549540D01*
X159837925Y-134544533D01*
X159827049Y-134519519D01*
X159747630Y-134336868D01*
X159747628Y-134336865D01*
X159745570Y-134332131D01*
X159619764Y-134137665D01*
X159463887Y-133966358D01*
X159459836Y-133963159D01*
X159459832Y-133963155D01*
X159306408Y-133841989D01*
X159265345Y-133784072D01*
X159258500Y-133743107D01*
X159258500Y-130191385D01*
X159278502Y-130123264D01*
X159312228Y-130088173D01*
X159429300Y-130006198D01*
X159591198Y-129844300D01*
X159722523Y-129656749D01*
X159724846Y-129651767D01*
X159724849Y-129651762D01*
X159816961Y-129454225D01*
X159816961Y-129454224D01*
X159819284Y-129449243D01*
X159839976Y-129372022D01*
X159877119Y-129233402D01*
X159877119Y-129233400D01*
X159878543Y-129228087D01*
X159898498Y-129000000D01*
X159878543Y-128771913D01*
X159877119Y-128766598D01*
X159820707Y-128556067D01*
X159820706Y-128556065D01*
X159819284Y-128550757D01*
X159808667Y-128527988D01*
X159724849Y-128348238D01*
X159724846Y-128348233D01*
X159722523Y-128343251D01*
X159591198Y-128155700D01*
X159429300Y-127993802D01*
X159424792Y-127990645D01*
X159424789Y-127990643D01*
X159291824Y-127897540D01*
X159241749Y-127862477D01*
X159236767Y-127860154D01*
X159236762Y-127860151D01*
X159039225Y-127768039D01*
X159039224Y-127768039D01*
X159034243Y-127765716D01*
X159028935Y-127764294D01*
X159028933Y-127764293D01*
X158818402Y-127707881D01*
X158818400Y-127707881D01*
X158813087Y-127706457D01*
X158585000Y-127686502D01*
X158356913Y-127706457D01*
X158351600Y-127707881D01*
X158351598Y-127707881D01*
X158141067Y-127764293D01*
X158141065Y-127764294D01*
X158135757Y-127765716D01*
X158130776Y-127768039D01*
X158130775Y-127768039D01*
X157933238Y-127860151D01*
X157933233Y-127860154D01*
X157928251Y-127862477D01*
X157878176Y-127897540D01*
X157745211Y-127990643D01*
X157745208Y-127990645D01*
X157740700Y-127993802D01*
X157578802Y-128155700D01*
X157447477Y-128343251D01*
X157445154Y-128348233D01*
X157445151Y-128348238D01*
X157361333Y-128527988D01*
X157350716Y-128550757D01*
X157349294Y-128556065D01*
X157349293Y-128556067D01*
X157292881Y-128766598D01*
X157291457Y-128771913D01*
X157271502Y-129000000D01*
X157291457Y-129228087D01*
X157292881Y-129233400D01*
X157292881Y-129233402D01*
X157330025Y-129372022D01*
X157350716Y-129449243D01*
X157353039Y-129454224D01*
X157353039Y-129454225D01*
X157445151Y-129651762D01*
X157445154Y-129651767D01*
X157447477Y-129656749D01*
X157578802Y-129844300D01*
X157704595Y-129970093D01*
X157738621Y-130032405D01*
X157741500Y-130059188D01*
X157741500Y-133745127D01*
X157721498Y-133813248D01*
X157691154Y-133845886D01*
X157670846Y-133861134D01*
X157593784Y-133918994D01*
X157561655Y-133943117D01*
X157545153Y-133960386D01*
X157543787Y-133961815D01*
X157482263Y-133997245D01*
X157411351Y-133993788D01*
X157353564Y-133952543D01*
X157334711Y-133918994D01*
X157313324Y-133861946D01*
X157304786Y-133846351D01*
X157228285Y-133744276D01*
X157215724Y-133731715D01*
X157113649Y-133655214D01*
X157098054Y-133646676D01*
X156977606Y-133601522D01*
X156962351Y-133597895D01*
X156911486Y-133592369D01*
X156904672Y-133592000D01*
X156232115Y-133592000D01*
X156216876Y-133596475D01*
X156215671Y-133597865D01*
X156214000Y-133605548D01*
X156214000Y-136389884D01*
X155706000Y-136389884D01*
X155706000Y-135272115D01*
X155701525Y-135256876D01*
X155700135Y-135255671D01*
X155692452Y-135254000D01*
X154570116Y-135254000D01*
X154554877Y-135258475D01*
X154553672Y-135259865D01*
X154552001Y-135267548D01*
X154552001Y-135944669D01*
X141949642Y-135944669D01*
X141948500Y-135931039D01*
X141948500Y-134727885D01*
X154552000Y-134727885D01*
X154556475Y-134743124D01*
X154557865Y-134744329D01*
X154565548Y-134746000D01*
X155687885Y-134746000D01*
X155703124Y-134741525D01*
X155704329Y-134740135D01*
X155706000Y-134732452D01*
X155706000Y-133610116D01*
X155701525Y-133594877D01*
X155700135Y-133593672D01*
X155692452Y-133592001D01*
X155015331Y-133592001D01*
X155008510Y-133592371D01*
X154957648Y-133597895D01*
X154942396Y-133601521D01*
X154821946Y-133646676D01*
X154806351Y-133655214D01*
X154704276Y-133731715D01*
X154691715Y-133744276D01*
X154615214Y-133846351D01*
X154606676Y-133861946D01*
X154561522Y-133982394D01*
X154557895Y-133997649D01*
X154552369Y-134048514D01*
X154552000Y-134055328D01*
X154552000Y-134727885D01*
X141948500Y-134727885D01*
X141948500Y-134621416D01*
X141950051Y-134601704D01*
X141951220Y-134594324D01*
X141952252Y-134587809D01*
X141948673Y-134519519D01*
X141948500Y-134512925D01*
X141948500Y-134492390D01*
X141946353Y-134471960D01*
X141945836Y-134465385D01*
X141942603Y-134403696D01*
X141942603Y-134403695D01*
X141942257Y-134397096D01*
X141938616Y-134383508D01*
X141935012Y-134364061D01*
X141934233Y-134356644D01*
X141934232Y-134356640D01*
X141933542Y-134350072D01*
X141912402Y-134285009D01*
X141910529Y-134278685D01*
X141894539Y-134219010D01*
X141894538Y-134219006D01*
X141892829Y-134212630D01*
X141886440Y-134200092D01*
X141878875Y-134181826D01*
X141876569Y-134174728D01*
X141876568Y-134174726D01*
X141874527Y-134168444D01*
X141840335Y-134109220D01*
X141837188Y-134103426D01*
X141809127Y-134048352D01*
X141809125Y-134048349D01*
X141806129Y-134042469D01*
X141797267Y-134031526D01*
X141786073Y-134015237D01*
X141779040Y-134003056D01*
X141774623Y-133998150D01*
X141774619Y-133998145D01*
X141733269Y-133952221D01*
X141728997Y-133947220D01*
X141716072Y-133931259D01*
X141701557Y-133916744D01*
X141697016Y-133911959D01*
X141655673Y-133866043D01*
X141651253Y-133861134D01*
X141639865Y-133852860D01*
X141624832Y-133840019D01*
X139445405Y-131660592D01*
X139411379Y-131598280D01*
X139408500Y-131571497D01*
X139408500Y-130734500D01*
X139428502Y-130666379D01*
X139482158Y-130619886D01*
X139534500Y-130608500D01*
X142648134Y-130608500D01*
X142710316Y-130601745D01*
X142846705Y-130550615D01*
X142963261Y-130463261D01*
X143050615Y-130346705D01*
X143101745Y-130210316D01*
X143108500Y-130148134D01*
X143108500Y-129884500D01*
X143128502Y-129816379D01*
X143182158Y-129769886D01*
X143234500Y-129758500D01*
X147293133Y-129758500D01*
X147361254Y-129778502D01*
X147396345Y-129812228D01*
X147418802Y-129844300D01*
X147580700Y-130006198D01*
X147585208Y-130009355D01*
X147585211Y-130009357D01*
X147645442Y-130051531D01*
X147768251Y-130137523D01*
X147773233Y-130139846D01*
X147773238Y-130139849D01*
X147952274Y-130223334D01*
X147975757Y-130234284D01*
X147981065Y-130235706D01*
X147981067Y-130235707D01*
X148191598Y-130292119D01*
X148191600Y-130292119D01*
X148196913Y-130293543D01*
X148425000Y-130313498D01*
X148653087Y-130293543D01*
X148658400Y-130292119D01*
X148658402Y-130292119D01*
X148868933Y-130235707D01*
X148868935Y-130235706D01*
X148874243Y-130234284D01*
X148897726Y-130223334D01*
X149076762Y-130139849D01*
X149076767Y-130139846D01*
X149081749Y-130137523D01*
X149204558Y-130051531D01*
X149264789Y-130009357D01*
X149264792Y-130009355D01*
X149269300Y-130006198D01*
X149431198Y-129844300D01*
X149562523Y-129656749D01*
X149564846Y-129651767D01*
X149564849Y-129651762D01*
X149656961Y-129454225D01*
X149656961Y-129454224D01*
X149659284Y-129449243D01*
X149679976Y-129372022D01*
X149717119Y-129233402D01*
X149717119Y-129233400D01*
X149718543Y-129228087D01*
X149738498Y-129000000D01*
X149718543Y-128771913D01*
X149717119Y-128766598D01*
X149660707Y-128556067D01*
X149660706Y-128556065D01*
X149659284Y-128550757D01*
X149648667Y-128527988D01*
X149564849Y-128348238D01*
X149564846Y-128348233D01*
X149562523Y-128343251D01*
X149431198Y-128155700D01*
X149269300Y-127993802D01*
X149264792Y-127990645D01*
X149264789Y-127990643D01*
X149131824Y-127897540D01*
X149081749Y-127862477D01*
X149076767Y-127860154D01*
X149076762Y-127860151D01*
X148879225Y-127768039D01*
X148879224Y-127768039D01*
X148874243Y-127765716D01*
X148868935Y-127764294D01*
X148868933Y-127764293D01*
X148658402Y-127707881D01*
X148658400Y-127707881D01*
X148653087Y-127706457D01*
X148425000Y-127686502D01*
X148196913Y-127706457D01*
X148191600Y-127707881D01*
X148191598Y-127707881D01*
X147981067Y-127764293D01*
X147981065Y-127764294D01*
X147975757Y-127765716D01*
X147970776Y-127768039D01*
X147970775Y-127768039D01*
X147773238Y-127860151D01*
X147773233Y-127860154D01*
X147768251Y-127862477D01*
X147718176Y-127897540D01*
X147585211Y-127990643D01*
X147585208Y-127990645D01*
X147580700Y-127993802D01*
X147418802Y-128155700D01*
X147396345Y-128187771D01*
X147340890Y-128232099D01*
X147293133Y-128241500D01*
X143234500Y-128241500D01*
X143166379Y-128221498D01*
X143119886Y-128167842D01*
X143108500Y-128115500D01*
X143108500Y-127451866D01*
X143101745Y-127389684D01*
X143050615Y-127253295D01*
X142963261Y-127136739D01*
X142846705Y-127049385D01*
X142710316Y-126998255D01*
X142648134Y-126991500D01*
X134351866Y-126991500D01*
X134289684Y-126998255D01*
X134153295Y-127049385D01*
X134036739Y-127136739D01*
X133949385Y-127253295D01*
X133898255Y-127389684D01*
X133891500Y-127451866D01*
X133891500Y-127965500D01*
X133871498Y-128033621D01*
X133817842Y-128080114D01*
X133765500Y-128091500D01*
X132134500Y-128091500D01*
X132066379Y-128071498D01*
X132019886Y-128017842D01*
X132008500Y-127965500D01*
X132008500Y-127951866D01*
X132001745Y-127889684D01*
X131950615Y-127753295D01*
X131863261Y-127636739D01*
X131746705Y-127549385D01*
X131610316Y-127498255D01*
X131548134Y-127491500D01*
X129451866Y-127491500D01*
X129389684Y-127498255D01*
X129253295Y-127549385D01*
X129136739Y-127636739D01*
X129049385Y-127753295D01*
X128998255Y-127889684D01*
X128991500Y-127951866D01*
X128991500Y-130048134D01*
X126188924Y-130048134D01*
X125512812Y-129372022D01*
X125498868Y-129364408D01*
X125497035Y-129364539D01*
X125490420Y-129368790D01*
X124638920Y-130220290D01*
X124632160Y-130232670D01*
X113008500Y-130232670D01*
X113008500Y-129004930D01*
X123987725Y-129004930D01*
X124005572Y-129231699D01*
X124007115Y-129241446D01*
X124060217Y-129462627D01*
X124063266Y-129472012D01*
X124150313Y-129682163D01*
X124154795Y-129690958D01*
X124257432Y-129858445D01*
X124267890Y-129867907D01*
X124276666Y-129864124D01*
X125127978Y-129012812D01*
X125134356Y-129001132D01*
X125864408Y-129001132D01*
X125864539Y-129002965D01*
X125868790Y-129009580D01*
X126720290Y-129861080D01*
X126732670Y-129867840D01*
X126740320Y-129862113D01*
X126845205Y-129690958D01*
X126849687Y-129682163D01*
X126936734Y-129472012D01*
X126939783Y-129462627D01*
X126992885Y-129241446D01*
X126994428Y-129231699D01*
X127012275Y-129004930D01*
X127012275Y-128995070D01*
X126994428Y-128768301D01*
X126992885Y-128758554D01*
X126939783Y-128537373D01*
X126936734Y-128527988D01*
X126849687Y-128317837D01*
X126845205Y-128309042D01*
X126742568Y-128141555D01*
X126732110Y-128132093D01*
X126723334Y-128135876D01*
X125872022Y-128987188D01*
X125864408Y-129001132D01*
X125134356Y-129001132D01*
X125135592Y-128998868D01*
X125135461Y-128997035D01*
X125131210Y-128990420D01*
X124279710Y-128138920D01*
X124267330Y-128132160D01*
X124259680Y-128137887D01*
X124154795Y-128309042D01*
X124150313Y-128317837D01*
X124063266Y-128527988D01*
X124060217Y-128537373D01*
X124007115Y-128758554D01*
X124005572Y-128768301D01*
X123987725Y-128995070D01*
X123987725Y-129004930D01*
X113008500Y-129004930D01*
X113008500Y-127767890D01*
X124632093Y-127767890D01*
X124635876Y-127776666D01*
X125487188Y-128627978D01*
X125501132Y-128635592D01*
X125502965Y-128635461D01*
X125509580Y-128631210D01*
X126361080Y-127779710D01*
X126367840Y-127767330D01*
X126362113Y-127759680D01*
X126190958Y-127654795D01*
X126182163Y-127650313D01*
X125972012Y-127563266D01*
X125962627Y-127560217D01*
X125741446Y-127507115D01*
X125731699Y-127505572D01*
X125504930Y-127487725D01*
X125495070Y-127487725D01*
X125268301Y-127505572D01*
X125258554Y-127507115D01*
X125037373Y-127560217D01*
X125027988Y-127563266D01*
X124817837Y-127650313D01*
X124809042Y-127654795D01*
X124641555Y-127757432D01*
X124632093Y-127767890D01*
X113008500Y-127767890D01*
X113008500Y-116232670D01*
X124632160Y-116232670D01*
X124637887Y-116240320D01*
X124809042Y-116345205D01*
X124817837Y-116349687D01*
X125027988Y-116436734D01*
X125037373Y-116439783D01*
X125258554Y-116492885D01*
X125268301Y-116494428D01*
X125495070Y-116512275D01*
X125504930Y-116512275D01*
X125731699Y-116494428D01*
X125741446Y-116492885D01*
X125962627Y-116439783D01*
X125972012Y-116436734D01*
X126182163Y-116349687D01*
X126190958Y-116345205D01*
X126358445Y-116242568D01*
X126367907Y-116232110D01*
X126364124Y-116223334D01*
X126188924Y-116048134D01*
X128991500Y-116048134D01*
X128998255Y-116110316D01*
X129049385Y-116246705D01*
X129136739Y-116363261D01*
X129253295Y-116450615D01*
X129389684Y-116501745D01*
X129451866Y-116508500D01*
X129679250Y-116508500D01*
X129747371Y-116528502D01*
X129772887Y-116550190D01*
X129806723Y-116587769D01*
X129811006Y-116592784D01*
X129823928Y-116608741D01*
X129838443Y-116623256D01*
X129842984Y-116628041D01*
X129888747Y-116678866D01*
X129894086Y-116682745D01*
X129894087Y-116682746D01*
X129900135Y-116687140D01*
X129915168Y-116699981D01*
X132420019Y-119204832D01*
X132432860Y-119219865D01*
X132441134Y-119231253D01*
X132452897Y-119241844D01*
X132491959Y-119277016D01*
X132496744Y-119281557D01*
X132511259Y-119296072D01*
X132513823Y-119298148D01*
X132527216Y-119308994D01*
X132532231Y-119313278D01*
X132578145Y-119354619D01*
X132578150Y-119354623D01*
X132583056Y-119359040D01*
X132588772Y-119362340D01*
X132588776Y-119362343D01*
X132595237Y-119366073D01*
X132611533Y-119377273D01*
X132622470Y-119386129D01*
X132628348Y-119389124D01*
X132628351Y-119389126D01*
X132683426Y-119417188D01*
X132689223Y-119420336D01*
X132717011Y-119436379D01*
X132748444Y-119454527D01*
X132761826Y-119458875D01*
X132780085Y-119466438D01*
X132792630Y-119472830D01*
X132799000Y-119474537D01*
X132799003Y-119474538D01*
X132838074Y-119485007D01*
X132858712Y-119490537D01*
X132865025Y-119492407D01*
X132900803Y-119504032D01*
X132913665Y-119508211D01*
X132930072Y-119513542D01*
X132944075Y-119515014D01*
X132963504Y-119518615D01*
X132977097Y-119522257D01*
X132983694Y-119522603D01*
X132983696Y-119522603D01*
X133045384Y-119525836D01*
X133051958Y-119526353D01*
X133069116Y-119528156D01*
X133069118Y-119528156D01*
X133072390Y-119528500D01*
X133092926Y-119528500D01*
X133099520Y-119528673D01*
X133161218Y-119531907D01*
X133161223Y-119531907D01*
X133167810Y-119532252D01*
X133174326Y-119531220D01*
X133174327Y-119531220D01*
X133181707Y-119530051D01*
X133201417Y-119528500D01*
X136565500Y-119528500D01*
X136633621Y-119548502D01*
X136680114Y-119602158D01*
X136691500Y-119654500D01*
X136691500Y-119968134D01*
X136698255Y-120030316D01*
X136749385Y-120166705D01*
X136836739Y-120283261D01*
X136953295Y-120370615D01*
X137089684Y-120421745D01*
X137151866Y-120428500D01*
X137465500Y-120428500D01*
X137533621Y-120448502D01*
X137580114Y-120502158D01*
X137591500Y-120554500D01*
X137591500Y-121265500D01*
X137571498Y-121333621D01*
X137517842Y-121380114D01*
X137465500Y-121391500D01*
X134351866Y-121391500D01*
X134289684Y-121398255D01*
X134153295Y-121449385D01*
X134036739Y-121536739D01*
X133949385Y-121653295D01*
X133898255Y-121789684D01*
X133891500Y-121851866D01*
X133891500Y-124548134D01*
X133898255Y-124610316D01*
X133949385Y-124746705D01*
X134036739Y-124863261D01*
X134153295Y-124950615D01*
X134289684Y-125001745D01*
X134351866Y-125008500D01*
X142648134Y-125008500D01*
X142710316Y-125001745D01*
X142846705Y-124950615D01*
X142963261Y-124863261D01*
X143050615Y-124746705D01*
X143101745Y-124610316D01*
X143108500Y-124548134D01*
X143108500Y-122966082D01*
X162112172Y-122966082D01*
X162112469Y-122971234D01*
X162112469Y-122971238D01*
X162117845Y-123064463D01*
X162125268Y-123193206D01*
X162126405Y-123198252D01*
X162126406Y-123198258D01*
X162146686Y-123288244D01*
X162175283Y-123415141D01*
X162260875Y-123625927D01*
X162379744Y-123819904D01*
X162528698Y-123991861D01*
X162703737Y-124137181D01*
X162708189Y-124139783D01*
X162708194Y-124139786D01*
X162802199Y-124194718D01*
X162900160Y-124251962D01*
X163112693Y-124333120D01*
X163117759Y-124334151D01*
X163117760Y-124334151D01*
X163216861Y-124354313D01*
X163335627Y-124378476D01*
X163463437Y-124383163D01*
X163557811Y-124386624D01*
X163557815Y-124386624D01*
X163562975Y-124386813D01*
X163568095Y-124386157D01*
X163568097Y-124386157D01*
X163783504Y-124358563D01*
X163783505Y-124358563D01*
X163788632Y-124357906D01*
X163871248Y-124333120D01*
X164001591Y-124294015D01*
X164001592Y-124294014D01*
X164006537Y-124292531D01*
X164210839Y-124192444D01*
X164215043Y-124189446D01*
X164215047Y-124189443D01*
X164391847Y-124063333D01*
X164391849Y-124063331D01*
X164396051Y-124060334D01*
X164557199Y-123899747D01*
X164611764Y-123823812D01*
X164686938Y-123719198D01*
X164686942Y-123719192D01*
X164689956Y-123714997D01*
X164790755Y-123511046D01*
X164856890Y-123293370D01*
X164870077Y-123193206D01*
X164886148Y-123071136D01*
X164886148Y-123071132D01*
X164886585Y-123067815D01*
X164888242Y-123000000D01*
X164869601Y-122773264D01*
X164814178Y-122552617D01*
X164723462Y-122343985D01*
X164599890Y-122152971D01*
X164446779Y-121984704D01*
X164268241Y-121843704D01*
X164258771Y-121838476D01*
X164184615Y-121797540D01*
X164069072Y-121733757D01*
X164064203Y-121732033D01*
X164064199Y-121732031D01*
X163859496Y-121659541D01*
X163859492Y-121659540D01*
X163854621Y-121657815D01*
X163849528Y-121656908D01*
X163849525Y-121656907D01*
X163635734Y-121618825D01*
X163635728Y-121618824D01*
X163630645Y-121617919D01*
X163557196Y-121617022D01*
X163408331Y-121615203D01*
X163408329Y-121615203D01*
X163403161Y-121615140D01*
X163178278Y-121649552D01*
X162962035Y-121720231D01*
X162957447Y-121722619D01*
X162957443Y-121722621D01*
X162813525Y-121797540D01*
X162760239Y-121825279D01*
X162756106Y-121828382D01*
X162756103Y-121828384D01*
X162691153Y-121877150D01*
X162578310Y-121961875D01*
X162421133Y-122126351D01*
X162292931Y-122314289D01*
X162290758Y-122318971D01*
X162290756Y-122318974D01*
X162276948Y-122348722D01*
X162197145Y-122520643D01*
X162136348Y-122739869D01*
X162112172Y-122966082D01*
X143108500Y-122966082D01*
X143108500Y-121851866D01*
X143101745Y-121789684D01*
X143050615Y-121653295D01*
X142963261Y-121536739D01*
X142846705Y-121449385D01*
X142710316Y-121398255D01*
X142648134Y-121391500D01*
X139534500Y-121391500D01*
X139466379Y-121371498D01*
X139419886Y-121317842D01*
X139408500Y-121265500D01*
X139408500Y-120554500D01*
X139428502Y-120486379D01*
X139482158Y-120439886D01*
X139534500Y-120428500D01*
X139848134Y-120428500D01*
X139910316Y-120421745D01*
X140046705Y-120370615D01*
X140163261Y-120283261D01*
X140250615Y-120166705D01*
X140301745Y-120030316D01*
X140308500Y-119968134D01*
X140308500Y-119504500D01*
X140328502Y-119436379D01*
X140382158Y-119389886D01*
X140434500Y-119378500D01*
X142513629Y-119378500D01*
X142581750Y-119398502D01*
X142602724Y-119415405D01*
X143676230Y-120488911D01*
X143688616Y-120503323D01*
X143697149Y-120514918D01*
X143697154Y-120514923D01*
X143701492Y-120520818D01*
X143707070Y-120525557D01*
X143707073Y-120525560D01*
X143741768Y-120555035D01*
X143749284Y-120561965D01*
X143754980Y-120567661D01*
X143757841Y-120569924D01*
X143757846Y-120569929D01*
X143777266Y-120585293D01*
X143780667Y-120588082D01*
X143836285Y-120635333D01*
X143842798Y-120638659D01*
X143847837Y-120642020D01*
X143852979Y-120645196D01*
X143858716Y-120649734D01*
X143924875Y-120680655D01*
X143928769Y-120682558D01*
X143993808Y-120715769D01*
X144000917Y-120717508D01*
X144006551Y-120719604D01*
X144012321Y-120721523D01*
X144018950Y-120724622D01*
X144026113Y-120726112D01*
X144026116Y-120726113D01*
X144076830Y-120736661D01*
X144090435Y-120739491D01*
X144094701Y-120740457D01*
X144165610Y-120757808D01*
X144171212Y-120758156D01*
X144171215Y-120758156D01*
X144176764Y-120758500D01*
X144176762Y-120758535D01*
X144180734Y-120758775D01*
X144184955Y-120759152D01*
X144192115Y-120760641D01*
X144269542Y-120758546D01*
X144272950Y-120758500D01*
X147323133Y-120758500D01*
X147391254Y-120778502D01*
X147426345Y-120812228D01*
X147448802Y-120844300D01*
X147610700Y-121006198D01*
X147615208Y-121009355D01*
X147615211Y-121009357D01*
X147644607Y-121029940D01*
X147798251Y-121137523D01*
X147803233Y-121139846D01*
X147803238Y-121139849D01*
X147976497Y-121220640D01*
X148005757Y-121234284D01*
X148011065Y-121235706D01*
X148011067Y-121235707D01*
X148221598Y-121292119D01*
X148221600Y-121292119D01*
X148226913Y-121293543D01*
X148455000Y-121313498D01*
X148683087Y-121293543D01*
X148688400Y-121292119D01*
X148688402Y-121292119D01*
X148898933Y-121235707D01*
X148898935Y-121235706D01*
X148904243Y-121234284D01*
X148933503Y-121220640D01*
X149106762Y-121139849D01*
X149106767Y-121139846D01*
X149111749Y-121137523D01*
X149265393Y-121029940D01*
X149294789Y-121009357D01*
X149294792Y-121009355D01*
X149299300Y-121006198D01*
X149461198Y-120844300D01*
X149592523Y-120656749D01*
X149594846Y-120651767D01*
X149594849Y-120651762D01*
X149686961Y-120454225D01*
X149686961Y-120454224D01*
X149689284Y-120449243D01*
X149697396Y-120418971D01*
X149747119Y-120233402D01*
X149747119Y-120233400D01*
X149748543Y-120228087D01*
X149768498Y-120000000D01*
X157301502Y-120000000D01*
X157321457Y-120228087D01*
X157322881Y-120233400D01*
X157322881Y-120233402D01*
X157372605Y-120418971D01*
X157380716Y-120449243D01*
X157383039Y-120454224D01*
X157383039Y-120454225D01*
X157475151Y-120651762D01*
X157475154Y-120651767D01*
X157477477Y-120656749D01*
X157608802Y-120844300D01*
X157770700Y-121006198D01*
X157775208Y-121009355D01*
X157775211Y-121009357D01*
X157804607Y-121029940D01*
X157958251Y-121137523D01*
X157963233Y-121139846D01*
X157963238Y-121139849D01*
X158136497Y-121220640D01*
X158165757Y-121234284D01*
X158171065Y-121235706D01*
X158171067Y-121235707D01*
X158381598Y-121292119D01*
X158381600Y-121292119D01*
X158386913Y-121293543D01*
X158615000Y-121313498D01*
X158843087Y-121293543D01*
X158848400Y-121292119D01*
X158848402Y-121292119D01*
X159058933Y-121235707D01*
X159058935Y-121235706D01*
X159064243Y-121234284D01*
X159093503Y-121220640D01*
X159266762Y-121139849D01*
X159266767Y-121139846D01*
X159271749Y-121137523D01*
X159425393Y-121029940D01*
X159454789Y-121009357D01*
X159454792Y-121009355D01*
X159459300Y-121006198D01*
X159621198Y-120844300D01*
X159643655Y-120812229D01*
X159699110Y-120767901D01*
X159746867Y-120758500D01*
X162133629Y-120758500D01*
X162201750Y-120778502D01*
X162222724Y-120795405D01*
X162376230Y-120948911D01*
X162388616Y-120963323D01*
X162397149Y-120974918D01*
X162397154Y-120974923D01*
X162401492Y-120980818D01*
X162407070Y-120985557D01*
X162407073Y-120985560D01*
X162441768Y-121015035D01*
X162449284Y-121021965D01*
X162454979Y-121027660D01*
X162457861Y-121029940D01*
X162477251Y-121045281D01*
X162480655Y-121048072D01*
X162530703Y-121090591D01*
X162536285Y-121095333D01*
X162542801Y-121098661D01*
X162547850Y-121102028D01*
X162552979Y-121105195D01*
X162558716Y-121109734D01*
X162624875Y-121140655D01*
X162628769Y-121142558D01*
X162693808Y-121175769D01*
X162700916Y-121177508D01*
X162706559Y-121179607D01*
X162712322Y-121181524D01*
X162718950Y-121184622D01*
X162726112Y-121186112D01*
X162726113Y-121186112D01*
X162790412Y-121199486D01*
X162794696Y-121200456D01*
X162865610Y-121217808D01*
X162871212Y-121218156D01*
X162871215Y-121218156D01*
X162876764Y-121218500D01*
X162876762Y-121218536D01*
X162880755Y-121218775D01*
X162884947Y-121219149D01*
X162892115Y-121220640D01*
X162969520Y-121218546D01*
X162972928Y-121218500D01*
X164811552Y-121218500D01*
X164879673Y-121238502D01*
X164912714Y-121272251D01*
X164913986Y-121271320D01*
X164917045Y-121275499D01*
X164919744Y-121279904D01*
X165068698Y-121451861D01*
X165243737Y-121597181D01*
X165248189Y-121599783D01*
X165248194Y-121599786D01*
X165435702Y-121709357D01*
X165440160Y-121711962D01*
X165652693Y-121793120D01*
X165657759Y-121794151D01*
X165657760Y-121794151D01*
X165674418Y-121797540D01*
X165875627Y-121838476D01*
X166003437Y-121843163D01*
X166097811Y-121846624D01*
X166097815Y-121846624D01*
X166102975Y-121846813D01*
X166108095Y-121846157D01*
X166108097Y-121846157D01*
X166323504Y-121818563D01*
X166323505Y-121818563D01*
X166328632Y-121817906D01*
X166411248Y-121793120D01*
X166541591Y-121754015D01*
X166541592Y-121754014D01*
X166546537Y-121752531D01*
X166750839Y-121652444D01*
X166755043Y-121649446D01*
X166755047Y-121649443D01*
X166931847Y-121523333D01*
X166931849Y-121523331D01*
X166936051Y-121520334D01*
X167097199Y-121359747D01*
X167127311Y-121317842D01*
X167226938Y-121179198D01*
X167226942Y-121179192D01*
X167229956Y-121174997D01*
X167309014Y-121015035D01*
X167328461Y-120975688D01*
X167328462Y-120975686D01*
X167330755Y-120971046D01*
X167395248Y-120758775D01*
X167395388Y-120758314D01*
X167395388Y-120758313D01*
X167396890Y-120753370D01*
X167398717Y-120739490D01*
X167426148Y-120531136D01*
X167426148Y-120531132D01*
X167426585Y-120527815D01*
X167426900Y-120514918D01*
X167428160Y-120463365D01*
X167428160Y-120463361D01*
X167428242Y-120460000D01*
X167409601Y-120233264D01*
X167354178Y-120012617D01*
X167263462Y-119803985D01*
X167174727Y-119666821D01*
X167142698Y-119617311D01*
X167142696Y-119617308D01*
X167139890Y-119612971D01*
X166986779Y-119444704D01*
X166808241Y-119303704D01*
X166798177Y-119298148D01*
X166696812Y-119242192D01*
X166609072Y-119193757D01*
X166604203Y-119192033D01*
X166604199Y-119192031D01*
X166399496Y-119119541D01*
X166399492Y-119119540D01*
X166394621Y-119117815D01*
X166389528Y-119116908D01*
X166389525Y-119116907D01*
X166175734Y-119078825D01*
X166175728Y-119078824D01*
X166170645Y-119077919D01*
X166097196Y-119077022D01*
X165948331Y-119075203D01*
X165948329Y-119075203D01*
X165943161Y-119075140D01*
X165718278Y-119109552D01*
X165502035Y-119180231D01*
X165497447Y-119182619D01*
X165497443Y-119182621D01*
X165307389Y-119281557D01*
X165300239Y-119285279D01*
X165296106Y-119288382D01*
X165296103Y-119288384D01*
X165122445Y-119418770D01*
X165118310Y-119421875D01*
X165087107Y-119454527D01*
X165014935Y-119530051D01*
X164961133Y-119586351D01*
X164958225Y-119590614D01*
X164958221Y-119590619D01*
X164920100Y-119646504D01*
X164865189Y-119691507D01*
X164816011Y-119701500D01*
X163326371Y-119701500D01*
X163258250Y-119681498D01*
X163237276Y-119664595D01*
X163083770Y-119511089D01*
X163071384Y-119496677D01*
X163062851Y-119485082D01*
X163062846Y-119485077D01*
X163058508Y-119479182D01*
X163052930Y-119474443D01*
X163052927Y-119474440D01*
X163018232Y-119444965D01*
X163010716Y-119438035D01*
X163005021Y-119432340D01*
X162996518Y-119425613D01*
X162982749Y-119414719D01*
X162979345Y-119411928D01*
X162929297Y-119369409D01*
X162929295Y-119369408D01*
X162923715Y-119364667D01*
X162917199Y-119361339D01*
X162912150Y-119357972D01*
X162907021Y-119354805D01*
X162901284Y-119350266D01*
X162835125Y-119319345D01*
X162831225Y-119317439D01*
X162766192Y-119284231D01*
X162759084Y-119282492D01*
X162753441Y-119280393D01*
X162747678Y-119278476D01*
X162741050Y-119275378D01*
X162669583Y-119260513D01*
X162665299Y-119259543D01*
X162594390Y-119242192D01*
X162588788Y-119241844D01*
X162588785Y-119241844D01*
X162583236Y-119241500D01*
X162583238Y-119241464D01*
X162579245Y-119241225D01*
X162575053Y-119240851D01*
X162567885Y-119239360D01*
X162501675Y-119241151D01*
X162490479Y-119241454D01*
X162487072Y-119241500D01*
X159746867Y-119241500D01*
X159678746Y-119221498D01*
X159643655Y-119187772D01*
X159621198Y-119155700D01*
X159459300Y-118993802D01*
X159454792Y-118990645D01*
X159454789Y-118990643D01*
X159376611Y-118935902D01*
X159271749Y-118862477D01*
X159266767Y-118860154D01*
X159266762Y-118860151D01*
X159069225Y-118768039D01*
X159069224Y-118768039D01*
X159064243Y-118765716D01*
X159058935Y-118764294D01*
X159058933Y-118764293D01*
X158848402Y-118707881D01*
X158848400Y-118707881D01*
X158843087Y-118706457D01*
X158615000Y-118686502D01*
X158386913Y-118706457D01*
X158381600Y-118707881D01*
X158381598Y-118707881D01*
X158171067Y-118764293D01*
X158171065Y-118764294D01*
X158165757Y-118765716D01*
X158160776Y-118768039D01*
X158160775Y-118768039D01*
X157963238Y-118860151D01*
X157963233Y-118860154D01*
X157958251Y-118862477D01*
X157853389Y-118935902D01*
X157775211Y-118990643D01*
X157775208Y-118990645D01*
X157770700Y-118993802D01*
X157608802Y-119155700D01*
X157605645Y-119160208D01*
X157605643Y-119160211D01*
X157582154Y-119193757D01*
X157477477Y-119343251D01*
X157475154Y-119348233D01*
X157475151Y-119348238D01*
X157391014Y-119528673D01*
X157380716Y-119550757D01*
X157379294Y-119556065D01*
X157379293Y-119556067D01*
X157345684Y-119681498D01*
X157321457Y-119771913D01*
X157301502Y-120000000D01*
X149768498Y-120000000D01*
X149748543Y-119771913D01*
X149724316Y-119681498D01*
X149690707Y-119556067D01*
X149690706Y-119556065D01*
X149689284Y-119550757D01*
X149678986Y-119528673D01*
X149594849Y-119348238D01*
X149594846Y-119348233D01*
X149592523Y-119343251D01*
X149487846Y-119193757D01*
X149464357Y-119160211D01*
X149464355Y-119160208D01*
X149461198Y-119155700D01*
X149299300Y-118993802D01*
X149294792Y-118990645D01*
X149294789Y-118990643D01*
X149216611Y-118935902D01*
X149111749Y-118862477D01*
X149106767Y-118860154D01*
X149106762Y-118860151D01*
X148909225Y-118768039D01*
X148909224Y-118768039D01*
X148904243Y-118765716D01*
X148898935Y-118764294D01*
X148898933Y-118764293D01*
X148688402Y-118707881D01*
X148688400Y-118707881D01*
X148683087Y-118706457D01*
X148455000Y-118686502D01*
X148226913Y-118706457D01*
X148221600Y-118707881D01*
X148221598Y-118707881D01*
X148011067Y-118764293D01*
X148011065Y-118764294D01*
X148005757Y-118765716D01*
X148000776Y-118768039D01*
X148000775Y-118768039D01*
X147803238Y-118860151D01*
X147803233Y-118860154D01*
X147798251Y-118862477D01*
X147693389Y-118935902D01*
X147615211Y-118990643D01*
X147615208Y-118990645D01*
X147610700Y-118993802D01*
X147448802Y-119155700D01*
X147426345Y-119187771D01*
X147370890Y-119232099D01*
X147323133Y-119241500D01*
X144626371Y-119241500D01*
X144558250Y-119221498D01*
X144537276Y-119204595D01*
X143463770Y-118131089D01*
X143451384Y-118116677D01*
X143442851Y-118105082D01*
X143442846Y-118105077D01*
X143438508Y-118099182D01*
X143432930Y-118094443D01*
X143432927Y-118094440D01*
X143398232Y-118064965D01*
X143390716Y-118058035D01*
X143385021Y-118052340D01*
X143378880Y-118047482D01*
X143362749Y-118034719D01*
X143359345Y-118031928D01*
X143309297Y-117989409D01*
X143309295Y-117989408D01*
X143303715Y-117984667D01*
X143297199Y-117981339D01*
X143292150Y-117977972D01*
X143287021Y-117974805D01*
X143281284Y-117970266D01*
X143215125Y-117939345D01*
X143211225Y-117937439D01*
X143193870Y-117928577D01*
X143146192Y-117904231D01*
X143139084Y-117902492D01*
X143133441Y-117900393D01*
X143127678Y-117898476D01*
X143121050Y-117895378D01*
X143049583Y-117880513D01*
X143045299Y-117879543D01*
X142974390Y-117862192D01*
X142968788Y-117861844D01*
X142968785Y-117861844D01*
X142963236Y-117861500D01*
X142963238Y-117861464D01*
X142959245Y-117861225D01*
X142955053Y-117860851D01*
X142947885Y-117859360D01*
X142881675Y-117861151D01*
X142870479Y-117861454D01*
X142867072Y-117861500D01*
X140434500Y-117861500D01*
X140366379Y-117841498D01*
X140319886Y-117787842D01*
X140308500Y-117735500D01*
X140308500Y-117271866D01*
X140301745Y-117209684D01*
X140250615Y-117073295D01*
X140163261Y-116956739D01*
X140046705Y-116869385D01*
X139910316Y-116818255D01*
X139848134Y-116811500D01*
X137151866Y-116811500D01*
X137089684Y-116818255D01*
X136953295Y-116869385D01*
X136836739Y-116956739D01*
X136749385Y-117073295D01*
X136698255Y-117209684D01*
X136691500Y-117271866D01*
X136691500Y-117585500D01*
X136671498Y-117653621D01*
X136617842Y-117700114D01*
X136565500Y-117711500D01*
X133548503Y-117711500D01*
X133480382Y-117691498D01*
X133459408Y-117674595D01*
X132030038Y-116245225D01*
X131996012Y-116182913D01*
X132000126Y-116126109D01*
X131997144Y-116125400D01*
X131998971Y-116117715D01*
X132001745Y-116110316D01*
X132008500Y-116048134D01*
X132008500Y-115086062D01*
X143778493Y-115086062D01*
X143787789Y-115098077D01*
X143838994Y-115133931D01*
X143848489Y-115139414D01*
X144045947Y-115231490D01*
X144056239Y-115235236D01*
X144266688Y-115291625D01*
X144277481Y-115293528D01*
X144494525Y-115312517D01*
X144505475Y-115312517D01*
X144722519Y-115293528D01*
X144733312Y-115291625D01*
X144943761Y-115235236D01*
X144954053Y-115231490D01*
X145151511Y-115139414D01*
X145161006Y-115133931D01*
X145213048Y-115097491D01*
X145221424Y-115087012D01*
X145214356Y-115073566D01*
X144946852Y-114806062D01*
X159698493Y-114806062D01*
X159707789Y-114818077D01*
X159758994Y-114853931D01*
X159768489Y-114859414D01*
X159965947Y-114951490D01*
X159976239Y-114955236D01*
X160186688Y-115011625D01*
X160197481Y-115013528D01*
X160414525Y-115032517D01*
X160425475Y-115032517D01*
X160642519Y-115013528D01*
X160653312Y-115011625D01*
X160863761Y-114955236D01*
X160874053Y-114951490D01*
X161071511Y-114859414D01*
X161081006Y-114853931D01*
X161133048Y-114817491D01*
X161141424Y-114807012D01*
X161134356Y-114793566D01*
X160432812Y-114092022D01*
X160418868Y-114084408D01*
X160417035Y-114084539D01*
X160410420Y-114088790D01*
X159704923Y-114794287D01*
X159698493Y-114806062D01*
X144946852Y-114806062D01*
X144512812Y-114372022D01*
X144498868Y-114364408D01*
X144497035Y-114364539D01*
X144490420Y-114368790D01*
X143784923Y-115074287D01*
X143778493Y-115086062D01*
X132008500Y-115086062D01*
X132008500Y-114005475D01*
X143187483Y-114005475D01*
X143206472Y-114222519D01*
X143208375Y-114233312D01*
X143264764Y-114443761D01*
X143268510Y-114454053D01*
X143360586Y-114651511D01*
X143366069Y-114661006D01*
X143402509Y-114713048D01*
X143412988Y-114721424D01*
X143426434Y-114714356D01*
X144127978Y-114012812D01*
X144134356Y-114001132D01*
X144864408Y-114001132D01*
X144864539Y-114002965D01*
X144868790Y-114009580D01*
X145574287Y-114715077D01*
X145586062Y-114721507D01*
X145598077Y-114712211D01*
X145633931Y-114661006D01*
X145639414Y-114651511D01*
X145731490Y-114454053D01*
X145735236Y-114443761D01*
X145791625Y-114233312D01*
X145793528Y-114222519D01*
X145812517Y-114005475D01*
X145812517Y-113994525D01*
X145793528Y-113777481D01*
X145791625Y-113766688D01*
X145780582Y-113725475D01*
X159107483Y-113725475D01*
X159126472Y-113942519D01*
X159128375Y-113953312D01*
X159184764Y-114163761D01*
X159188510Y-114174053D01*
X159280586Y-114371511D01*
X159286069Y-114381006D01*
X159322509Y-114433048D01*
X159332988Y-114441424D01*
X159346434Y-114434356D01*
X160047978Y-113732812D01*
X160054356Y-113721132D01*
X160784408Y-113721132D01*
X160784539Y-113722965D01*
X160788790Y-113729580D01*
X161494287Y-114435077D01*
X161506062Y-114441507D01*
X161518077Y-114432211D01*
X161553931Y-114381006D01*
X161559414Y-114371511D01*
X161651490Y-114174053D01*
X161655236Y-114163761D01*
X161711625Y-113953312D01*
X161713528Y-113942519D01*
X161732517Y-113725475D01*
X161732517Y-113714525D01*
X161713528Y-113497481D01*
X161711625Y-113486688D01*
X161655236Y-113276239D01*
X161651490Y-113265947D01*
X161559414Y-113068489D01*
X161553931Y-113058994D01*
X161517491Y-113006952D01*
X161507012Y-112998576D01*
X161493566Y-113005644D01*
X160792022Y-113707188D01*
X160784408Y-113721132D01*
X160054356Y-113721132D01*
X160055592Y-113718868D01*
X160055461Y-113717035D01*
X160051210Y-113710420D01*
X159345713Y-113004923D01*
X159333938Y-112998493D01*
X159321923Y-113007789D01*
X159286069Y-113058994D01*
X159280586Y-113068489D01*
X159188510Y-113265947D01*
X159184764Y-113276239D01*
X159128375Y-113486688D01*
X159126472Y-113497481D01*
X159107483Y-113714525D01*
X159107483Y-113725475D01*
X145780582Y-113725475D01*
X145735236Y-113556239D01*
X145731490Y-113545947D01*
X145639414Y-113348489D01*
X145633931Y-113338994D01*
X145597491Y-113286952D01*
X145587012Y-113278576D01*
X145573566Y-113285644D01*
X144872022Y-113987188D01*
X144864408Y-114001132D01*
X144134356Y-114001132D01*
X144135592Y-113998868D01*
X144135461Y-113997035D01*
X144131210Y-113990420D01*
X143425713Y-113284923D01*
X143413938Y-113278493D01*
X143401923Y-113287789D01*
X143366069Y-113338994D01*
X143360586Y-113348489D01*
X143268510Y-113545947D01*
X143264764Y-113556239D01*
X143208375Y-113766688D01*
X143206472Y-113777481D01*
X143187483Y-113994525D01*
X143187483Y-114005475D01*
X132008500Y-114005475D01*
X132008500Y-113951866D01*
X132001745Y-113889684D01*
X131950615Y-113753295D01*
X131863261Y-113636739D01*
X131746705Y-113549385D01*
X131610316Y-113498255D01*
X131548134Y-113491500D01*
X129451866Y-113491500D01*
X129389684Y-113498255D01*
X129253295Y-113549385D01*
X129136739Y-113636739D01*
X129049385Y-113753295D01*
X128998255Y-113889684D01*
X128991500Y-113951866D01*
X128991500Y-116048134D01*
X126188924Y-116048134D01*
X125512812Y-115372022D01*
X125498868Y-115364408D01*
X125497035Y-115364539D01*
X125490420Y-115368790D01*
X124638920Y-116220290D01*
X124632160Y-116232670D01*
X113008500Y-116232670D01*
X113008500Y-115004930D01*
X123987725Y-115004930D01*
X124005572Y-115231699D01*
X124007115Y-115241446D01*
X124060217Y-115462627D01*
X124063266Y-115472012D01*
X124150313Y-115682163D01*
X124154795Y-115690958D01*
X124257432Y-115858445D01*
X124267890Y-115867907D01*
X124276666Y-115864124D01*
X125127978Y-115012812D01*
X125134356Y-115001132D01*
X125864408Y-115001132D01*
X125864539Y-115002965D01*
X125868790Y-115009580D01*
X126720290Y-115861080D01*
X126732670Y-115867840D01*
X126740320Y-115862113D01*
X126845205Y-115690958D01*
X126849687Y-115682163D01*
X126936734Y-115472012D01*
X126939783Y-115462627D01*
X126992885Y-115241446D01*
X126994428Y-115231699D01*
X127012275Y-115004930D01*
X127012275Y-114995070D01*
X126994428Y-114768301D01*
X126992885Y-114758554D01*
X126939783Y-114537373D01*
X126936734Y-114527988D01*
X126849687Y-114317837D01*
X126845205Y-114309042D01*
X126742568Y-114141555D01*
X126732110Y-114132093D01*
X126723334Y-114135876D01*
X125872022Y-114987188D01*
X125864408Y-115001132D01*
X125134356Y-115001132D01*
X125135592Y-114998868D01*
X125135461Y-114997035D01*
X125131210Y-114990420D01*
X124279710Y-114138920D01*
X124267330Y-114132160D01*
X124259680Y-114137887D01*
X124154795Y-114309042D01*
X124150313Y-114317837D01*
X124063266Y-114527988D01*
X124060217Y-114537373D01*
X124007115Y-114758554D01*
X124005572Y-114768301D01*
X123987725Y-114995070D01*
X123987725Y-115004930D01*
X113008500Y-115004930D01*
X113008500Y-113767890D01*
X124632093Y-113767890D01*
X124635876Y-113776666D01*
X125487188Y-114627978D01*
X125501132Y-114635592D01*
X125502965Y-114635461D01*
X125509580Y-114631210D01*
X126361080Y-113779710D01*
X126367840Y-113767330D01*
X126362113Y-113759680D01*
X126190958Y-113654795D01*
X126182163Y-113650313D01*
X125972012Y-113563266D01*
X125962627Y-113560217D01*
X125741446Y-113507115D01*
X125731699Y-113505572D01*
X125504930Y-113487725D01*
X125495070Y-113487725D01*
X125268301Y-113505572D01*
X125258554Y-113507115D01*
X125037373Y-113560217D01*
X125027988Y-113563266D01*
X124817837Y-113650313D01*
X124809042Y-113654795D01*
X124641555Y-113757432D01*
X124632093Y-113767890D01*
X113008500Y-113767890D01*
X113008500Y-112912988D01*
X143778576Y-112912988D01*
X143785644Y-112926434D01*
X144487188Y-113627978D01*
X144501132Y-113635592D01*
X144502965Y-113635461D01*
X144509580Y-113631210D01*
X145215077Y-112925713D01*
X145221507Y-112913938D01*
X145212211Y-112901923D01*
X145161006Y-112866069D01*
X145151511Y-112860586D01*
X144954053Y-112768510D01*
X144943761Y-112764764D01*
X144733312Y-112708375D01*
X144722519Y-112706472D01*
X144505475Y-112687483D01*
X144494525Y-112687483D01*
X144277481Y-112706472D01*
X144266688Y-112708375D01*
X144056239Y-112764764D01*
X144045947Y-112768510D01*
X143848489Y-112860586D01*
X143838994Y-112866069D01*
X143786952Y-112902509D01*
X143778576Y-112912988D01*
X113008500Y-112912988D01*
X113008500Y-111806522D01*
X147417273Y-111806522D01*
X147464764Y-111983761D01*
X147468510Y-111994053D01*
X147560586Y-112191511D01*
X147566069Y-112201007D01*
X147691028Y-112379467D01*
X147698084Y-112387875D01*
X147852125Y-112541916D01*
X147860533Y-112548972D01*
X148038993Y-112673931D01*
X148048489Y-112679414D01*
X148245947Y-112771490D01*
X148256239Y-112775236D01*
X148428503Y-112821394D01*
X148442599Y-112821058D01*
X148446000Y-112813116D01*
X148446000Y-112807967D01*
X148954000Y-112807967D01*
X148957973Y-112821498D01*
X148966522Y-112822727D01*
X149143761Y-112775236D01*
X149154053Y-112771490D01*
X149351511Y-112679414D01*
X149361007Y-112673931D01*
X149539467Y-112548972D01*
X149547875Y-112541916D01*
X149701916Y-112387875D01*
X149708972Y-112379467D01*
X149833931Y-112201007D01*
X149839414Y-112191511D01*
X149931490Y-111994053D01*
X149935236Y-111983761D01*
X149981394Y-111811497D01*
X149981058Y-111797401D01*
X149973116Y-111794000D01*
X148972115Y-111794000D01*
X148956876Y-111798475D01*
X148955671Y-111799865D01*
X148954000Y-111807548D01*
X148954000Y-112807967D01*
X148446000Y-112807967D01*
X148446000Y-111812115D01*
X148441525Y-111796876D01*
X148440135Y-111795671D01*
X148432452Y-111794000D01*
X147432033Y-111794000D01*
X147418502Y-111797973D01*
X147417273Y-111806522D01*
X113008500Y-111806522D01*
X113008500Y-109000000D01*
X143186502Y-109000000D01*
X143206457Y-109228087D01*
X143207881Y-109233400D01*
X143207881Y-109233402D01*
X143232670Y-109325913D01*
X143265716Y-109449243D01*
X143268039Y-109454224D01*
X143268039Y-109454225D01*
X143360151Y-109651762D01*
X143360154Y-109651767D01*
X143362477Y-109656749D01*
X143493802Y-109844300D01*
X143655700Y-110006198D01*
X143660208Y-110009355D01*
X143660211Y-110009357D01*
X143694004Y-110033019D01*
X143843251Y-110137523D01*
X143848233Y-110139846D01*
X143848238Y-110139849D01*
X144014553Y-110217402D01*
X144050757Y-110234284D01*
X144056065Y-110235706D01*
X144056067Y-110235707D01*
X144266598Y-110292119D01*
X144266600Y-110292119D01*
X144271913Y-110293543D01*
X144500000Y-110313498D01*
X144728087Y-110293543D01*
X144733400Y-110292119D01*
X144733402Y-110292119D01*
X144943933Y-110235707D01*
X144943935Y-110235706D01*
X144949243Y-110234284D01*
X144985447Y-110217402D01*
X145151762Y-110139849D01*
X145151767Y-110139846D01*
X145156749Y-110137523D01*
X145305996Y-110033019D01*
X145339789Y-110009357D01*
X145339792Y-110009355D01*
X145344300Y-110006198D01*
X145506198Y-109844300D01*
X145528655Y-109812229D01*
X145584110Y-109767901D01*
X145631867Y-109758500D01*
X147568133Y-109758500D01*
X147636254Y-109778502D01*
X147671345Y-109812228D01*
X147693802Y-109844300D01*
X147855700Y-110006198D01*
X147860208Y-110009355D01*
X147860211Y-110009357D01*
X147894004Y-110033019D01*
X148043251Y-110137523D01*
X148048233Y-110139846D01*
X148048238Y-110139849D01*
X148083049Y-110156081D01*
X148136334Y-110202998D01*
X148155795Y-110271275D01*
X148135253Y-110339235D01*
X148083049Y-110384471D01*
X148048489Y-110400586D01*
X148038993Y-110406069D01*
X147860533Y-110531028D01*
X147852125Y-110538084D01*
X147698084Y-110692125D01*
X147691028Y-110700533D01*
X147566069Y-110878993D01*
X147560586Y-110888489D01*
X147468510Y-111085947D01*
X147464764Y-111096239D01*
X147418606Y-111268503D01*
X147418942Y-111282599D01*
X147426884Y-111286000D01*
X149967967Y-111286000D01*
X149981498Y-111282027D01*
X149982727Y-111273478D01*
X149935236Y-111096239D01*
X149931490Y-111085947D01*
X149839414Y-110888489D01*
X149833931Y-110878993D01*
X149708972Y-110700533D01*
X149701916Y-110692125D01*
X149547875Y-110538084D01*
X149539467Y-110531028D01*
X149361007Y-110406069D01*
X149351511Y-110400586D01*
X149316951Y-110384471D01*
X149263666Y-110337554D01*
X149244205Y-110269277D01*
X149264747Y-110201317D01*
X149316951Y-110156081D01*
X149351762Y-110139849D01*
X149351767Y-110139846D01*
X149356749Y-110137523D01*
X149505996Y-110033019D01*
X149539789Y-110009357D01*
X149539792Y-110009355D01*
X149544300Y-110006198D01*
X149706198Y-109844300D01*
X149837523Y-109656749D01*
X149839846Y-109651767D01*
X149839849Y-109651762D01*
X149931961Y-109454225D01*
X149931961Y-109454224D01*
X149934284Y-109449243D01*
X149967331Y-109325913D01*
X149992119Y-109233402D01*
X149992119Y-109233400D01*
X149993543Y-109228087D01*
X150013498Y-109000000D01*
X149993543Y-108771913D01*
X149972565Y-108693623D01*
X149935707Y-108556067D01*
X149935706Y-108556065D01*
X149934284Y-108550757D01*
X149873303Y-108419981D01*
X149839849Y-108348238D01*
X149839846Y-108348233D01*
X149837523Y-108343251D01*
X149706198Y-108155700D01*
X149544300Y-107993802D01*
X149539792Y-107990645D01*
X149539789Y-107990643D01*
X149440787Y-107921321D01*
X149356749Y-107862477D01*
X149351767Y-107860154D01*
X149351762Y-107860151D01*
X149316951Y-107843919D01*
X149263666Y-107797002D01*
X149244205Y-107728725D01*
X149264747Y-107660765D01*
X149316951Y-107615529D01*
X149351511Y-107599414D01*
X149361007Y-107593931D01*
X149539467Y-107468972D01*
X149547875Y-107461916D01*
X149701916Y-107307875D01*
X149708972Y-107299467D01*
X149833931Y-107121007D01*
X149839414Y-107111511D01*
X149931490Y-106914053D01*
X149935236Y-106903761D01*
X149981394Y-106731497D01*
X149981058Y-106717401D01*
X149973116Y-106714000D01*
X147432033Y-106714000D01*
X147418502Y-106717973D01*
X147417273Y-106726522D01*
X147464764Y-106903761D01*
X147468510Y-106914053D01*
X147560586Y-107111511D01*
X147566069Y-107121007D01*
X147691028Y-107299467D01*
X147698084Y-107307875D01*
X147852125Y-107461916D01*
X147860533Y-107468972D01*
X148038993Y-107593931D01*
X148048489Y-107599414D01*
X148083049Y-107615529D01*
X148136334Y-107662446D01*
X148155795Y-107730723D01*
X148135253Y-107798683D01*
X148083049Y-107843919D01*
X148048238Y-107860151D01*
X148048233Y-107860154D01*
X148043251Y-107862477D01*
X147959213Y-107921321D01*
X147860211Y-107990643D01*
X147860208Y-107990645D01*
X147855700Y-107993802D01*
X147693802Y-108155700D01*
X147671345Y-108187771D01*
X147615890Y-108232099D01*
X147568133Y-108241500D01*
X145631867Y-108241500D01*
X145563746Y-108221498D01*
X145528655Y-108187772D01*
X145506198Y-108155700D01*
X145344300Y-107993802D01*
X145339792Y-107990645D01*
X145339789Y-107990643D01*
X145240787Y-107921321D01*
X145156749Y-107862477D01*
X145151767Y-107860154D01*
X145151762Y-107860151D01*
X144954225Y-107768039D01*
X144954224Y-107768039D01*
X144949243Y-107765716D01*
X144943935Y-107764294D01*
X144943933Y-107764293D01*
X144733402Y-107707881D01*
X144733400Y-107707881D01*
X144728087Y-107706457D01*
X144500000Y-107686502D01*
X144271913Y-107706457D01*
X144266600Y-107707881D01*
X144266598Y-107707881D01*
X144056067Y-107764293D01*
X144056065Y-107764294D01*
X144050757Y-107765716D01*
X144045776Y-107768039D01*
X144045775Y-107768039D01*
X143848238Y-107860151D01*
X143848233Y-107860154D01*
X143843251Y-107862477D01*
X143759213Y-107921321D01*
X143660211Y-107990643D01*
X143660208Y-107990645D01*
X143655700Y-107993802D01*
X143493802Y-108155700D01*
X143362477Y-108343251D01*
X143360154Y-108348233D01*
X143360151Y-108348238D01*
X143326697Y-108419981D01*
X143265716Y-108550757D01*
X143264294Y-108556065D01*
X143264293Y-108556067D01*
X143227435Y-108693623D01*
X143206457Y-108771913D01*
X143186502Y-109000000D01*
X113008500Y-109000000D01*
X113008500Y-105148134D01*
X123891500Y-105148134D01*
X123898255Y-105210316D01*
X123949385Y-105346705D01*
X124036739Y-105463261D01*
X124153295Y-105550615D01*
X124289684Y-105601745D01*
X124351866Y-105608500D01*
X132648134Y-105608500D01*
X132710316Y-105601745D01*
X132846705Y-105550615D01*
X132963261Y-105463261D01*
X133050615Y-105346705D01*
X133101745Y-105210316D01*
X133108500Y-105148134D01*
X133108500Y-104834500D01*
X133128502Y-104766379D01*
X133182158Y-104719886D01*
X133234500Y-104708500D01*
X137219318Y-104708500D01*
X137287439Y-104728502D01*
X137308024Y-104745017D01*
X137322180Y-104759050D01*
X137325942Y-104761808D01*
X137325945Y-104761811D01*
X137452171Y-104854363D01*
X137538954Y-104917995D01*
X137543089Y-104920171D01*
X137543093Y-104920173D01*
X137758487Y-105033498D01*
X137776840Y-105043154D01*
X137907098Y-105088642D01*
X138001820Y-105121720D01*
X138030613Y-105131775D01*
X138035206Y-105132647D01*
X138290109Y-105181042D01*
X138290112Y-105181042D01*
X138294698Y-105181913D01*
X138422370Y-105186929D01*
X138558625Y-105192283D01*
X138558630Y-105192283D01*
X138563293Y-105192466D01*
X138667607Y-105181042D01*
X138825844Y-105163713D01*
X138825850Y-105163712D01*
X138830497Y-105163203D01*
X138874830Y-105151531D01*
X139085918Y-105095956D01*
X139085920Y-105095955D01*
X139090441Y-105094765D01*
X139104693Y-105088642D01*
X139333120Y-104990502D01*
X139333122Y-104990501D01*
X139337414Y-104988657D01*
X139477195Y-104902158D01*
X139562017Y-104849669D01*
X139562021Y-104849666D01*
X139565990Y-104847210D01*
X139771149Y-104673530D01*
X139948382Y-104471434D01*
X139951831Y-104466073D01*
X140028847Y-104346337D01*
X140082521Y-104299866D01*
X140134818Y-104288500D01*
X143531497Y-104288500D01*
X143599618Y-104308502D01*
X143620592Y-104325405D01*
X143800019Y-104504832D01*
X143812860Y-104519865D01*
X143821134Y-104531253D01*
X143863986Y-104569837D01*
X143871959Y-104577016D01*
X143876744Y-104581557D01*
X143891259Y-104596072D01*
X143893823Y-104598148D01*
X143907216Y-104608994D01*
X143912231Y-104613278D01*
X143958145Y-104654619D01*
X143958150Y-104654623D01*
X143963056Y-104659040D01*
X143968772Y-104662340D01*
X143968776Y-104662343D01*
X143975237Y-104666073D01*
X143991533Y-104677273D01*
X144002470Y-104686129D01*
X144046376Y-104708500D01*
X144063421Y-104717185D01*
X144069215Y-104720331D01*
X144128444Y-104754527D01*
X144134726Y-104756568D01*
X144134728Y-104756569D01*
X144141826Y-104758875D01*
X144160092Y-104766440D01*
X144172630Y-104772829D01*
X144179006Y-104774538D01*
X144179010Y-104774539D01*
X144238685Y-104790529D01*
X144245010Y-104792402D01*
X144310072Y-104813542D01*
X144316640Y-104814232D01*
X144316644Y-104814233D01*
X144324061Y-104815012D01*
X144343508Y-104818616D01*
X144357096Y-104822257D01*
X144363695Y-104822603D01*
X144363696Y-104822603D01*
X144425385Y-104825836D01*
X144431960Y-104826353D01*
X144446222Y-104827852D01*
X144452390Y-104828500D01*
X144472925Y-104828500D01*
X144479519Y-104828673D01*
X144541217Y-104831907D01*
X144541222Y-104831907D01*
X144547809Y-104832252D01*
X144561707Y-104830051D01*
X144581416Y-104828500D01*
X147310246Y-104828500D01*
X147378367Y-104848502D01*
X147424860Y-104902158D01*
X147428228Y-104910270D01*
X147435384Y-104929357D01*
X147449385Y-104966705D01*
X147536739Y-105083261D01*
X147653295Y-105170615D01*
X147789684Y-105221745D01*
X147801229Y-105222999D01*
X147803910Y-105224113D01*
X147805222Y-105224425D01*
X147805172Y-105224637D01*
X147866790Y-105250238D01*
X147907218Y-105308599D01*
X147909677Y-105379553D01*
X147873384Y-105440572D01*
X147862775Y-105449147D01*
X147852125Y-105458084D01*
X147698084Y-105612125D01*
X147691028Y-105620533D01*
X147566069Y-105798993D01*
X147560586Y-105808489D01*
X147468510Y-106005947D01*
X147464764Y-106016239D01*
X147418606Y-106188503D01*
X147418942Y-106202599D01*
X147426884Y-106206000D01*
X149967967Y-106206000D01*
X149981498Y-106202027D01*
X149982727Y-106193478D01*
X149935236Y-106016239D01*
X149931490Y-106005947D01*
X149839414Y-105808489D01*
X149833931Y-105798993D01*
X149708972Y-105620533D01*
X149701916Y-105612125D01*
X149547875Y-105458084D01*
X149535254Y-105447493D01*
X149536108Y-105446475D01*
X149495776Y-105396016D01*
X149488468Y-105325397D01*
X149520500Y-105262037D01*
X149581702Y-105226053D01*
X149598762Y-105223000D01*
X149610316Y-105221745D01*
X149746705Y-105170615D01*
X149863261Y-105083261D01*
X149950615Y-104966705D01*
X150001745Y-104830316D01*
X150008500Y-104768134D01*
X150008500Y-103071866D01*
X150001745Y-103009684D01*
X149950615Y-102873295D01*
X149863261Y-102756739D01*
X149746705Y-102669385D01*
X149610316Y-102618255D01*
X149548134Y-102611500D01*
X147851866Y-102611500D01*
X147789684Y-102618255D01*
X147653295Y-102669385D01*
X147536739Y-102756739D01*
X147449385Y-102873295D01*
X147446233Y-102881703D01*
X147428228Y-102929730D01*
X147385586Y-102986495D01*
X147319024Y-103011194D01*
X147310246Y-103011500D01*
X144928503Y-103011500D01*
X144860382Y-102991498D01*
X144839408Y-102974595D01*
X144659981Y-102795168D01*
X144647140Y-102780135D01*
X144642746Y-102774087D01*
X144642745Y-102774086D01*
X144638866Y-102768747D01*
X144588041Y-102722984D01*
X144583256Y-102718443D01*
X144568741Y-102703928D01*
X144561282Y-102697888D01*
X144552784Y-102691006D01*
X144547769Y-102686722D01*
X144501855Y-102645381D01*
X144501850Y-102645377D01*
X144496944Y-102640960D01*
X144491228Y-102637660D01*
X144491224Y-102637657D01*
X144484763Y-102633927D01*
X144468466Y-102622727D01*
X144462660Y-102618025D01*
X144462658Y-102618024D01*
X144457530Y-102613871D01*
X144396577Y-102582814D01*
X144390782Y-102579667D01*
X144337279Y-102548777D01*
X144337278Y-102548776D01*
X144331556Y-102545473D01*
X144325274Y-102543432D01*
X144325272Y-102543431D01*
X144318174Y-102541125D01*
X144299907Y-102533559D01*
X144287370Y-102527171D01*
X144221299Y-102509467D01*
X144214997Y-102507600D01*
X144149928Y-102486458D01*
X144143363Y-102485768D01*
X144143354Y-102485766D01*
X144135925Y-102484985D01*
X144116491Y-102481383D01*
X144109286Y-102479453D01*
X144109284Y-102479453D01*
X144102903Y-102477743D01*
X144096312Y-102477398D01*
X144096308Y-102477397D01*
X144034616Y-102474164D01*
X144028042Y-102473647D01*
X144010884Y-102471844D01*
X144010882Y-102471844D01*
X144007610Y-102471500D01*
X143987074Y-102471500D01*
X143980480Y-102471327D01*
X143918782Y-102468093D01*
X143918777Y-102468093D01*
X143912190Y-102467748D01*
X143898292Y-102469949D01*
X143878583Y-102471500D01*
X140137007Y-102471500D01*
X140068886Y-102451498D01*
X140027614Y-102408024D01*
X140027018Y-102406981D01*
X140003518Y-102365864D01*
X139837105Y-102154769D01*
X139641317Y-101970591D01*
X139420457Y-101817374D01*
X139416264Y-101815306D01*
X139183564Y-101700551D01*
X139183561Y-101700550D01*
X139179376Y-101698486D01*
X139131745Y-101683239D01*
X139077621Y-101665914D01*
X138923370Y-101616538D01*
X138918763Y-101615788D01*
X138918760Y-101615787D01*
X138662674Y-101574081D01*
X138662675Y-101574081D01*
X138658063Y-101573330D01*
X138527719Y-101571624D01*
X138393961Y-101569873D01*
X138393958Y-101569873D01*
X138389284Y-101569812D01*
X138122937Y-101606060D01*
X137864874Y-101681278D01*
X137620763Y-101793815D01*
X137616854Y-101796378D01*
X137399881Y-101938631D01*
X137399876Y-101938635D01*
X137395968Y-101941197D01*
X137195426Y-102120188D01*
X137023544Y-102326854D01*
X137021121Y-102330847D01*
X136925456Y-102488498D01*
X136884096Y-102556656D01*
X136882287Y-102560970D01*
X136882285Y-102560974D01*
X136816565Y-102717699D01*
X136780148Y-102804545D01*
X136779744Y-102806137D01*
X136739616Y-102863735D01*
X136673981Y-102890799D01*
X136660712Y-102891500D01*
X133234500Y-102891500D01*
X133166379Y-102871498D01*
X133119886Y-102817842D01*
X133108500Y-102765500D01*
X133108500Y-102451866D01*
X133101745Y-102389684D01*
X133050615Y-102253295D01*
X132963261Y-102136739D01*
X132846705Y-102049385D01*
X132710316Y-101998255D01*
X132648134Y-101991500D01*
X124351866Y-101991500D01*
X124289684Y-101998255D01*
X124153295Y-102049385D01*
X124036739Y-102136739D01*
X123949385Y-102253295D01*
X123898255Y-102389684D01*
X123891500Y-102451866D01*
X123891500Y-105148134D01*
X113008500Y-105148134D01*
X113008500Y-99548134D01*
X123891500Y-99548134D01*
X123898255Y-99610316D01*
X123949385Y-99746705D01*
X124036739Y-99863261D01*
X124153295Y-99950615D01*
X124289684Y-100001745D01*
X124351866Y-100008500D01*
X132648134Y-100008500D01*
X132710316Y-100001745D01*
X132846705Y-99950615D01*
X132963261Y-99863261D01*
X133050615Y-99746705D01*
X133101745Y-99610316D01*
X133108500Y-99548134D01*
X133108500Y-99234500D01*
X133128502Y-99166379D01*
X133182158Y-99119886D01*
X133234500Y-99108500D01*
X160271497Y-99108500D01*
X160339618Y-99128502D01*
X160360592Y-99145405D01*
X165520019Y-104304832D01*
X165532860Y-104319865D01*
X165541134Y-104331253D01*
X165560227Y-104348444D01*
X165591959Y-104377016D01*
X165596744Y-104381557D01*
X165611259Y-104396072D01*
X165613823Y-104398148D01*
X165627216Y-104408994D01*
X165632231Y-104413278D01*
X165678145Y-104454619D01*
X165678150Y-104454623D01*
X165683056Y-104459040D01*
X165688772Y-104462340D01*
X165688776Y-104462343D01*
X165695237Y-104466073D01*
X165711533Y-104477273D01*
X165722470Y-104486129D01*
X165728348Y-104489124D01*
X165728351Y-104489126D01*
X165783426Y-104517188D01*
X165789223Y-104520336D01*
X165842723Y-104551224D01*
X165848444Y-104554527D01*
X165861826Y-104558875D01*
X165880085Y-104566438D01*
X165892630Y-104572830D01*
X165899000Y-104574537D01*
X165899003Y-104574538D01*
X165925199Y-104581557D01*
X165958712Y-104590537D01*
X165965025Y-104592407D01*
X166000803Y-104604032D01*
X166022461Y-104611069D01*
X166030072Y-104613542D01*
X166044075Y-104615014D01*
X166063504Y-104618615D01*
X166077097Y-104622257D01*
X166083694Y-104622603D01*
X166083696Y-104622603D01*
X166145384Y-104625836D01*
X166151958Y-104626353D01*
X166169116Y-104628156D01*
X166169118Y-104628156D01*
X166172390Y-104628500D01*
X166192926Y-104628500D01*
X166199520Y-104628673D01*
X166261218Y-104631907D01*
X166261223Y-104631907D01*
X166267810Y-104632252D01*
X166281708Y-104630051D01*
X166301417Y-104628500D01*
X169585812Y-104628500D01*
X169653933Y-104648502D01*
X169674907Y-104665405D01*
X169735700Y-104726198D01*
X169740208Y-104729355D01*
X169740211Y-104729357D01*
X169800442Y-104771531D01*
X169923251Y-104857523D01*
X169928233Y-104859846D01*
X169928238Y-104859849D01*
X170125775Y-104951961D01*
X170130757Y-104954284D01*
X170136065Y-104955706D01*
X170136067Y-104955707D01*
X170346598Y-105012119D01*
X170346600Y-105012119D01*
X170351913Y-105013543D01*
X170580000Y-105033498D01*
X170808087Y-105013543D01*
X170813400Y-105012119D01*
X170813402Y-105012119D01*
X171023933Y-104955707D01*
X171023935Y-104955706D01*
X171029243Y-104954284D01*
X171034225Y-104951961D01*
X171231762Y-104859849D01*
X171231767Y-104859846D01*
X171236749Y-104857523D01*
X171359558Y-104771531D01*
X171419789Y-104729357D01*
X171419792Y-104729355D01*
X171424300Y-104726198D01*
X171485093Y-104665405D01*
X171547405Y-104631379D01*
X171574188Y-104628500D01*
X172071497Y-104628500D01*
X172139618Y-104648502D01*
X172160592Y-104665405D01*
X172554595Y-105059408D01*
X172588621Y-105121720D01*
X172591500Y-105148503D01*
X172591500Y-107291497D01*
X172571498Y-107359618D01*
X172554595Y-107380592D01*
X172160592Y-107774595D01*
X172098280Y-107808621D01*
X172071497Y-107811500D01*
X171574188Y-107811500D01*
X171506067Y-107791498D01*
X171485093Y-107774595D01*
X171424300Y-107713802D01*
X171419792Y-107710645D01*
X171419789Y-107710643D01*
X171283952Y-107615529D01*
X171236749Y-107582477D01*
X171231767Y-107580154D01*
X171231762Y-107580151D01*
X171034225Y-107488039D01*
X171034224Y-107488039D01*
X171029243Y-107485716D01*
X171023935Y-107484294D01*
X171023933Y-107484293D01*
X170813402Y-107427881D01*
X170813400Y-107427881D01*
X170808087Y-107426457D01*
X170802611Y-107425978D01*
X170802606Y-107425977D01*
X170672904Y-107414630D01*
X170594249Y-107407749D01*
X170528131Y-107381886D01*
X170516136Y-107371323D01*
X169019981Y-105875168D01*
X169007140Y-105860135D01*
X169002746Y-105854087D01*
X169002745Y-105854086D01*
X168998866Y-105848747D01*
X168948041Y-105802984D01*
X168943256Y-105798443D01*
X168928741Y-105783928D01*
X168921282Y-105777888D01*
X168912784Y-105771006D01*
X168907769Y-105766722D01*
X168861855Y-105725381D01*
X168861850Y-105725377D01*
X168856944Y-105720960D01*
X168851228Y-105717660D01*
X168851224Y-105717657D01*
X168844763Y-105713927D01*
X168828466Y-105702727D01*
X168822660Y-105698025D01*
X168822658Y-105698024D01*
X168817530Y-105693871D01*
X168756577Y-105662814D01*
X168750782Y-105659667D01*
X168697279Y-105628777D01*
X168697278Y-105628776D01*
X168691556Y-105625473D01*
X168685274Y-105623432D01*
X168685272Y-105623431D01*
X168678174Y-105621125D01*
X168659907Y-105613559D01*
X168647370Y-105607171D01*
X168630304Y-105602598D01*
X168616767Y-105598971D01*
X168581299Y-105589467D01*
X168574997Y-105587600D01*
X168509928Y-105566458D01*
X168503363Y-105565768D01*
X168503354Y-105565766D01*
X168495925Y-105564985D01*
X168476491Y-105561383D01*
X168469286Y-105559453D01*
X168469284Y-105559453D01*
X168462903Y-105557743D01*
X168456312Y-105557398D01*
X168456308Y-105557397D01*
X168394616Y-105554164D01*
X168388042Y-105553647D01*
X168370884Y-105551844D01*
X168370882Y-105551844D01*
X168367610Y-105551500D01*
X168347074Y-105551500D01*
X168340480Y-105551327D01*
X168278782Y-105548093D01*
X168278777Y-105548093D01*
X168272190Y-105547748D01*
X168258292Y-105549949D01*
X168238583Y-105551500D01*
X157314188Y-105551500D01*
X157246067Y-105531498D01*
X157225093Y-105514595D01*
X157164300Y-105453802D01*
X157159792Y-105450645D01*
X157159789Y-105450643D01*
X157058262Y-105379553D01*
X156976749Y-105322477D01*
X156971767Y-105320154D01*
X156971762Y-105320151D01*
X156937543Y-105304195D01*
X156884258Y-105257278D01*
X156864797Y-105189001D01*
X156885339Y-105121041D01*
X156937543Y-105075805D01*
X156971762Y-105059849D01*
X156971767Y-105059846D01*
X156976749Y-105057523D01*
X157127507Y-104951961D01*
X157159789Y-104929357D01*
X157159792Y-104929355D01*
X157164300Y-104926198D01*
X157225093Y-104865405D01*
X157287405Y-104831379D01*
X157314188Y-104828500D01*
X159682074Y-104828500D01*
X159754344Y-104851287D01*
X159758737Y-104854363D01*
X159758742Y-104854366D01*
X159763251Y-104857523D01*
X159768233Y-104859846D01*
X159768238Y-104859849D01*
X159965775Y-104951961D01*
X159970757Y-104954284D01*
X159976065Y-104955706D01*
X159976067Y-104955707D01*
X160186598Y-105012119D01*
X160186600Y-105012119D01*
X160191913Y-105013543D01*
X160420000Y-105033498D01*
X160648087Y-105013543D01*
X160653400Y-105012119D01*
X160653402Y-105012119D01*
X160863933Y-104955707D01*
X160863935Y-104955706D01*
X160869243Y-104954284D01*
X160874225Y-104951961D01*
X161071762Y-104859849D01*
X161071767Y-104859846D01*
X161076749Y-104857523D01*
X161199558Y-104771531D01*
X161259789Y-104729357D01*
X161259792Y-104729355D01*
X161264300Y-104726198D01*
X161426198Y-104564300D01*
X161429998Y-104558874D01*
X161531945Y-104413278D01*
X161557523Y-104376749D01*
X161559846Y-104371767D01*
X161559849Y-104371762D01*
X161651961Y-104174225D01*
X161651961Y-104174224D01*
X161654284Y-104169243D01*
X161664202Y-104132231D01*
X161712119Y-103953402D01*
X161712119Y-103953400D01*
X161713543Y-103948087D01*
X161733498Y-103720000D01*
X161713543Y-103491913D01*
X161706539Y-103465775D01*
X161655707Y-103276067D01*
X161655706Y-103276065D01*
X161654284Y-103270757D01*
X161633727Y-103226672D01*
X161559849Y-103068238D01*
X161559846Y-103068233D01*
X161557523Y-103063251D01*
X161464030Y-102929730D01*
X161429357Y-102880211D01*
X161429355Y-102880208D01*
X161426198Y-102875700D01*
X161264300Y-102713802D01*
X161259792Y-102710645D01*
X161259789Y-102710643D01*
X161141592Y-102627881D01*
X161076749Y-102582477D01*
X161071767Y-102580154D01*
X161071762Y-102580151D01*
X160874225Y-102488039D01*
X160874224Y-102488039D01*
X160869243Y-102485716D01*
X160863935Y-102484294D01*
X160863933Y-102484293D01*
X160653402Y-102427881D01*
X160653400Y-102427881D01*
X160648087Y-102426457D01*
X160420000Y-102406502D01*
X160191913Y-102426457D01*
X160186600Y-102427881D01*
X160186598Y-102427881D01*
X159976067Y-102484293D01*
X159976065Y-102484294D01*
X159970757Y-102485716D01*
X159965776Y-102488039D01*
X159965775Y-102488039D01*
X159768238Y-102580151D01*
X159768233Y-102580154D01*
X159763251Y-102582477D01*
X159698408Y-102627881D01*
X159580211Y-102710643D01*
X159580208Y-102710645D01*
X159575700Y-102713802D01*
X159413802Y-102875700D01*
X159410645Y-102880208D01*
X159410643Y-102880211D01*
X159356335Y-102957771D01*
X159300878Y-103002099D01*
X159253122Y-103011500D01*
X157314188Y-103011500D01*
X157246067Y-102991498D01*
X157225093Y-102974595D01*
X157164300Y-102913802D01*
X157159792Y-102910645D01*
X157159789Y-102910643D01*
X157069747Y-102847595D01*
X156976749Y-102782477D01*
X156971767Y-102780154D01*
X156971762Y-102780151D01*
X156774225Y-102688039D01*
X156774224Y-102688039D01*
X156769243Y-102685716D01*
X156763935Y-102684294D01*
X156763933Y-102684293D01*
X156553402Y-102627881D01*
X156553400Y-102627881D01*
X156548087Y-102626457D01*
X156320000Y-102606502D01*
X156091913Y-102626457D01*
X156086600Y-102627881D01*
X156086598Y-102627881D01*
X155876067Y-102684293D01*
X155876065Y-102684294D01*
X155870757Y-102685716D01*
X155865776Y-102688039D01*
X155865775Y-102688039D01*
X155668238Y-102780151D01*
X155668233Y-102780154D01*
X155663251Y-102782477D01*
X155570253Y-102847595D01*
X155480211Y-102910643D01*
X155480208Y-102910645D01*
X155475700Y-102913802D01*
X155313802Y-103075700D01*
X155310645Y-103080208D01*
X155310643Y-103080211D01*
X155255902Y-103158389D01*
X155182477Y-103263251D01*
X155180154Y-103268233D01*
X155180151Y-103268238D01*
X155142588Y-103348794D01*
X155085716Y-103470757D01*
X155026457Y-103691913D01*
X155006502Y-103920000D01*
X155026457Y-104148087D01*
X155027881Y-104153400D01*
X155027881Y-104153402D01*
X155075537Y-104331253D01*
X155085716Y-104369243D01*
X155088039Y-104374224D01*
X155088039Y-104374225D01*
X155180151Y-104571762D01*
X155180154Y-104571767D01*
X155182477Y-104576749D01*
X155221099Y-104631907D01*
X155308389Y-104756569D01*
X155313802Y-104764300D01*
X155475700Y-104926198D01*
X155480208Y-104929355D01*
X155480211Y-104929357D01*
X155512493Y-104951961D01*
X155663251Y-105057523D01*
X155668233Y-105059846D01*
X155668238Y-105059849D01*
X155702457Y-105075805D01*
X155755742Y-105122722D01*
X155775203Y-105190999D01*
X155754661Y-105258959D01*
X155702457Y-105304195D01*
X155668238Y-105320151D01*
X155668233Y-105320154D01*
X155663251Y-105322477D01*
X155581738Y-105379553D01*
X155480211Y-105450643D01*
X155480208Y-105450645D01*
X155475700Y-105453802D01*
X155313802Y-105615700D01*
X155310645Y-105620208D01*
X155310643Y-105620211D01*
X155261164Y-105690875D01*
X155182477Y-105803251D01*
X155180154Y-105808233D01*
X155180151Y-105808238D01*
X155088039Y-106005775D01*
X155085716Y-106010757D01*
X155084294Y-106016065D01*
X155084293Y-106016067D01*
X155042636Y-106171531D01*
X155026457Y-106231913D01*
X155006502Y-106460000D01*
X155026457Y-106688087D01*
X155085716Y-106909243D01*
X155088039Y-106914224D01*
X155088039Y-106914225D01*
X155180151Y-107111762D01*
X155180154Y-107111767D01*
X155182477Y-107116749D01*
X155313802Y-107304300D01*
X155475700Y-107466198D01*
X155480208Y-107469355D01*
X155480211Y-107469357D01*
X155506892Y-107488039D01*
X155663251Y-107597523D01*
X155668233Y-107599846D01*
X155668238Y-107599849D01*
X155702457Y-107615805D01*
X155755742Y-107662722D01*
X155775203Y-107730999D01*
X155754661Y-107798959D01*
X155702457Y-107844195D01*
X155668238Y-107860151D01*
X155668233Y-107860154D01*
X155663251Y-107862477D01*
X155579213Y-107921321D01*
X155480211Y-107990643D01*
X155480208Y-107990645D01*
X155475700Y-107993802D01*
X155313802Y-108155700D01*
X155182477Y-108343251D01*
X155180154Y-108348233D01*
X155180151Y-108348238D01*
X155146697Y-108419981D01*
X155085716Y-108550757D01*
X155084294Y-108556065D01*
X155084293Y-108556067D01*
X155047435Y-108693623D01*
X155026457Y-108771913D01*
X155006502Y-109000000D01*
X155026457Y-109228087D01*
X155027881Y-109233400D01*
X155027881Y-109233402D01*
X155052670Y-109325913D01*
X155085716Y-109449243D01*
X155088039Y-109454224D01*
X155088039Y-109454225D01*
X155180151Y-109651762D01*
X155180154Y-109651767D01*
X155182477Y-109656749D01*
X155313802Y-109844300D01*
X155475700Y-110006198D01*
X155480208Y-110009355D01*
X155480211Y-110009357D01*
X155514004Y-110033019D01*
X155663251Y-110137523D01*
X155668233Y-110139846D01*
X155668238Y-110139849D01*
X155702457Y-110155805D01*
X155755742Y-110202722D01*
X155775203Y-110270999D01*
X155754661Y-110338959D01*
X155702457Y-110384195D01*
X155668238Y-110400151D01*
X155668233Y-110400154D01*
X155663251Y-110402477D01*
X155572375Y-110466109D01*
X155480211Y-110530643D01*
X155480208Y-110530645D01*
X155475700Y-110533802D01*
X155313802Y-110695700D01*
X155182477Y-110883251D01*
X155180154Y-110888233D01*
X155180151Y-110888238D01*
X155114494Y-111029042D01*
X155085716Y-111090757D01*
X155026457Y-111311913D01*
X155006502Y-111540000D01*
X155026457Y-111768087D01*
X155027881Y-111773400D01*
X155027881Y-111773402D01*
X155037031Y-111807548D01*
X155085716Y-111989243D01*
X155088039Y-111994224D01*
X155088039Y-111994225D01*
X155180151Y-112191762D01*
X155180154Y-112191767D01*
X155182477Y-112196749D01*
X155185634Y-112201257D01*
X155308702Y-112377016D01*
X155313802Y-112384300D01*
X155475700Y-112546198D01*
X155480208Y-112549355D01*
X155480211Y-112549357D01*
X155540236Y-112591387D01*
X155663251Y-112677523D01*
X155668233Y-112679846D01*
X155668238Y-112679849D01*
X155864765Y-112771490D01*
X155870757Y-112774284D01*
X155876065Y-112775706D01*
X155876067Y-112775707D01*
X156086598Y-112832119D01*
X156086600Y-112832119D01*
X156091913Y-112833543D01*
X156320000Y-112853498D01*
X156548087Y-112833543D01*
X156553400Y-112832119D01*
X156553402Y-112832119D01*
X156763933Y-112775707D01*
X156763935Y-112775706D01*
X156769243Y-112774284D01*
X156775235Y-112771490D01*
X156971762Y-112679849D01*
X156971767Y-112679846D01*
X156976749Y-112677523D01*
X157099764Y-112591387D01*
X157159789Y-112549357D01*
X157159792Y-112549355D01*
X157164300Y-112546198D01*
X157326198Y-112384300D01*
X157348655Y-112352229D01*
X157404110Y-112307901D01*
X157451867Y-112298500D01*
X159805075Y-112298500D01*
X159873196Y-112318502D01*
X159919689Y-112372158D01*
X159929793Y-112442432D01*
X159900299Y-112507012D01*
X159858325Y-112538695D01*
X159768489Y-112580586D01*
X159758994Y-112586069D01*
X159706952Y-112622509D01*
X159698576Y-112632988D01*
X159705644Y-112646434D01*
X160407188Y-113347978D01*
X160421132Y-113355592D01*
X160422965Y-113355461D01*
X160429580Y-113351210D01*
X161135077Y-112645713D01*
X161141507Y-112633938D01*
X161132211Y-112621923D01*
X161081006Y-112586069D01*
X161071511Y-112580586D01*
X160981675Y-112538695D01*
X160928390Y-112491777D01*
X160908929Y-112423500D01*
X160929471Y-112355540D01*
X160983494Y-112309475D01*
X161034925Y-112298500D01*
X162953629Y-112298500D01*
X163021750Y-112318502D01*
X163042724Y-112335405D01*
X164916230Y-114208911D01*
X164928616Y-114223323D01*
X164937149Y-114234918D01*
X164937154Y-114234923D01*
X164941492Y-114240818D01*
X164947070Y-114245557D01*
X164947073Y-114245560D01*
X164981768Y-114275035D01*
X164989284Y-114281965D01*
X164994980Y-114287661D01*
X164997841Y-114289924D01*
X164997846Y-114289929D01*
X165017266Y-114305293D01*
X165020667Y-114308082D01*
X165076285Y-114355333D01*
X165082805Y-114358662D01*
X165087852Y-114362028D01*
X165092976Y-114365193D01*
X165098717Y-114369735D01*
X165105348Y-114372834D01*
X165105351Y-114372836D01*
X165164830Y-114400634D01*
X165168776Y-114402562D01*
X165233808Y-114435769D01*
X165240914Y-114437508D01*
X165246564Y-114439609D01*
X165252321Y-114441524D01*
X165258950Y-114444622D01*
X165330435Y-114459491D01*
X165334701Y-114460457D01*
X165405610Y-114477808D01*
X165411212Y-114478156D01*
X165411215Y-114478156D01*
X165416764Y-114478500D01*
X165416762Y-114478535D01*
X165420734Y-114478775D01*
X165424955Y-114479152D01*
X165432115Y-114480641D01*
X165509542Y-114478546D01*
X165512950Y-114478500D01*
X169448133Y-114478500D01*
X169516254Y-114498502D01*
X169551345Y-114532228D01*
X169573802Y-114564300D01*
X169735700Y-114726198D01*
X169767771Y-114748655D01*
X169812099Y-114804110D01*
X169821500Y-114851867D01*
X169821500Y-117553629D01*
X169801498Y-117621750D01*
X169784595Y-117642724D01*
X168091089Y-119336230D01*
X168076677Y-119348616D01*
X168065082Y-119357149D01*
X168065077Y-119357154D01*
X168059182Y-119361492D01*
X168054443Y-119367070D01*
X168054440Y-119367073D01*
X168024965Y-119401768D01*
X168018035Y-119409284D01*
X168012340Y-119414979D01*
X168010060Y-119417861D01*
X167994719Y-119437251D01*
X167991928Y-119440655D01*
X167949552Y-119490535D01*
X167944667Y-119496285D01*
X167941339Y-119502801D01*
X167937972Y-119507850D01*
X167934805Y-119512979D01*
X167930266Y-119518716D01*
X167899345Y-119584875D01*
X167897442Y-119588769D01*
X167864231Y-119653808D01*
X167862492Y-119660916D01*
X167860393Y-119666559D01*
X167858476Y-119672322D01*
X167855378Y-119678950D01*
X167853888Y-119686112D01*
X167853888Y-119686113D01*
X167840514Y-119750412D01*
X167839544Y-119754696D01*
X167822192Y-119825610D01*
X167821500Y-119836764D01*
X167821464Y-119836762D01*
X167821225Y-119840755D01*
X167820851Y-119844947D01*
X167819360Y-119852115D01*
X167819558Y-119859432D01*
X167821454Y-119929521D01*
X167821500Y-119932928D01*
X167821500Y-121776390D01*
X167801498Y-121844511D01*
X167771153Y-121877150D01*
X167662445Y-121958770D01*
X167658310Y-121961875D01*
X167501133Y-122126351D01*
X167372931Y-122314289D01*
X167370758Y-122318971D01*
X167370756Y-122318974D01*
X167356948Y-122348722D01*
X167277145Y-122520643D01*
X167216348Y-122739869D01*
X167192172Y-122966082D01*
X167192469Y-122971234D01*
X167192469Y-122971238D01*
X167197845Y-123064463D01*
X167205268Y-123193206D01*
X167206405Y-123198252D01*
X167206406Y-123198258D01*
X167226686Y-123288244D01*
X167255283Y-123415141D01*
X167340875Y-123625927D01*
X167459744Y-123819904D01*
X167608698Y-123991861D01*
X167783737Y-124137181D01*
X167788189Y-124139783D01*
X167788194Y-124139786D01*
X167882199Y-124194718D01*
X167980160Y-124251962D01*
X168192693Y-124333120D01*
X168197759Y-124334151D01*
X168197760Y-124334151D01*
X168296861Y-124354313D01*
X168415627Y-124378476D01*
X168543437Y-124383163D01*
X168637811Y-124386624D01*
X168637815Y-124386624D01*
X168642975Y-124386813D01*
X168648095Y-124386157D01*
X168648097Y-124386157D01*
X168863504Y-124358563D01*
X168863505Y-124358563D01*
X168868632Y-124357906D01*
X168951248Y-124333120D01*
X169081591Y-124294015D01*
X169081592Y-124294014D01*
X169086537Y-124292531D01*
X169290839Y-124192444D01*
X169295043Y-124189446D01*
X169295047Y-124189443D01*
X169471847Y-124063333D01*
X169471849Y-124063331D01*
X169476051Y-124060334D01*
X169637199Y-123899747D01*
X169691764Y-123823812D01*
X169766938Y-123719198D01*
X169766942Y-123719192D01*
X169769956Y-123714997D01*
X169870755Y-123511046D01*
X169936890Y-123293370D01*
X169950077Y-123193206D01*
X169966148Y-123071136D01*
X169966148Y-123071132D01*
X169966585Y-123067815D01*
X169968242Y-123000000D01*
X169949601Y-122773264D01*
X169894178Y-122552617D01*
X169803462Y-122343985D01*
X169679890Y-122152971D01*
X169526779Y-121984704D01*
X169443259Y-121918744D01*
X169386408Y-121873846D01*
X169345345Y-121815929D01*
X169338500Y-121774964D01*
X169338500Y-120286371D01*
X169358502Y-120218250D01*
X169375405Y-120197276D01*
X171068911Y-118503770D01*
X171083323Y-118491384D01*
X171094918Y-118482851D01*
X171094923Y-118482846D01*
X171100818Y-118478508D01*
X171105557Y-118472930D01*
X171105560Y-118472927D01*
X171135035Y-118438232D01*
X171141965Y-118430716D01*
X171147660Y-118425021D01*
X171165281Y-118402749D01*
X171168072Y-118399345D01*
X171210591Y-118349297D01*
X171210592Y-118349295D01*
X171215333Y-118343715D01*
X171218661Y-118337199D01*
X171222028Y-118332150D01*
X171225195Y-118327021D01*
X171229734Y-118321284D01*
X171260655Y-118255125D01*
X171262561Y-118251225D01*
X171295769Y-118186192D01*
X171297508Y-118179084D01*
X171299607Y-118173441D01*
X171301524Y-118167678D01*
X171304622Y-118161050D01*
X171319487Y-118089583D01*
X171320457Y-118085299D01*
X171329080Y-118050060D01*
X171337808Y-118014390D01*
X171338500Y-118003236D01*
X171338536Y-118003238D01*
X171338775Y-117999245D01*
X171339149Y-117995053D01*
X171340640Y-117987885D01*
X171338546Y-117910479D01*
X171338500Y-117907072D01*
X171338500Y-114851867D01*
X171358502Y-114783746D01*
X171392228Y-114748655D01*
X171424300Y-114726198D01*
X171586198Y-114564300D01*
X171717523Y-114376749D01*
X171719846Y-114371767D01*
X171719849Y-114371762D01*
X171811961Y-114174225D01*
X171811961Y-114174224D01*
X171814284Y-114169243D01*
X171824221Y-114132160D01*
X171872119Y-113953402D01*
X171872119Y-113953400D01*
X171873543Y-113948087D01*
X171893498Y-113720000D01*
X171873543Y-113491913D01*
X171836723Y-113354500D01*
X171815707Y-113276067D01*
X171815706Y-113276065D01*
X171814284Y-113270757D01*
X171811961Y-113265775D01*
X171719849Y-113068238D01*
X171719846Y-113068233D01*
X171717523Y-113063251D01*
X171631425Y-112940290D01*
X171589357Y-112880211D01*
X171589355Y-112880208D01*
X171586198Y-112875700D01*
X171554093Y-112843595D01*
X171520067Y-112781283D01*
X171525132Y-112710468D01*
X171567679Y-112653632D01*
X171634199Y-112628821D01*
X171643188Y-112628500D01*
X173556407Y-112628500D01*
X173624528Y-112648502D01*
X173671021Y-112702158D01*
X173682407Y-112754500D01*
X173682407Y-112768134D01*
X173689162Y-112830316D01*
X173740292Y-112966705D01*
X173827646Y-113083261D01*
X173944202Y-113170615D01*
X174080591Y-113221745D01*
X174142773Y-113228500D01*
X174156407Y-113228500D01*
X174224528Y-113248502D01*
X174271021Y-113302158D01*
X174282407Y-113354500D01*
X174282407Y-125880590D01*
X174262405Y-125948711D01*
X174245502Y-125969685D01*
X168835168Y-131380019D01*
X168820135Y-131392860D01*
X168808747Y-131401134D01*
X168804327Y-131406043D01*
X168762984Y-131451959D01*
X168758443Y-131456744D01*
X168743928Y-131471259D01*
X168741852Y-131473823D01*
X168731006Y-131487216D01*
X168726722Y-131492231D01*
X168685381Y-131538145D01*
X168685377Y-131538150D01*
X168680960Y-131543056D01*
X168677660Y-131548772D01*
X168677657Y-131548776D01*
X168673927Y-131555237D01*
X168662727Y-131571533D01*
X168653871Y-131582470D01*
X168632870Y-131623687D01*
X168622815Y-131643421D01*
X168619669Y-131649215D01*
X168585473Y-131708444D01*
X168583432Y-131714726D01*
X168583431Y-131714728D01*
X168581125Y-131721826D01*
X168573560Y-131740092D01*
X168567171Y-131752630D01*
X168549852Y-131817267D01*
X168549469Y-131818695D01*
X168547600Y-131825003D01*
X168526458Y-131890072D01*
X168525768Y-131896637D01*
X168525766Y-131896646D01*
X168524985Y-131904075D01*
X168521383Y-131923509D01*
X168520046Y-131928501D01*
X168517743Y-131937097D01*
X168517398Y-131943688D01*
X168517397Y-131943692D01*
X168514164Y-132005384D01*
X168513647Y-132011958D01*
X168512405Y-132023781D01*
X168511500Y-132032390D01*
X168511500Y-132052926D01*
X168511327Y-132059520D01*
X168507748Y-132127810D01*
X168508780Y-132134325D01*
X168509949Y-132141705D01*
X168511500Y-132161417D01*
X168511500Y-135933737D01*
X168491498Y-136001858D01*
X168476594Y-136020788D01*
X168395806Y-136105328D01*
X168360629Y-136142138D01*
X168357720Y-136146403D01*
X168357714Y-136146411D01*
X168332974Y-136182678D01*
X168234743Y-136326680D01*
X168140688Y-136529305D01*
X168080989Y-136744570D01*
X168057251Y-136966695D01*
X168057548Y-136971848D01*
X168057548Y-136971851D01*
X168063011Y-137066590D01*
X168070110Y-137189715D01*
X168071247Y-137194761D01*
X168071248Y-137194767D01*
X168085606Y-137258475D01*
X168119222Y-137407639D01*
X168203266Y-137614616D01*
X168240685Y-137675678D01*
X168317291Y-137800688D01*
X168319987Y-137805088D01*
X168466250Y-137973938D01*
X168638126Y-138116632D01*
X168831000Y-138229338D01*
X169039692Y-138309030D01*
X169044760Y-138310061D01*
X169044763Y-138310062D01*
X169143740Y-138330199D01*
X169258597Y-138353567D01*
X169263772Y-138353757D01*
X169263774Y-138353757D01*
X169476673Y-138361564D01*
X169476677Y-138361564D01*
X169481837Y-138361753D01*
X169486957Y-138361097D01*
X169486959Y-138361097D01*
X169698288Y-138334025D01*
X169698289Y-138334025D01*
X169703416Y-138333368D01*
X169713979Y-138330199D01*
X169912429Y-138270661D01*
X169912434Y-138270659D01*
X169917384Y-138269174D01*
X170117994Y-138170896D01*
X170299860Y-138041173D01*
X170458096Y-137883489D01*
X170517594Y-137800689D01*
X170588453Y-137702077D01*
X170589776Y-137703028D01*
X170636645Y-137659857D01*
X170706580Y-137647625D01*
X170772026Y-137675144D01*
X170799875Y-137706994D01*
X170859987Y-137805088D01*
X171006250Y-137973938D01*
X171178126Y-138116632D01*
X171371000Y-138229338D01*
X171579692Y-138309030D01*
X171584760Y-138310061D01*
X171584763Y-138310062D01*
X171683740Y-138330199D01*
X171798597Y-138353567D01*
X171803772Y-138353757D01*
X171803774Y-138353757D01*
X172016673Y-138361564D01*
X172016677Y-138361564D01*
X172021837Y-138361753D01*
X172026957Y-138361097D01*
X172026959Y-138361097D01*
X172238288Y-138334025D01*
X172238289Y-138334025D01*
X172243416Y-138333368D01*
X172253979Y-138330199D01*
X172452429Y-138270661D01*
X172452434Y-138270659D01*
X172457384Y-138269174D01*
X172657994Y-138170896D01*
X172839860Y-138041173D01*
X172948091Y-137933319D01*
X173010462Y-137899404D01*
X173081268Y-137904592D01*
X173138030Y-137947238D01*
X173155012Y-137978341D01*
X173177201Y-138037529D01*
X173199385Y-138096705D01*
X173286739Y-138213261D01*
X173403295Y-138300615D01*
X173539684Y-138351745D01*
X173601866Y-138358500D01*
X175398134Y-138358500D01*
X175460316Y-138351745D01*
X175596705Y-138300615D01*
X175713261Y-138213261D01*
X175800615Y-138096705D01*
X175851745Y-137960316D01*
X175858500Y-137898134D01*
X175858500Y-136551745D01*
X184313795Y-136551745D01*
X184313871Y-136552815D01*
X184317055Y-136557648D01*
X184597342Y-136772720D01*
X184602972Y-136776575D01*
X184907929Y-136961992D01*
X184913931Y-136965210D01*
X185237139Y-137116611D01*
X185243444Y-137119159D01*
X185581117Y-137234771D01*
X185587668Y-137236624D01*
X185935838Y-137315087D01*
X185942557Y-137316224D01*
X186297174Y-137356628D01*
X186303964Y-137357031D01*
X186660865Y-137358899D01*
X186667666Y-137358567D01*
X187022686Y-137321880D01*
X187029414Y-137320814D01*
X187378402Y-137245997D01*
X187384950Y-137244218D01*
X187723820Y-137132147D01*
X187730162Y-137129661D01*
X188054921Y-136981660D01*
X188060975Y-136978495D01*
X188367839Y-136796293D01*
X188373520Y-136792490D01*
X188658918Y-136578207D01*
X188664145Y-136573821D01*
X188676988Y-136561803D01*
X188685057Y-136548123D01*
X188685029Y-136547398D01*
X188679887Y-136539097D01*
X186512812Y-134372022D01*
X186498868Y-134364408D01*
X186497035Y-134364539D01*
X186490420Y-134368790D01*
X184321409Y-136537801D01*
X184313795Y-136551745D01*
X175858500Y-136551745D01*
X175858500Y-136101866D01*
X175851745Y-136039684D01*
X175800615Y-135903295D01*
X175713261Y-135786739D01*
X175596705Y-135699385D01*
X175460316Y-135648255D01*
X175398134Y-135641500D01*
X173601866Y-135641500D01*
X173539684Y-135648255D01*
X173403295Y-135699385D01*
X173286739Y-135786739D01*
X173199385Y-135903295D01*
X173196233Y-135911703D01*
X173154919Y-136021907D01*
X173112277Y-136078671D01*
X173045716Y-136103371D01*
X172976367Y-136088163D01*
X172943743Y-136062476D01*
X172901306Y-136015838D01*
X172870254Y-135951992D01*
X172868500Y-135931039D01*
X172868500Y-133991657D01*
X183137260Y-133991657D01*
X183155318Y-134348127D01*
X183156028Y-134354883D01*
X183212478Y-134707305D01*
X183213917Y-134713960D01*
X183308094Y-135058215D01*
X183310243Y-135064676D01*
X183441053Y-135396756D01*
X183443884Y-135402939D01*
X183609792Y-135718949D01*
X183613275Y-135724791D01*
X183812340Y-136021031D01*
X183816442Y-136026475D01*
X183940942Y-136174322D01*
X183953680Y-136182764D01*
X183964124Y-136176666D01*
X186127978Y-134012812D01*
X186134356Y-134001132D01*
X186864408Y-134001132D01*
X186864539Y-134002965D01*
X186868790Y-134009580D01*
X189034463Y-136175253D01*
X189048060Y-136182678D01*
X189057669Y-136175981D01*
X189162197Y-136054457D01*
X189166346Y-136049069D01*
X189368503Y-135754929D01*
X189372050Y-135749118D01*
X189541250Y-135434879D01*
X189544157Y-135428701D01*
X189678435Y-135098016D01*
X189680649Y-135091586D01*
X189778427Y-134748331D01*
X189779934Y-134741701D01*
X189840073Y-134389873D01*
X189840853Y-134383133D01*
X189862740Y-134025275D01*
X189862856Y-134021673D01*
X189862926Y-134001820D01*
X189862834Y-133998193D01*
X189843446Y-133640208D01*
X189842711Y-133633442D01*
X189785034Y-133281233D01*
X189783567Y-133274561D01*
X189688194Y-132930655D01*
X189686020Y-132924192D01*
X189554053Y-132592575D01*
X189551197Y-132586395D01*
X189384194Y-132270981D01*
X189380682Y-132265137D01*
X189180588Y-131969598D01*
X189176467Y-131964170D01*
X189059041Y-131825704D01*
X189046215Y-131817267D01*
X189035890Y-131823320D01*
X186872022Y-133987188D01*
X186864408Y-134001132D01*
X186134356Y-134001132D01*
X186135592Y-133998868D01*
X186135461Y-133997035D01*
X186131210Y-133990420D01*
X183965527Y-131824737D01*
X183951990Y-131817345D01*
X183942289Y-131824132D01*
X183830649Y-131954847D01*
X183826515Y-131960255D01*
X183625394Y-132255086D01*
X183621859Y-132260923D01*
X183453754Y-132575757D01*
X183450878Y-132581926D01*
X183317754Y-132913081D01*
X183315561Y-132919521D01*
X183218979Y-133263121D01*
X183217496Y-133269756D01*
X183158589Y-133621773D01*
X183157830Y-133628545D01*
X183137284Y-133984862D01*
X183137260Y-133991657D01*
X172868500Y-133991657D01*
X172868500Y-133968503D01*
X172888502Y-133900382D01*
X172905405Y-133879408D01*
X175333321Y-131451492D01*
X184314580Y-131451492D01*
X184314615Y-131452333D01*
X184319667Y-131460457D01*
X186487188Y-133627978D01*
X186501132Y-133635592D01*
X186502965Y-133635461D01*
X186509580Y-133631210D01*
X188678166Y-131462624D01*
X188685780Y-131448680D01*
X188685712Y-131447723D01*
X188680771Y-131440251D01*
X188676870Y-131436931D01*
X188392958Y-131220649D01*
X188387332Y-131216825D01*
X188081722Y-131032469D01*
X188075710Y-131029272D01*
X187751966Y-130878995D01*
X187745666Y-130876475D01*
X187407595Y-130762045D01*
X187401017Y-130760209D01*
X187052592Y-130682965D01*
X187045857Y-130681850D01*
X186691106Y-130642685D01*
X186684324Y-130642306D01*
X186327395Y-130641683D01*
X186320622Y-130642038D01*
X185965714Y-130679966D01*
X185959005Y-130681053D01*
X185610289Y-130757086D01*
X185603714Y-130758897D01*
X185265250Y-130872145D01*
X185258928Y-130874648D01*
X184934680Y-131023785D01*
X184928637Y-131026971D01*
X184622404Y-131210248D01*
X184616744Y-131214066D01*
X184332094Y-131429346D01*
X184326891Y-131433742D01*
X184322601Y-131437785D01*
X184314580Y-131451492D01*
X175333321Y-131451492D01*
X188767332Y-118017481D01*
X188782365Y-118004640D01*
X188788413Y-118000246D01*
X188788414Y-118000245D01*
X188793753Y-117996366D01*
X188839516Y-117945541D01*
X188844057Y-117940756D01*
X188858572Y-117926241D01*
X188871494Y-117910284D01*
X188875778Y-117905269D01*
X188917119Y-117859355D01*
X188917123Y-117859350D01*
X188921540Y-117854444D01*
X188924840Y-117848728D01*
X188924843Y-117848724D01*
X188928573Y-117842263D01*
X188939773Y-117825966D01*
X188944475Y-117820160D01*
X188944476Y-117820158D01*
X188948629Y-117815030D01*
X188979688Y-117754074D01*
X188982836Y-117748277D01*
X189013724Y-117694777D01*
X189017027Y-117689056D01*
X189021375Y-117675674D01*
X189028938Y-117657415D01*
X189035330Y-117644870D01*
X189053037Y-117578788D01*
X189054909Y-117572469D01*
X189074001Y-117513710D01*
X189074001Y-117513709D01*
X189076042Y-117507428D01*
X189077514Y-117493425D01*
X189081115Y-117473996D01*
X189084757Y-117460403D01*
X189088336Y-117392116D01*
X189088853Y-117385542D01*
X189090656Y-117368384D01*
X189090656Y-117368382D01*
X189091000Y-117365110D01*
X189091000Y-117344574D01*
X189091173Y-117337980D01*
X189094407Y-117276282D01*
X189094407Y-117276277D01*
X189094752Y-117269690D01*
X189092551Y-117255793D01*
X189091000Y-117236083D01*
X189091000Y-106728498D01*
X189111002Y-106660377D01*
X189164658Y-106613884D01*
X189172770Y-106610516D01*
X189270797Y-106573767D01*
X189279205Y-106570615D01*
X189395761Y-106483261D01*
X189483115Y-106366705D01*
X189534245Y-106230316D01*
X189541000Y-106168134D01*
X189541000Y-104371866D01*
X189534245Y-104309684D01*
X189483115Y-104173295D01*
X189395761Y-104056739D01*
X189279205Y-103969385D01*
X189163236Y-103925910D01*
X189160187Y-103924767D01*
X189103423Y-103882125D01*
X189078723Y-103815564D01*
X189093930Y-103746215D01*
X189115477Y-103717535D01*
X189216552Y-103616812D01*
X189223230Y-103608965D01*
X189347503Y-103436020D01*
X189352813Y-103427183D01*
X189447170Y-103236267D01*
X189450969Y-103226672D01*
X189512877Y-103022910D01*
X189515055Y-103012837D01*
X189516486Y-103001962D01*
X189514275Y-102987778D01*
X189501117Y-102984000D01*
X186865725Y-102984000D01*
X186852194Y-102987973D01*
X186850757Y-102997966D01*
X186881065Y-103132446D01*
X186884145Y-103142275D01*
X186964270Y-103339603D01*
X186968913Y-103348794D01*
X187080194Y-103530388D01*
X187086277Y-103538699D01*
X187225713Y-103699667D01*
X187233077Y-103706879D01*
X187238022Y-103710985D01*
X187277656Y-103769889D01*
X187279153Y-103840870D01*
X187242037Y-103901392D01*
X187201764Y-103925910D01*
X187094205Y-103966232D01*
X187094204Y-103966233D01*
X187085795Y-103969385D01*
X186969239Y-104056739D01*
X186881885Y-104173295D01*
X186830755Y-104309684D01*
X186824000Y-104371866D01*
X186824000Y-106168134D01*
X186830755Y-106230316D01*
X186881885Y-106366705D01*
X186969239Y-106483261D01*
X187085795Y-106570615D01*
X187094203Y-106573767D01*
X187192230Y-106610516D01*
X187248994Y-106653158D01*
X187273694Y-106719719D01*
X187274000Y-106728498D01*
X187274000Y-116888997D01*
X187253998Y-116957118D01*
X187237095Y-116978092D01*
X171375168Y-132840019D01*
X171360135Y-132852860D01*
X171348747Y-132861134D01*
X171344327Y-132866043D01*
X171302984Y-132911959D01*
X171298443Y-132916744D01*
X171283928Y-132931259D01*
X171281852Y-132933823D01*
X171271006Y-132947216D01*
X171266722Y-132952231D01*
X171225381Y-132998145D01*
X171225377Y-132998150D01*
X171220960Y-133003056D01*
X171217660Y-133008772D01*
X171217657Y-133008776D01*
X171213927Y-133015237D01*
X171202727Y-133031533D01*
X171193871Y-133042470D01*
X171162815Y-133103421D01*
X171159669Y-133109215D01*
X171125473Y-133168444D01*
X171123432Y-133174726D01*
X171123431Y-133174728D01*
X171121125Y-133181826D01*
X171113560Y-133200092D01*
X171107171Y-133212630D01*
X171105463Y-133219003D01*
X171105463Y-133219004D01*
X171089469Y-133278695D01*
X171087600Y-133285003D01*
X171066458Y-133350072D01*
X171065768Y-133356637D01*
X171065766Y-133356646D01*
X171064985Y-133364075D01*
X171061383Y-133383509D01*
X171059453Y-133390714D01*
X171057743Y-133397097D01*
X171057398Y-133403688D01*
X171057397Y-133403692D01*
X171054164Y-133465384D01*
X171053647Y-133471958D01*
X171051844Y-133489116D01*
X171051500Y-133492390D01*
X171051500Y-133512926D01*
X171051327Y-133519520D01*
X171047748Y-133587810D01*
X171049121Y-133596475D01*
X171049949Y-133601705D01*
X171051500Y-133621417D01*
X171051500Y-135933737D01*
X171031498Y-136001858D01*
X171016594Y-136020788D01*
X170935806Y-136105328D01*
X170900629Y-136142138D01*
X170793201Y-136299621D01*
X170738293Y-136344621D01*
X170667768Y-136352792D01*
X170604021Y-136321538D01*
X170583324Y-136297054D01*
X170502822Y-136172617D01*
X170502820Y-136172614D01*
X170500014Y-136168277D01*
X170486704Y-136153649D01*
X170361307Y-136015839D01*
X170330255Y-135951993D01*
X170328500Y-135931039D01*
X170328500Y-132508503D01*
X170348502Y-132440382D01*
X170365405Y-132419408D01*
X175775739Y-127009074D01*
X175790772Y-126996233D01*
X175796820Y-126991839D01*
X175796821Y-126991838D01*
X175802160Y-126987959D01*
X175847923Y-126937134D01*
X175852464Y-126932349D01*
X175866979Y-126917834D01*
X175879901Y-126901877D01*
X175884185Y-126896862D01*
X175925526Y-126850948D01*
X175925530Y-126850943D01*
X175929947Y-126846037D01*
X175933247Y-126840321D01*
X175933250Y-126840317D01*
X175936980Y-126833856D01*
X175948180Y-126817559D01*
X175952882Y-126811753D01*
X175952883Y-126811751D01*
X175957036Y-126806623D01*
X175988095Y-126745667D01*
X175991243Y-126739870D01*
X176022131Y-126686370D01*
X176025434Y-126680649D01*
X176029782Y-126667267D01*
X176037345Y-126649008D01*
X176043737Y-126636463D01*
X176061444Y-126570381D01*
X176063316Y-126564062D01*
X176082408Y-126505303D01*
X176082408Y-126505302D01*
X176084449Y-126499021D01*
X176085921Y-126485018D01*
X176089522Y-126465589D01*
X176093164Y-126451996D01*
X176096743Y-126383709D01*
X176097260Y-126377135D01*
X176099063Y-126359977D01*
X176099063Y-126359975D01*
X176099407Y-126356703D01*
X176099407Y-126336167D01*
X176099580Y-126329573D01*
X176102814Y-126267875D01*
X176102814Y-126267870D01*
X176103159Y-126261283D01*
X176100958Y-126247385D01*
X176099407Y-126227676D01*
X176099407Y-113354500D01*
X176119409Y-113286379D01*
X176173065Y-113239886D01*
X176225407Y-113228500D01*
X176239041Y-113228500D01*
X176301223Y-113221745D01*
X176437612Y-113170615D01*
X176554168Y-113083261D01*
X176641522Y-112966705D01*
X176646783Y-112952670D01*
X179323067Y-112952670D01*
X179328794Y-112960320D01*
X179499949Y-113065205D01*
X179508744Y-113069687D01*
X179718895Y-113156734D01*
X179728280Y-113159783D01*
X179949461Y-113212885D01*
X179959208Y-113214428D01*
X180185977Y-113232275D01*
X180195837Y-113232275D01*
X180422606Y-113214428D01*
X180432353Y-113212885D01*
X180653534Y-113159783D01*
X180662919Y-113156734D01*
X180873070Y-113069687D01*
X180881865Y-113065205D01*
X181049352Y-112962568D01*
X181058814Y-112952110D01*
X181055031Y-112943334D01*
X180203719Y-112092022D01*
X180189775Y-112084408D01*
X180187942Y-112084539D01*
X180181327Y-112088790D01*
X179329827Y-112940290D01*
X179323067Y-112952670D01*
X176646783Y-112952670D01*
X176692652Y-112830316D01*
X176699407Y-112768134D01*
X176699407Y-111724930D01*
X178678632Y-111724930D01*
X178696479Y-111951699D01*
X178698022Y-111961446D01*
X178751124Y-112182627D01*
X178754173Y-112192012D01*
X178841220Y-112402163D01*
X178845702Y-112410958D01*
X178948339Y-112578445D01*
X178958797Y-112587907D01*
X178967573Y-112584124D01*
X179818885Y-111732812D01*
X179825263Y-111721132D01*
X180555315Y-111721132D01*
X180555446Y-111722965D01*
X180559697Y-111729580D01*
X181411197Y-112581080D01*
X181423577Y-112587840D01*
X181431227Y-112582113D01*
X181536112Y-112410958D01*
X181540594Y-112402163D01*
X181627641Y-112192012D01*
X181630690Y-112182627D01*
X181683792Y-111961446D01*
X181685335Y-111951699D01*
X181703182Y-111724930D01*
X181703182Y-111715070D01*
X181685335Y-111488301D01*
X181683792Y-111478554D01*
X181630690Y-111257373D01*
X181627641Y-111247988D01*
X181540594Y-111037837D01*
X181536112Y-111029042D01*
X181433475Y-110861555D01*
X181423017Y-110852093D01*
X181414241Y-110855876D01*
X180562929Y-111707188D01*
X180555315Y-111721132D01*
X179825263Y-111721132D01*
X179826499Y-111718868D01*
X179826368Y-111717035D01*
X179822117Y-111710420D01*
X178970617Y-110858920D01*
X178958237Y-110852160D01*
X178950587Y-110857887D01*
X178845702Y-111029042D01*
X178841220Y-111037837D01*
X178754173Y-111247988D01*
X178751124Y-111257373D01*
X178698022Y-111478554D01*
X178696479Y-111488301D01*
X178678632Y-111715070D01*
X178678632Y-111724930D01*
X176699407Y-111724930D01*
X176699407Y-110671866D01*
X176692652Y-110609684D01*
X176646993Y-110487890D01*
X179323000Y-110487890D01*
X179326783Y-110496666D01*
X180178095Y-111347978D01*
X180192039Y-111355592D01*
X180193872Y-111355461D01*
X180200487Y-111351210D01*
X181051987Y-110499710D01*
X181058747Y-110487330D01*
X181053020Y-110479680D01*
X180881865Y-110374795D01*
X180873070Y-110370313D01*
X180662919Y-110283266D01*
X180653534Y-110280217D01*
X180432353Y-110227115D01*
X180422606Y-110225572D01*
X180195837Y-110207725D01*
X180185977Y-110207725D01*
X179959208Y-110225572D01*
X179949461Y-110227115D01*
X179728280Y-110280217D01*
X179718895Y-110283266D01*
X179508744Y-110370313D01*
X179499949Y-110374795D01*
X179332462Y-110477432D01*
X179323000Y-110487890D01*
X176646993Y-110487890D01*
X176641522Y-110473295D01*
X176554168Y-110356739D01*
X176437612Y-110269385D01*
X176301223Y-110218255D01*
X176239041Y-110211500D01*
X174142773Y-110211500D01*
X174080591Y-110218255D01*
X173944202Y-110269385D01*
X173827646Y-110356739D01*
X173740292Y-110473295D01*
X173689162Y-110609684D01*
X173682407Y-110671866D01*
X173682407Y-110685500D01*
X173662405Y-110753621D01*
X173608749Y-110800114D01*
X173556407Y-110811500D01*
X167928503Y-110811500D01*
X167860382Y-110791498D01*
X167839408Y-110774595D01*
X165199981Y-108135168D01*
X165187140Y-108120135D01*
X165182746Y-108114087D01*
X165182745Y-108114086D01*
X165178866Y-108108747D01*
X165128041Y-108062984D01*
X165123256Y-108058443D01*
X165108741Y-108043928D01*
X165101138Y-108037771D01*
X165092784Y-108031006D01*
X165087769Y-108026722D01*
X165041855Y-107985381D01*
X165041850Y-107985377D01*
X165036944Y-107980960D01*
X165031228Y-107977660D01*
X165031224Y-107977657D01*
X165024763Y-107973927D01*
X165008466Y-107962727D01*
X165002660Y-107958025D01*
X165002658Y-107958024D01*
X164997530Y-107953871D01*
X164936577Y-107922814D01*
X164930782Y-107919667D01*
X164877279Y-107888777D01*
X164877278Y-107888776D01*
X164871556Y-107885473D01*
X164865274Y-107883432D01*
X164865272Y-107883431D01*
X164858174Y-107881125D01*
X164839907Y-107873559D01*
X164827370Y-107867171D01*
X164761299Y-107849467D01*
X164754997Y-107847600D01*
X164689928Y-107826458D01*
X164683363Y-107825768D01*
X164683354Y-107825766D01*
X164675925Y-107824985D01*
X164656491Y-107821383D01*
X164649286Y-107819453D01*
X164649284Y-107819453D01*
X164642903Y-107817743D01*
X164636312Y-107817398D01*
X164636308Y-107817397D01*
X164574616Y-107814164D01*
X164568042Y-107813647D01*
X164550884Y-107811844D01*
X164550882Y-107811844D01*
X164547610Y-107811500D01*
X164527074Y-107811500D01*
X164520480Y-107811327D01*
X164458782Y-107808093D01*
X164458777Y-107808093D01*
X164452190Y-107807748D01*
X164438292Y-107809949D01*
X164418583Y-107811500D01*
X161414188Y-107811500D01*
X161346067Y-107791498D01*
X161325093Y-107774595D01*
X161264300Y-107713802D01*
X161259792Y-107710645D01*
X161259789Y-107710643D01*
X161098508Y-107597713D01*
X161054180Y-107542256D01*
X161046871Y-107471637D01*
X161078902Y-107408276D01*
X161140103Y-107372291D01*
X161170779Y-107368500D01*
X167891497Y-107368500D01*
X167959618Y-107388502D01*
X167980592Y-107405405D01*
X169231323Y-108656136D01*
X169265349Y-108718448D01*
X169267748Y-108734246D01*
X169286457Y-108948087D01*
X169345716Y-109169243D01*
X169348039Y-109174224D01*
X169348039Y-109174225D01*
X169440151Y-109371762D01*
X169440154Y-109371767D01*
X169442477Y-109376749D01*
X169497002Y-109454619D01*
X169568389Y-109556569D01*
X169573802Y-109564300D01*
X169735700Y-109726198D01*
X169740208Y-109729355D01*
X169740211Y-109729357D01*
X169781832Y-109758500D01*
X169923251Y-109857523D01*
X169928233Y-109859846D01*
X169928238Y-109859849D01*
X170125771Y-109951959D01*
X170130757Y-109954284D01*
X170136065Y-109955706D01*
X170136067Y-109955707D01*
X170346598Y-110012119D01*
X170346600Y-110012119D01*
X170351913Y-110013543D01*
X170580000Y-110033498D01*
X170808087Y-110013543D01*
X170813400Y-110012119D01*
X170813402Y-110012119D01*
X171023933Y-109955707D01*
X171023935Y-109955706D01*
X171029243Y-109954284D01*
X171034229Y-109951959D01*
X171231762Y-109859849D01*
X171231767Y-109859846D01*
X171236749Y-109857523D01*
X171378168Y-109758500D01*
X171419789Y-109729357D01*
X171419792Y-109729355D01*
X171424300Y-109726198D01*
X171485093Y-109665405D01*
X171547405Y-109631379D01*
X171574188Y-109628500D01*
X172418583Y-109628500D01*
X172438292Y-109630051D01*
X172452190Y-109632252D01*
X172458777Y-109631907D01*
X172458782Y-109631907D01*
X172520480Y-109628673D01*
X172527074Y-109628500D01*
X172547610Y-109628500D01*
X172550882Y-109628156D01*
X172550884Y-109628156D01*
X172568042Y-109626353D01*
X172574616Y-109625836D01*
X172636308Y-109622603D01*
X172636312Y-109622602D01*
X172642903Y-109622257D01*
X172649284Y-109620547D01*
X172649286Y-109620547D01*
X172656491Y-109618617D01*
X172675925Y-109615015D01*
X172683354Y-109614234D01*
X172683363Y-109614232D01*
X172689928Y-109613542D01*
X172754997Y-109592400D01*
X172761299Y-109590533D01*
X172827370Y-109572829D01*
X172839908Y-109566440D01*
X172858174Y-109558875D01*
X172865272Y-109556569D01*
X172865274Y-109556568D01*
X172871556Y-109554527D01*
X172930785Y-109520331D01*
X172936579Y-109517185D01*
X172997530Y-109486129D01*
X173008467Y-109477273D01*
X173024763Y-109466073D01*
X173031224Y-109462343D01*
X173031228Y-109462340D01*
X173036944Y-109459040D01*
X173041850Y-109454623D01*
X173041855Y-109454619D01*
X173087769Y-109413278D01*
X173092784Y-109408994D01*
X173106177Y-109398148D01*
X173108741Y-109396072D01*
X173123256Y-109381557D01*
X173128041Y-109377016D01*
X173173957Y-109335673D01*
X173178866Y-109331253D01*
X173187140Y-109319865D01*
X173199981Y-109304832D01*
X174084832Y-108419981D01*
X174099865Y-108407140D01*
X174105913Y-108402746D01*
X174105914Y-108402745D01*
X174111253Y-108398866D01*
X174157016Y-108348041D01*
X174161557Y-108343256D01*
X174176072Y-108328741D01*
X174188994Y-108312784D01*
X174193278Y-108307769D01*
X174234619Y-108261855D01*
X174234623Y-108261850D01*
X174239040Y-108256944D01*
X174242340Y-108251228D01*
X174242343Y-108251224D01*
X174246073Y-108244763D01*
X174257273Y-108228466D01*
X174261975Y-108222660D01*
X174261976Y-108222658D01*
X174266129Y-108217530D01*
X174281293Y-108187770D01*
X174297188Y-108156574D01*
X174300336Y-108150777D01*
X174331224Y-108097277D01*
X174334527Y-108091556D01*
X174338875Y-108078174D01*
X174346438Y-108059915D01*
X174352830Y-108047370D01*
X174370537Y-107981288D01*
X174372409Y-107974969D01*
X174377915Y-107958025D01*
X174393542Y-107909928D01*
X174395014Y-107895925D01*
X174398615Y-107876496D01*
X174402257Y-107862903D01*
X174403059Y-107847595D01*
X174405836Y-107794616D01*
X174406353Y-107788042D01*
X174408156Y-107770884D01*
X174408156Y-107770882D01*
X174408500Y-107767610D01*
X174408500Y-107747074D01*
X174408673Y-107740480D01*
X174411907Y-107678782D01*
X174411907Y-107678777D01*
X174412252Y-107672190D01*
X174410753Y-107662722D01*
X174410051Y-107658293D01*
X174408500Y-107638583D01*
X174408500Y-104801417D01*
X174410051Y-104781707D01*
X174411220Y-104774327D01*
X174411220Y-104774326D01*
X174412252Y-104767810D01*
X174411058Y-104745017D01*
X174408673Y-104699520D01*
X174408500Y-104692926D01*
X174408500Y-104672390D01*
X174407097Y-104659040D01*
X174406353Y-104651958D01*
X174405836Y-104645384D01*
X174402603Y-104583696D01*
X174402603Y-104583694D01*
X174402257Y-104577097D01*
X174398615Y-104563504D01*
X174395014Y-104544075D01*
X174394232Y-104536639D01*
X174393542Y-104530072D01*
X174372407Y-104465025D01*
X174370535Y-104458706D01*
X174354538Y-104399003D01*
X174354537Y-104399000D01*
X174352830Y-104392630D01*
X174346438Y-104380085D01*
X174338874Y-104361823D01*
X174336568Y-104354726D01*
X174334527Y-104348444D01*
X174321519Y-104325913D01*
X174300336Y-104289223D01*
X174297188Y-104283426D01*
X174269126Y-104228351D01*
X174269124Y-104228348D01*
X174266129Y-104222470D01*
X174257273Y-104211533D01*
X174246073Y-104195237D01*
X174242343Y-104188776D01*
X174242340Y-104188772D01*
X174239040Y-104183056D01*
X174234623Y-104178150D01*
X174234619Y-104178145D01*
X174193278Y-104132231D01*
X174188994Y-104127216D01*
X174178148Y-104113823D01*
X174176072Y-104111259D01*
X174161557Y-104096744D01*
X174157016Y-104091959D01*
X174115673Y-104046043D01*
X174111253Y-104041134D01*
X174099865Y-104032860D01*
X174084832Y-104020019D01*
X173199981Y-103135168D01*
X173187140Y-103120135D01*
X173182746Y-103114087D01*
X173182745Y-103114086D01*
X173178866Y-103108747D01*
X173128041Y-103062984D01*
X173123256Y-103058443D01*
X173108741Y-103043928D01*
X173101282Y-103037888D01*
X173092784Y-103031006D01*
X173087769Y-103026722D01*
X173041855Y-102985381D01*
X173041850Y-102985377D01*
X173036944Y-102980960D01*
X173031228Y-102977660D01*
X173031224Y-102977657D01*
X173024763Y-102973927D01*
X173008466Y-102962727D01*
X173002660Y-102958025D01*
X173002658Y-102958024D01*
X172997530Y-102953871D01*
X172936577Y-102922814D01*
X172930782Y-102919667D01*
X172877279Y-102888777D01*
X172877278Y-102888776D01*
X172871556Y-102885473D01*
X172865274Y-102883432D01*
X172865272Y-102883431D01*
X172858174Y-102881125D01*
X172839907Y-102873559D01*
X172839389Y-102873295D01*
X172827370Y-102867171D01*
X172761299Y-102849467D01*
X172754997Y-102847600D01*
X172689928Y-102826458D01*
X172683363Y-102825768D01*
X172683354Y-102825766D01*
X172675925Y-102824985D01*
X172656491Y-102821383D01*
X172649286Y-102819453D01*
X172649284Y-102819453D01*
X172642903Y-102817743D01*
X172636312Y-102817398D01*
X172636308Y-102817397D01*
X172574616Y-102814164D01*
X172568042Y-102813647D01*
X172550884Y-102811844D01*
X172550882Y-102811844D01*
X172547610Y-102811500D01*
X172527074Y-102811500D01*
X172520480Y-102811327D01*
X172458782Y-102808093D01*
X172458777Y-102808093D01*
X172452190Y-102807748D01*
X172438292Y-102809949D01*
X172418583Y-102811500D01*
X171574188Y-102811500D01*
X171506067Y-102791498D01*
X171485093Y-102774595D01*
X171424300Y-102713802D01*
X171419792Y-102710645D01*
X171419789Y-102710643D01*
X171301592Y-102627881D01*
X171236749Y-102582477D01*
X171231767Y-102580154D01*
X171231762Y-102580151D01*
X171034225Y-102488039D01*
X171034224Y-102488039D01*
X171029243Y-102485716D01*
X171023935Y-102484294D01*
X171023933Y-102484293D01*
X170948882Y-102464183D01*
X186846889Y-102464183D01*
X186848412Y-102472607D01*
X186860792Y-102476000D01*
X187910385Y-102476000D01*
X187925624Y-102471525D01*
X187926829Y-102470135D01*
X187928500Y-102462452D01*
X187928500Y-102457885D01*
X188436500Y-102457885D01*
X188440975Y-102473124D01*
X188442365Y-102474329D01*
X188450048Y-102476000D01*
X189500844Y-102476000D01*
X189514375Y-102472027D01*
X189515680Y-102462947D01*
X189473714Y-102295875D01*
X189470394Y-102286124D01*
X189385472Y-102090814D01*
X189380605Y-102081739D01*
X189264926Y-101902926D01*
X189258636Y-101894757D01*
X189115306Y-101737240D01*
X189107773Y-101730215D01*
X188940639Y-101598222D01*
X188932052Y-101592517D01*
X188745617Y-101489599D01*
X188736205Y-101485369D01*
X188535459Y-101414280D01*
X188525488Y-101411646D01*
X188454337Y-101398972D01*
X188441040Y-101400432D01*
X188436500Y-101414989D01*
X188436500Y-102457885D01*
X187928500Y-102457885D01*
X187928500Y-101413102D01*
X187924582Y-101399758D01*
X187910306Y-101397771D01*
X187871824Y-101403660D01*
X187861788Y-101406051D01*
X187659368Y-101472212D01*
X187649859Y-101476209D01*
X187460963Y-101574542D01*
X187452238Y-101580036D01*
X187281933Y-101707905D01*
X187274226Y-101714748D01*
X187127090Y-101868717D01*
X187120604Y-101876727D01*
X187000598Y-102052649D01*
X186995500Y-102061623D01*
X186905838Y-102254783D01*
X186902275Y-102264470D01*
X186846889Y-102464183D01*
X170948882Y-102464183D01*
X170813402Y-102427881D01*
X170813400Y-102427881D01*
X170808087Y-102426457D01*
X170580000Y-102406502D01*
X170351913Y-102426457D01*
X170346600Y-102427881D01*
X170346598Y-102427881D01*
X170136067Y-102484293D01*
X170136065Y-102484294D01*
X170130757Y-102485716D01*
X170125776Y-102488039D01*
X170125775Y-102488039D01*
X169928238Y-102580151D01*
X169928233Y-102580154D01*
X169923251Y-102582477D01*
X169858408Y-102627881D01*
X169740211Y-102710643D01*
X169740208Y-102710645D01*
X169735700Y-102713802D01*
X169674907Y-102774595D01*
X169612595Y-102808621D01*
X169585812Y-102811500D01*
X166648503Y-102811500D01*
X166580382Y-102791498D01*
X166559408Y-102774595D01*
X161399981Y-97615168D01*
X161387140Y-97600135D01*
X161382746Y-97594087D01*
X161382745Y-97594086D01*
X161378866Y-97588747D01*
X161328041Y-97542984D01*
X161323256Y-97538443D01*
X161308741Y-97523928D01*
X161301282Y-97517888D01*
X161292784Y-97511006D01*
X161287769Y-97506722D01*
X161241855Y-97465381D01*
X161241850Y-97465377D01*
X161236944Y-97460960D01*
X161231228Y-97457660D01*
X161231224Y-97457657D01*
X161224763Y-97453927D01*
X161208466Y-97442727D01*
X161202660Y-97438025D01*
X161202658Y-97438024D01*
X161197530Y-97433871D01*
X161136577Y-97402814D01*
X161130782Y-97399667D01*
X161077279Y-97368777D01*
X161077278Y-97368776D01*
X161071556Y-97365473D01*
X161065274Y-97363432D01*
X161065272Y-97363431D01*
X161058174Y-97361125D01*
X161039907Y-97353559D01*
X161027370Y-97347171D01*
X160961299Y-97329467D01*
X160954997Y-97327600D01*
X160889928Y-97306458D01*
X160883363Y-97305768D01*
X160883354Y-97305766D01*
X160875925Y-97304985D01*
X160856491Y-97301383D01*
X160849286Y-97299453D01*
X160849284Y-97299453D01*
X160842903Y-97297743D01*
X160836312Y-97297398D01*
X160836308Y-97297397D01*
X160774616Y-97294164D01*
X160768042Y-97293647D01*
X160750884Y-97291844D01*
X160750882Y-97291844D01*
X160747610Y-97291500D01*
X160727074Y-97291500D01*
X160720480Y-97291327D01*
X160658782Y-97288093D01*
X160658777Y-97288093D01*
X160652190Y-97287748D01*
X160638292Y-97289949D01*
X160618583Y-97291500D01*
X133234500Y-97291500D01*
X133166379Y-97271498D01*
X133119886Y-97217842D01*
X133108500Y-97165500D01*
X133108500Y-96851866D01*
X133101745Y-96789684D01*
X133050615Y-96653295D01*
X132963261Y-96536739D01*
X132846705Y-96449385D01*
X132710316Y-96398255D01*
X132648134Y-96391500D01*
X124351866Y-96391500D01*
X124289684Y-96398255D01*
X124153295Y-96449385D01*
X124036739Y-96536739D01*
X123949385Y-96653295D01*
X123898255Y-96789684D01*
X123891500Y-96851866D01*
X123891500Y-99548134D01*
X113008500Y-99548134D01*
X113008500Y-68551745D01*
X116313795Y-68551745D01*
X116313871Y-68552815D01*
X116317055Y-68557648D01*
X116597342Y-68772720D01*
X116602972Y-68776575D01*
X116907929Y-68961992D01*
X116913931Y-68965210D01*
X117237139Y-69116611D01*
X117243444Y-69119159D01*
X117581117Y-69234771D01*
X117587668Y-69236624D01*
X117935838Y-69315087D01*
X117942557Y-69316224D01*
X118297174Y-69356628D01*
X118303964Y-69357031D01*
X118660865Y-69358899D01*
X118667666Y-69358567D01*
X119022686Y-69321880D01*
X119029414Y-69320814D01*
X119378402Y-69245997D01*
X119384950Y-69244218D01*
X119723820Y-69132147D01*
X119730162Y-69129661D01*
X120054921Y-68981660D01*
X120060975Y-68978495D01*
X120367839Y-68796293D01*
X120373520Y-68792490D01*
X120658918Y-68578207D01*
X120664145Y-68573821D01*
X120676988Y-68561803D01*
X120682921Y-68551745D01*
X184313795Y-68551745D01*
X184313871Y-68552815D01*
X184317055Y-68557648D01*
X184597342Y-68772720D01*
X184602972Y-68776575D01*
X184907929Y-68961992D01*
X184913931Y-68965210D01*
X185237139Y-69116611D01*
X185243444Y-69119159D01*
X185581117Y-69234771D01*
X185587668Y-69236624D01*
X185935838Y-69315087D01*
X185942557Y-69316224D01*
X186297174Y-69356628D01*
X186303964Y-69357031D01*
X186660865Y-69358899D01*
X186667666Y-69358567D01*
X187022686Y-69321880D01*
X187029414Y-69320814D01*
X187378402Y-69245997D01*
X187384950Y-69244218D01*
X187723820Y-69132147D01*
X187730162Y-69129661D01*
X188054921Y-68981660D01*
X188060975Y-68978495D01*
X188367839Y-68796293D01*
X188373520Y-68792490D01*
X188658918Y-68578207D01*
X188664145Y-68573821D01*
X188676988Y-68561803D01*
X188685057Y-68548123D01*
X188685029Y-68547398D01*
X188679887Y-68539097D01*
X186512812Y-66372022D01*
X186498868Y-66364408D01*
X186497035Y-66364539D01*
X186490420Y-66368790D01*
X184321409Y-68537801D01*
X184313795Y-68551745D01*
X120682921Y-68551745D01*
X120685057Y-68548123D01*
X120685029Y-68547398D01*
X120679887Y-68539097D01*
X118512812Y-66372022D01*
X118498868Y-66364408D01*
X118497035Y-66364539D01*
X118490420Y-66368790D01*
X116321409Y-68537801D01*
X116313795Y-68551745D01*
X113008500Y-68551745D01*
X113008500Y-66053250D01*
X113010246Y-66032345D01*
X113012770Y-66017344D01*
X113012770Y-66017341D01*
X113013576Y-66012552D01*
X113013729Y-66000000D01*
X113013039Y-65995185D01*
X113013039Y-65995178D01*
X113012535Y-65991657D01*
X115137260Y-65991657D01*
X115155318Y-66348127D01*
X115156028Y-66354883D01*
X115212478Y-66707305D01*
X115213917Y-66713960D01*
X115308094Y-67058215D01*
X115310243Y-67064676D01*
X115441053Y-67396756D01*
X115443884Y-67402939D01*
X115609792Y-67718949D01*
X115613275Y-67724791D01*
X115812340Y-68021031D01*
X115816442Y-68026475D01*
X115940942Y-68174322D01*
X115953680Y-68182764D01*
X115964124Y-68176666D01*
X118127978Y-66012812D01*
X118134356Y-66001132D01*
X118864408Y-66001132D01*
X118864539Y-66002965D01*
X118868790Y-66009580D01*
X121034463Y-68175253D01*
X121048060Y-68182678D01*
X121057669Y-68175981D01*
X121162197Y-68054457D01*
X121166346Y-68049069D01*
X121368503Y-67754929D01*
X121372050Y-67749118D01*
X121541250Y-67434879D01*
X121544157Y-67428701D01*
X121678435Y-67098016D01*
X121680649Y-67091586D01*
X121778427Y-66748331D01*
X121779934Y-66741701D01*
X121840073Y-66389873D01*
X121840853Y-66383133D01*
X121862740Y-66025275D01*
X121862856Y-66021673D01*
X121862926Y-66001820D01*
X121862834Y-65998193D01*
X121862480Y-65991657D01*
X183137260Y-65991657D01*
X183155318Y-66348127D01*
X183156028Y-66354883D01*
X183212478Y-66707305D01*
X183213917Y-66713960D01*
X183308094Y-67058215D01*
X183310243Y-67064676D01*
X183441053Y-67396756D01*
X183443884Y-67402939D01*
X183609792Y-67718949D01*
X183613275Y-67724791D01*
X183812340Y-68021031D01*
X183816442Y-68026475D01*
X183940942Y-68174322D01*
X183953680Y-68182764D01*
X183964124Y-68176666D01*
X186127978Y-66012812D01*
X186134356Y-66001132D01*
X186864408Y-66001132D01*
X186864539Y-66002965D01*
X186868790Y-66009580D01*
X189034463Y-68175253D01*
X189048060Y-68182678D01*
X189057669Y-68175981D01*
X189162197Y-68054457D01*
X189166346Y-68049069D01*
X189368503Y-67754929D01*
X189372050Y-67749118D01*
X189541250Y-67434879D01*
X189544157Y-67428701D01*
X189678435Y-67098016D01*
X189680649Y-67091586D01*
X189778427Y-66748331D01*
X189779934Y-66741701D01*
X189840073Y-66389873D01*
X189840853Y-66383133D01*
X189862740Y-66025275D01*
X189862856Y-66021673D01*
X189862926Y-66001820D01*
X189862834Y-65998193D01*
X189843446Y-65640208D01*
X189842711Y-65633442D01*
X189785034Y-65281233D01*
X189783567Y-65274561D01*
X189688194Y-64930655D01*
X189686020Y-64924192D01*
X189554053Y-64592575D01*
X189551197Y-64586395D01*
X189384194Y-64270981D01*
X189380682Y-64265137D01*
X189180588Y-63969598D01*
X189176467Y-63964170D01*
X189059041Y-63825704D01*
X189046215Y-63817267D01*
X189035890Y-63823320D01*
X186872022Y-65987188D01*
X186864408Y-66001132D01*
X186134356Y-66001132D01*
X186135592Y-65998868D01*
X186135461Y-65997035D01*
X186131210Y-65990420D01*
X183965527Y-63824737D01*
X183951990Y-63817345D01*
X183942289Y-63824132D01*
X183830649Y-63954847D01*
X183826515Y-63960255D01*
X183625394Y-64255086D01*
X183621859Y-64260923D01*
X183453754Y-64575757D01*
X183450878Y-64581926D01*
X183317754Y-64913081D01*
X183315561Y-64919521D01*
X183218979Y-65263121D01*
X183217496Y-65269756D01*
X183158589Y-65621773D01*
X183157830Y-65628545D01*
X183137284Y-65984862D01*
X183137260Y-65991657D01*
X121862480Y-65991657D01*
X121843446Y-65640208D01*
X121842711Y-65633442D01*
X121785034Y-65281233D01*
X121783567Y-65274561D01*
X121688194Y-64930655D01*
X121686020Y-64924192D01*
X121554053Y-64592575D01*
X121551197Y-64586395D01*
X121384194Y-64270981D01*
X121380682Y-64265137D01*
X121180588Y-63969598D01*
X121176467Y-63964170D01*
X121059041Y-63825704D01*
X121046215Y-63817267D01*
X121035890Y-63823320D01*
X118872022Y-65987188D01*
X118864408Y-66001132D01*
X118134356Y-66001132D01*
X118135592Y-65998868D01*
X118135461Y-65997035D01*
X118131210Y-65990420D01*
X115965527Y-63824737D01*
X115951990Y-63817345D01*
X115942289Y-63824132D01*
X115830649Y-63954847D01*
X115826515Y-63960255D01*
X115625394Y-64255086D01*
X115621859Y-64260923D01*
X115453754Y-64575757D01*
X115450878Y-64581926D01*
X115317754Y-64913081D01*
X115315561Y-64919521D01*
X115218979Y-65263121D01*
X115217496Y-65269756D01*
X115158589Y-65621773D01*
X115157830Y-65628545D01*
X115137284Y-65984862D01*
X115137260Y-65991657D01*
X113012535Y-65991657D01*
X113011316Y-65983148D01*
X113010151Y-65960077D01*
X113027041Y-65551722D01*
X113027901Y-65541344D01*
X113082752Y-65101302D01*
X113084466Y-65091030D01*
X113120428Y-64919521D01*
X113175467Y-64657024D01*
X113178023Y-64646928D01*
X113304561Y-64221899D01*
X113307938Y-64212062D01*
X113469147Y-63798919D01*
X113473318Y-63789411D01*
X113633075Y-63462624D01*
X113638517Y-63451492D01*
X116314580Y-63451492D01*
X116314615Y-63452333D01*
X116319667Y-63460457D01*
X118487188Y-65627978D01*
X118501132Y-65635592D01*
X118502965Y-65635461D01*
X118509580Y-65631210D01*
X120678166Y-63462624D01*
X120684245Y-63451492D01*
X184314580Y-63451492D01*
X184314615Y-63452333D01*
X184319667Y-63460457D01*
X186487188Y-65627978D01*
X186501132Y-65635592D01*
X186502965Y-65635461D01*
X186509580Y-65631210D01*
X188678166Y-63462624D01*
X188685780Y-63448680D01*
X188685712Y-63447723D01*
X188680771Y-63440251D01*
X188676870Y-63436931D01*
X188392958Y-63220649D01*
X188387332Y-63216825D01*
X188081722Y-63032469D01*
X188075710Y-63029272D01*
X187751966Y-62878995D01*
X187745666Y-62876475D01*
X187407595Y-62762045D01*
X187401017Y-62760209D01*
X187052592Y-62682965D01*
X187045857Y-62681850D01*
X186691106Y-62642685D01*
X186684324Y-62642306D01*
X186327395Y-62641683D01*
X186320622Y-62642038D01*
X185965714Y-62679966D01*
X185959005Y-62681053D01*
X185610289Y-62757086D01*
X185603714Y-62758897D01*
X185265250Y-62872145D01*
X185258928Y-62874648D01*
X184934680Y-63023785D01*
X184928637Y-63026971D01*
X184622404Y-63210248D01*
X184616744Y-63214066D01*
X184332094Y-63429346D01*
X184326891Y-63433742D01*
X184322601Y-63437785D01*
X184314580Y-63451492D01*
X120684245Y-63451492D01*
X120685780Y-63448680D01*
X120685712Y-63447723D01*
X120680771Y-63440251D01*
X120676870Y-63436931D01*
X120392958Y-63220649D01*
X120387332Y-63216825D01*
X120081722Y-63032469D01*
X120075710Y-63029272D01*
X119751966Y-62878995D01*
X119745666Y-62876475D01*
X119407595Y-62762045D01*
X119401017Y-62760209D01*
X119052592Y-62682965D01*
X119045857Y-62681850D01*
X118691106Y-62642685D01*
X118684324Y-62642306D01*
X118327395Y-62641683D01*
X118320622Y-62642038D01*
X117965714Y-62679966D01*
X117959005Y-62681053D01*
X117610289Y-62757086D01*
X117603714Y-62758897D01*
X117265250Y-62872145D01*
X117258928Y-62874648D01*
X116934680Y-63023785D01*
X116928637Y-63026971D01*
X116622404Y-63210248D01*
X116616744Y-63214066D01*
X116332094Y-63429346D01*
X116326891Y-63433742D01*
X116322601Y-63437785D01*
X116314580Y-63451492D01*
X113638517Y-63451492D01*
X113668082Y-63391015D01*
X113673037Y-63381859D01*
X113900030Y-63000915D01*
X113905726Y-62992196D01*
X114163405Y-62631295D01*
X114169801Y-62623077D01*
X114456413Y-62284674D01*
X114463467Y-62277013D01*
X114777013Y-61963467D01*
X114784674Y-61956413D01*
X115123077Y-61669801D01*
X115131295Y-61663405D01*
X115492196Y-61405726D01*
X115500915Y-61400030D01*
X115881859Y-61173037D01*
X115891017Y-61168081D01*
X116289419Y-60973314D01*
X116298919Y-60969147D01*
X116712062Y-60807938D01*
X116721899Y-60804561D01*
X117146928Y-60678023D01*
X117157024Y-60675467D01*
X117427946Y-60618661D01*
X117591033Y-60584465D01*
X117601298Y-60582753D01*
X117765326Y-60562307D01*
X118041344Y-60527901D01*
X118051722Y-60527041D01*
X118229324Y-60519695D01*
X118456339Y-60510306D01*
X118480920Y-60511698D01*
X118493724Y-60513691D01*
X118502626Y-60512527D01*
X118502628Y-60512527D01*
X118519610Y-60510306D01*
X118525286Y-60509564D01*
X118541621Y-60508500D01*
X186450633Y-60508500D01*
X186470018Y-60510000D01*
G37*
%TD.AperFunction*%
%TD*%
M02*
