%TF.GenerationSoftware,KiCad,Pcbnew,(6.0.10)*%
%TF.CreationDate,2023-02-21T22:54:33+08:00*%
%TF.ProjectId,LutrarmyMic_BatPwr,4c757472-6172-46d7-994d-69635f426174,rev?*%
%TF.SameCoordinates,Original*%
%TF.FileFunction,Soldermask,Top*%
%TF.FilePolarity,Negative*%
%FSLAX46Y46*%
G04 Gerber Fmt 4.6, Leading zero omitted, Abs format (unit mm)*
G04 Created by KiCad (PCBNEW (6.0.10)) date 2023-02-21 22:54:33*
%MOMM*%
%LPD*%
G01*
G04 APERTURE LIST*
%ADD10C,5.700000*%
%ADD11C,1.600000*%
%ADD12R,8.200000X2.600000*%
%ADD13O,1.600000X1.600000*%
%ADD14R,2.000000X2.000000*%
%ADD15C,2.000000*%
%ADD16R,1.700000X1.700000*%
%ADD17O,1.700000X1.700000*%
%ADD18R,1.600000X1.600000*%
%ADD19R,2.600000X2.600000*%
%ADD20O,2.600000X2.600000*%
%ADD21R,1.800000X1.800000*%
%ADD22C,1.800000*%
%ADD23C,1.750000*%
G04 APERTURE END LIST*
D10*
%TO.C,REF\u002A\u002A*%
X186500000Y-134000000D03*
%TD*%
D11*
%TO.C,C2*%
X144500000Y-109000000D03*
X144500000Y-114000000D03*
%TD*%
D10*
%TO.C,REF\u002A\u002A*%
X118500000Y-134000000D03*
%TD*%
D12*
%TO.C,L2*%
X138500000Y-123200000D03*
X138500000Y-128800000D03*
%TD*%
D11*
%TO.C,R3*%
X160420000Y-103720000D03*
D13*
X170580000Y-103720000D03*
%TD*%
D14*
%TO.C,C4*%
X130500000Y-129000000D03*
D15*
X125500000Y-129000000D03*
%TD*%
D11*
%TO.C,R5*%
X158585000Y-129000000D03*
D13*
X148425000Y-129000000D03*
%TD*%
D16*
%TO.C,BT1*%
X188182500Y-105270000D03*
D17*
X188182500Y-102730000D03*
%TD*%
D14*
%TO.C,C3*%
X130500000Y-115000000D03*
D15*
X125500000Y-115000000D03*
%TD*%
D10*
%TO.C,REF\u002A\u002A*%
X186500000Y-66000000D03*
%TD*%
D11*
%TO.C,R4*%
X158615000Y-120000000D03*
D13*
X148455000Y-120000000D03*
%TD*%
D12*
%TO.C,L1*%
X128500000Y-98200000D03*
X128500000Y-103800000D03*
%TD*%
D18*
%TO.C,U1*%
X148700000Y-103920000D03*
D13*
X148700000Y-106460000D03*
X148700000Y-109000000D03*
X148700000Y-111540000D03*
X156320000Y-111540000D03*
X156320000Y-109000000D03*
X156320000Y-106460000D03*
X156320000Y-103920000D03*
%TD*%
D16*
%TO.C,SW1*%
X174500000Y-137000000D03*
D17*
X171960000Y-137000000D03*
X169420000Y-137000000D03*
%TD*%
D11*
%TO.C,R1*%
X170580000Y-108720000D03*
D13*
X160420000Y-108720000D03*
%TD*%
D19*
%TO.C,D1*%
X138500000Y-118620000D03*
D20*
X138500000Y-103380000D03*
%TD*%
D16*
%TO.C,J1*%
X138500000Y-137000000D03*
D17*
X141040000Y-137000000D03*
%TD*%
D21*
%TO.C,D2*%
X155960000Y-135000000D03*
D22*
X158500000Y-135000000D03*
%TD*%
D14*
%TO.C,C1*%
X175190907Y-111720000D03*
D15*
X180190907Y-111720000D03*
%TD*%
D10*
%TO.C,REF\u002A\u002A*%
X118500000Y-66000000D03*
%TD*%
D23*
%TO.C,RV1*%
X163500000Y-123000000D03*
X166040000Y-120460000D03*
X168580000Y-123000000D03*
%TD*%
D11*
%TO.C,R2*%
X160420000Y-113720000D03*
D13*
X170580000Y-113720000D03*
%TD*%
M02*
