M48
; DRILL file {KiCad (6.0.10)} date Tue Feb 21 22:54:35 2023
; FORMAT={-:-/ absolute / inch / decimal}
; #@! TF.CreationDate,2023-02-21T22:54:35+08:00
; #@! TF.GenerationSoftware,Kicad,Pcbnew,(6.0.10)
; #@! TF.FileFunction,Plated,1,2,PTH
FMAT,2
INCH
; #@! TA.AperFunction,Plated,PTH,ComponentDrill
T1C0.0276
; #@! TA.AperFunction,Plated,PTH,ComponentDrill
T2C0.0315
; #@! TA.AperFunction,Plated,PTH,ComponentDrill
T3C0.0354
; #@! TA.AperFunction,Plated,PTH,ComponentDrill
T4C0.0394
; #@! TA.AperFunction,Plated,PTH,ComponentDrill
T5C0.0512
; #@! TA.AperFunction,Plated,PTH,ComponentDrill
T6C0.1260
%
G90
G05
T1
X6.437Y-4.8425
X6.537Y-4.7425
X6.637Y-4.8425
T2
X5.689Y-4.2913
X5.689Y-4.4882
X5.8435Y-5.0787
X5.8447Y-4.7244
X5.8543Y-4.0913
X5.8543Y-4.1913
X5.8543Y-4.2913
X5.8543Y-4.3913
X6.1543Y-4.0913
X6.1543Y-4.1913
X6.1543Y-4.2913
X6.1543Y-4.3913
X6.2435Y-5.0787
X6.2447Y-4.7244
X6.3157Y-4.0835
X6.3157Y-4.2803
X6.3157Y-4.4772
X6.7157Y-4.0835
X6.7157Y-4.2803
X6.7157Y-4.4772
T3
X6.1402Y-5.315
X6.2402Y-5.315
T4
X4.9409Y-4.5276
X4.9409Y-5.0787
X5.1378Y-4.5276
X5.1378Y-5.0787
X5.4528Y-5.3937
X5.5528Y-5.3937
X6.6701Y-5.3937
X6.7701Y-5.3937
X6.8701Y-5.3937
X6.8973Y-4.3984
X7.0941Y-4.3984
X7.4088Y-4.0445
X7.4088Y-4.1445
T5
X5.4528Y-4.0701
X5.4528Y-4.6701
T6
X4.6654Y-2.5984
X4.6654Y-5.2756
X7.3425Y-2.5984
X7.3425Y-5.2756
T0
M30
