%TF.GenerationSoftware,KiCad,Pcbnew,(6.0.10)*%
%TF.CreationDate,2023-02-25T17:12:30+08:00*%
%TF.ProjectId,LutrarmyMic_PhPwrSwitch,4c757472-6172-46d7-994d-69635f506850,rev?*%
%TF.SameCoordinates,Original*%
%TF.FileFunction,Soldermask,Top*%
%TF.FilePolarity,Negative*%
%FSLAX46Y46*%
G04 Gerber Fmt 4.6, Leading zero omitted, Abs format (unit mm)*
G04 Created by KiCad (PCBNEW (6.0.10)) date 2023-02-25 17:12:30*
%MOMM*%
%LPD*%
G01*
G04 APERTURE LIST*
G04 Aperture macros list*
%AMRoundRect*
0 Rectangle with rounded corners*
0 $1 Rounding radius*
0 $2 $3 $4 $5 $6 $7 $8 $9 X,Y pos of 4 corners*
0 Add a 4 corners polygon primitive as box body*
4,1,4,$2,$3,$4,$5,$6,$7,$8,$9,$2,$3,0*
0 Add four circle primitives for the rounded corners*
1,1,$1+$1,$2,$3*
1,1,$1+$1,$4,$5*
1,1,$1+$1,$6,$7*
1,1,$1+$1,$8,$9*
0 Add four rect primitives between the rounded corners*
20,1,$1+$1,$2,$3,$4,$5,0*
20,1,$1+$1,$4,$5,$6,$7,0*
20,1,$1+$1,$6,$7,$8,$9,0*
20,1,$1+$1,$8,$9,$2,$3,0*%
G04 Aperture macros list end*
%ADD10C,5.700000*%
%ADD11C,1.600000*%
%ADD12O,1.600000X1.600000*%
%ADD13R,2.200000X2.200000*%
%ADD14O,2.200000X2.200000*%
%ADD15RoundRect,0.250500X-0.499500X-0.499500X0.499500X-0.499500X0.499500X0.499500X-0.499500X0.499500X0*%
%ADD16C,1.500000*%
%ADD17R,1.600000X1.600000*%
%ADD18R,1.700000X1.700000*%
%ADD19O,1.700000X1.700000*%
G04 APERTURE END LIST*
D10*
%TO.C,REF\u002A\u002A*%
X135000000Y-121000000D03*
%TD*%
D11*
%TO.C,R11*%
X162560000Y-91440000D03*
D12*
X162560000Y-101600000D03*
%TD*%
D10*
%TO.C,REF\u002A\u002A*%
X135000000Y-53000000D03*
%TD*%
D11*
%TO.C,R5*%
X202946000Y-91440000D03*
D12*
X202946000Y-101600000D03*
%TD*%
D13*
%TO.C,D7*%
X139954000Y-76962000D03*
D14*
X139954000Y-66802000D03*
%TD*%
D15*
%TO.C,K1*%
X193040000Y-81280000D03*
D16*
X193040000Y-86360000D03*
X193040000Y-88900000D03*
X193040000Y-91440000D03*
X198120000Y-91440000D03*
X198120000Y-88900000D03*
X198120000Y-86360000D03*
X198120000Y-81280000D03*
%TD*%
D11*
%TO.C,R10*%
X145034000Y-99060000D03*
D12*
X145034000Y-109220000D03*
%TD*%
D11*
%TO.C,R8*%
X145034000Y-74422000D03*
D12*
X145034000Y-64262000D03*
%TD*%
D17*
%TO.C,D3*%
X202946000Y-81280000D03*
D12*
X202946000Y-88900000D03*
%TD*%
D15*
%TO.C,K3*%
X152654000Y-81280000D03*
D16*
X152654000Y-86360000D03*
X152654000Y-88900000D03*
X152654000Y-91440000D03*
X157734000Y-91440000D03*
X157734000Y-88900000D03*
X157734000Y-86360000D03*
X157734000Y-81280000D03*
%TD*%
D17*
%TO.C,D4*%
X202946000Y-74422000D03*
D12*
X202946000Y-66802000D03*
%TD*%
D11*
%TO.C,R1*%
X198120000Y-74422000D03*
D12*
X198120000Y-64262000D03*
%TD*%
D11*
%TO.C,R2*%
X185420000Y-74422000D03*
D12*
X185420000Y-64262000D03*
%TD*%
D17*
%TO.C,D9*%
X162560000Y-81280000D03*
D12*
X162560000Y-88900000D03*
%TD*%
D13*
%TO.C,D1*%
X193040000Y-76962000D03*
D14*
X193040000Y-66802000D03*
%TD*%
D11*
%TO.C,R4*%
X185420000Y-99060000D03*
D12*
X185420000Y-109220000D03*
%TD*%
D13*
%TO.C,D2*%
X180340000Y-76962000D03*
D14*
X180340000Y-66802000D03*
%TD*%
D17*
%TO.C,C5*%
X138136000Y-109220000D03*
D11*
X135636000Y-109220000D03*
%TD*%
D18*
%TO.C,J4*%
X145000000Y-50000000D03*
D19*
X147540000Y-50000000D03*
X150080000Y-50000000D03*
%TD*%
D17*
%TO.C,D12*%
X135636000Y-74422000D03*
D12*
X135636000Y-66802000D03*
%TD*%
D17*
%TO.C,D10*%
X162560000Y-74422000D03*
D12*
X162560000Y-66802000D03*
%TD*%
D18*
%TO.C,J3*%
X193000000Y-50000000D03*
D19*
X190460000Y-50000000D03*
X187920000Y-50000000D03*
%TD*%
D15*
%TO.C,K2*%
X180340000Y-81280000D03*
D16*
X180340000Y-86360000D03*
X180340000Y-88900000D03*
X180340000Y-91440000D03*
X185420000Y-91440000D03*
X185420000Y-88900000D03*
X185420000Y-86360000D03*
X185420000Y-81280000D03*
%TD*%
D11*
%TO.C,R9*%
X152654000Y-99060000D03*
D12*
X152654000Y-109220000D03*
%TD*%
D17*
%TO.C,D5*%
X176276000Y-81280000D03*
D12*
X176276000Y-88900000D03*
%TD*%
D17*
%TO.C,D11*%
X135636000Y-81280000D03*
D12*
X135636000Y-88900000D03*
%TD*%
D18*
%TO.C,J5*%
X166000000Y-124000000D03*
D19*
X163460000Y-124000000D03*
%TD*%
D11*
%TO.C,R3*%
X193040000Y-99060000D03*
D12*
X193040000Y-109220000D03*
%TD*%
D17*
%TO.C,D6*%
X176276000Y-74422000D03*
D12*
X176276000Y-66802000D03*
%TD*%
D18*
%TO.C,J1*%
X193000000Y-124000000D03*
D19*
X190460000Y-124000000D03*
X187920000Y-124000000D03*
%TD*%
D18*
%TO.C,J2*%
X145000000Y-124000000D03*
D19*
X147540000Y-124000000D03*
X150080000Y-124000000D03*
%TD*%
D11*
%TO.C,R12*%
X135636000Y-91440000D03*
D12*
X135636000Y-101600000D03*
%TD*%
D10*
%TO.C,REF\u002A\u002A*%
X203000000Y-121000000D03*
%TD*%
D15*
%TO.C,K4*%
X139954000Y-81280000D03*
D16*
X139954000Y-86360000D03*
X139954000Y-88900000D03*
X139954000Y-91440000D03*
X145034000Y-91440000D03*
X145034000Y-88900000D03*
X145034000Y-86360000D03*
X145034000Y-81280000D03*
%TD*%
D17*
%TO.C,C3*%
X169418000Y-113284000D03*
D11*
X169418000Y-110784000D03*
%TD*%
%TO.C,R7*%
X157734000Y-74422000D03*
D12*
X157734000Y-64262000D03*
%TD*%
D11*
%TO.C,R6*%
X176276000Y-91440000D03*
D12*
X176276000Y-101600000D03*
%TD*%
D10*
%TO.C,REF\u002A\u002A*%
X203000000Y-53000000D03*
%TD*%
D17*
%TO.C,C1*%
X200446000Y-109220000D03*
D11*
X202946000Y-109220000D03*
%TD*%
D13*
%TO.C,D8*%
X152654000Y-76962000D03*
D14*
X152654000Y-66802000D03*
%TD*%
D17*
%TO.C,C4*%
X160060000Y-109220000D03*
D11*
X162560000Y-109220000D03*
%TD*%
D17*
%TO.C,C2*%
X178776000Y-109220000D03*
D11*
X176276000Y-109220000D03*
%TD*%
D18*
%TO.C,J6*%
X178365000Y-124000000D03*
D19*
X175825000Y-124000000D03*
%TD*%
M02*
