%TF.GenerationSoftware,KiCad,Pcbnew,(6.0.10)*%
%TF.CreationDate,2023-02-25T17:12:30+08:00*%
%TF.ProjectId,LutrarmyMic_PhPwrSwitch,4c757472-6172-46d7-994d-69635f506850,rev?*%
%TF.SameCoordinates,Original*%
%TF.FileFunction,Legend,Top*%
%TF.FilePolarity,Positive*%
%FSLAX46Y46*%
G04 Gerber Fmt 4.6, Leading zero omitted, Abs format (unit mm)*
G04 Created by KiCad (PCBNEW (6.0.10)) date 2023-02-25 17:12:30*
%MOMM*%
%LPD*%
G01*
G04 APERTURE LIST*
%ADD10C,0.300000*%
%ADD11C,0.150000*%
%ADD12C,0.120000*%
G04 APERTURE END LIST*
D10*
X152964285Y-53321428D02*
X152964285Y-54821428D01*
X152464285Y-53750000D01*
X151964285Y-54821428D01*
X151964285Y-53321428D01*
X151250000Y-53321428D02*
X151250000Y-54821428D01*
X149678571Y-53464285D02*
X149750000Y-53392857D01*
X149964285Y-53321428D01*
X150107142Y-53321428D01*
X150321428Y-53392857D01*
X150464285Y-53535714D01*
X150535714Y-53678571D01*
X150607142Y-53964285D01*
X150607142Y-54178571D01*
X150535714Y-54464285D01*
X150464285Y-54607142D01*
X150321428Y-54750000D01*
X150107142Y-54821428D01*
X149964285Y-54821428D01*
X149750000Y-54750000D01*
X149678571Y-54678571D01*
X149107142Y-54678571D02*
X149035714Y-54750000D01*
X148892857Y-54821428D01*
X148535714Y-54821428D01*
X148392857Y-54750000D01*
X148321428Y-54678571D01*
X148250000Y-54535714D01*
X148250000Y-54392857D01*
X148321428Y-54178571D01*
X149178571Y-53321428D01*
X148250000Y-53321428D01*
X147964285Y-53178571D02*
X146821428Y-53178571D01*
X146607142Y-54821428D02*
X145607142Y-53321428D01*
X145607142Y-54821428D02*
X146607142Y-53321428D01*
X144321428Y-53321428D02*
X145035714Y-53321428D01*
X145035714Y-54821428D01*
X142964285Y-53321428D02*
X143464285Y-54035714D01*
X143821428Y-53321428D02*
X143821428Y-54821428D01*
X143250000Y-54821428D01*
X143107142Y-54750000D01*
X143035714Y-54678571D01*
X142964285Y-54535714D01*
X142964285Y-54321428D01*
X143035714Y-54178571D01*
X143107142Y-54107142D01*
X143250000Y-54035714D01*
X143821428Y-54035714D01*
X179678571Y-49321428D02*
X179678571Y-50821428D01*
X179107142Y-50821428D01*
X178964285Y-50750000D01*
X178892857Y-50678571D01*
X178821428Y-50535714D01*
X178821428Y-50321428D01*
X178892857Y-50178571D01*
X178964285Y-50107142D01*
X179107142Y-50035714D01*
X179678571Y-50035714D01*
X178178571Y-49321428D02*
X178178571Y-50821428D01*
X177535714Y-49321428D02*
X177535714Y-50107142D01*
X177607142Y-50250000D01*
X177750000Y-50321428D01*
X177964285Y-50321428D01*
X178107142Y-50250000D01*
X178178571Y-50178571D01*
X176821428Y-49321428D02*
X176821428Y-50821428D01*
X176250000Y-50821428D01*
X176107142Y-50750000D01*
X176035714Y-50678571D01*
X175964285Y-50535714D01*
X175964285Y-50321428D01*
X176035714Y-50178571D01*
X176107142Y-50107142D01*
X176250000Y-50035714D01*
X176821428Y-50035714D01*
X175464285Y-50321428D02*
X175178571Y-49321428D01*
X174892857Y-50035714D01*
X174607142Y-49321428D01*
X174321428Y-50321428D01*
X173750000Y-49321428D02*
X173750000Y-50321428D01*
X173750000Y-50035714D02*
X173678571Y-50178571D01*
X173607142Y-50250000D01*
X173464285Y-50321428D01*
X173321428Y-50321428D01*
X172892857Y-49392857D02*
X172678571Y-49321428D01*
X172321428Y-49321428D01*
X172178571Y-49392857D01*
X172107142Y-49464285D01*
X172035714Y-49607142D01*
X172035714Y-49750000D01*
X172107142Y-49892857D01*
X172178571Y-49964285D01*
X172321428Y-50035714D01*
X172607142Y-50107142D01*
X172750000Y-50178571D01*
X172821428Y-50250000D01*
X172892857Y-50392857D01*
X172892857Y-50535714D01*
X172821428Y-50678571D01*
X172750000Y-50750000D01*
X172607142Y-50821428D01*
X172250000Y-50821428D01*
X172035714Y-50750000D01*
X171535714Y-50321428D02*
X171250000Y-49321428D01*
X170964285Y-50035714D01*
X170678571Y-49321428D01*
X170392857Y-50321428D01*
X169821428Y-49321428D02*
X169821428Y-50321428D01*
X169821428Y-50821428D02*
X169892857Y-50750000D01*
X169821428Y-50678571D01*
X169750000Y-50750000D01*
X169821428Y-50821428D01*
X169821428Y-50678571D01*
X169321428Y-50321428D02*
X168750000Y-50321428D01*
X169107142Y-50821428D02*
X169107142Y-49535714D01*
X169035714Y-49392857D01*
X168892857Y-49321428D01*
X168750000Y-49321428D01*
X167607142Y-49392857D02*
X167750000Y-49321428D01*
X168035714Y-49321428D01*
X168178571Y-49392857D01*
X168250000Y-49464285D01*
X168321428Y-49607142D01*
X168321428Y-50035714D01*
X168250000Y-50178571D01*
X168178571Y-50250000D01*
X168035714Y-50321428D01*
X167750000Y-50321428D01*
X167607142Y-50250000D01*
X166964285Y-49321428D02*
X166964285Y-50821428D01*
X166321428Y-49321428D02*
X166321428Y-50107142D01*
X166392857Y-50250000D01*
X166535714Y-50321428D01*
X166750000Y-50321428D01*
X166892857Y-50250000D01*
X166964285Y-50178571D01*
X164678571Y-50821428D02*
X164178571Y-49321428D01*
X163678571Y-50821428D01*
X162392857Y-49321428D02*
X163250000Y-49321428D01*
X162821428Y-49321428D02*
X162821428Y-50821428D01*
X162964285Y-50607142D01*
X163107142Y-50464285D01*
X163250000Y-50392857D01*
X161750000Y-49464285D02*
X161678571Y-49392857D01*
X161750000Y-49321428D01*
X161821428Y-49392857D01*
X161750000Y-49464285D01*
X161750000Y-49321428D01*
X160750000Y-50821428D02*
X160607142Y-50821428D01*
X160464285Y-50750000D01*
X160392857Y-50678571D01*
X160321428Y-50535714D01*
X160250000Y-50250000D01*
X160250000Y-49892857D01*
X160321428Y-49607142D01*
X160392857Y-49464285D01*
X160464285Y-49392857D01*
X160607142Y-49321428D01*
X160750000Y-49321428D01*
X160892857Y-49392857D01*
X160964285Y-49464285D01*
X161035714Y-49607142D01*
X161107142Y-49892857D01*
X161107142Y-50250000D01*
X161035714Y-50535714D01*
X160964285Y-50678571D01*
X160892857Y-50750000D01*
X160750000Y-50821428D01*
X163000000Y-119678571D02*
X163000000Y-120678571D01*
X162642857Y-119107142D02*
X162285714Y-120178571D01*
X163214285Y-120178571D01*
X164000000Y-119821428D02*
X163857142Y-119750000D01*
X163785714Y-119678571D01*
X163714285Y-119535714D01*
X163714285Y-119464285D01*
X163785714Y-119321428D01*
X163857142Y-119250000D01*
X164000000Y-119178571D01*
X164285714Y-119178571D01*
X164428571Y-119250000D01*
X164500000Y-119321428D01*
X164571428Y-119464285D01*
X164571428Y-119535714D01*
X164500000Y-119678571D01*
X164428571Y-119750000D01*
X164285714Y-119821428D01*
X164000000Y-119821428D01*
X163857142Y-119892857D01*
X163785714Y-119964285D01*
X163714285Y-120107142D01*
X163714285Y-120392857D01*
X163785714Y-120535714D01*
X163857142Y-120607142D01*
X164000000Y-120678571D01*
X164285714Y-120678571D01*
X164428571Y-120607142D01*
X164500000Y-120535714D01*
X164571428Y-120392857D01*
X164571428Y-120107142D01*
X164500000Y-119964285D01*
X164428571Y-119892857D01*
X164285714Y-119821428D01*
X165000000Y-119178571D02*
X165500000Y-120678571D01*
X166000000Y-119178571D01*
X166500000Y-120107142D02*
X167642857Y-120107142D01*
X167071428Y-120678571D02*
X167071428Y-119535714D01*
X194964285Y-53321428D02*
X194964285Y-54821428D01*
X194464285Y-53750000D01*
X193964285Y-54821428D01*
X193964285Y-53321428D01*
X193250000Y-53321428D02*
X193250000Y-54821428D01*
X191678571Y-53464285D02*
X191750000Y-53392857D01*
X191964285Y-53321428D01*
X192107142Y-53321428D01*
X192321428Y-53392857D01*
X192464285Y-53535714D01*
X192535714Y-53678571D01*
X192607142Y-53964285D01*
X192607142Y-54178571D01*
X192535714Y-54464285D01*
X192464285Y-54607142D01*
X192321428Y-54750000D01*
X192107142Y-54821428D01*
X191964285Y-54821428D01*
X191750000Y-54750000D01*
X191678571Y-54678571D01*
X190250000Y-53321428D02*
X191107142Y-53321428D01*
X190678571Y-53321428D02*
X190678571Y-54821428D01*
X190821428Y-54607142D01*
X190964285Y-54464285D01*
X191107142Y-54392857D01*
X189964285Y-53178571D02*
X188821428Y-53178571D01*
X188607142Y-54821428D02*
X187607142Y-53321428D01*
X187607142Y-54821428D02*
X188607142Y-53321428D01*
X186321428Y-53321428D02*
X187035714Y-53321428D01*
X187035714Y-54821428D01*
X184964285Y-53321428D02*
X185464285Y-54035714D01*
X185821428Y-53321428D02*
X185821428Y-54821428D01*
X185250000Y-54821428D01*
X185107142Y-54750000D01*
X185035714Y-54678571D01*
X184964285Y-54535714D01*
X184964285Y-54321428D01*
X185035714Y-54178571D01*
X185107142Y-54107142D01*
X185250000Y-54035714D01*
X185821428Y-54035714D01*
X142203571Y-120250000D02*
X142917857Y-120250000D01*
X142060714Y-120678571D02*
X142560714Y-119178571D01*
X143060714Y-120678571D01*
X143560714Y-120678571D02*
X143560714Y-119178571D01*
X144060714Y-120250000D01*
X144560714Y-119178571D01*
X144560714Y-120678571D01*
X145275000Y-120678571D02*
X145275000Y-119178571D01*
X145846428Y-119178571D01*
X145989285Y-119250000D01*
X146060714Y-119321428D01*
X146132142Y-119464285D01*
X146132142Y-119678571D01*
X146060714Y-119821428D01*
X145989285Y-119892857D01*
X145846428Y-119964285D01*
X145275000Y-119964285D01*
X146703571Y-119321428D02*
X146775000Y-119250000D01*
X146917857Y-119178571D01*
X147275000Y-119178571D01*
X147417857Y-119250000D01*
X147489285Y-119321428D01*
X147560714Y-119464285D01*
X147560714Y-119607142D01*
X147489285Y-119821428D01*
X146632142Y-120678571D01*
X147560714Y-120678571D01*
X147846428Y-120821428D02*
X148989285Y-120821428D01*
X149203571Y-119178571D02*
X150203571Y-120678571D01*
X150203571Y-119178571D02*
X149203571Y-120678571D01*
X151489285Y-120678571D02*
X150775000Y-120678571D01*
X150775000Y-119178571D01*
X152846428Y-120678571D02*
X152346428Y-119964285D01*
X151989285Y-120678571D02*
X151989285Y-119178571D01*
X152560714Y-119178571D01*
X152703571Y-119250000D01*
X152775000Y-119321428D01*
X152846428Y-119464285D01*
X152846428Y-119678571D01*
X152775000Y-119821428D01*
X152703571Y-119892857D01*
X152560714Y-119964285D01*
X151989285Y-119964285D01*
X185153571Y-120250000D02*
X185867857Y-120250000D01*
X185010714Y-120678571D02*
X185510714Y-119178571D01*
X186010714Y-120678571D01*
X186510714Y-120678571D02*
X186510714Y-119178571D01*
X187010714Y-120250000D01*
X187510714Y-119178571D01*
X187510714Y-120678571D01*
X188225000Y-120678571D02*
X188225000Y-119178571D01*
X188796428Y-119178571D01*
X188939285Y-119250000D01*
X189010714Y-119321428D01*
X189082142Y-119464285D01*
X189082142Y-119678571D01*
X189010714Y-119821428D01*
X188939285Y-119892857D01*
X188796428Y-119964285D01*
X188225000Y-119964285D01*
X190510714Y-120678571D02*
X189653571Y-120678571D01*
X190082142Y-120678571D02*
X190082142Y-119178571D01*
X189939285Y-119392857D01*
X189796428Y-119535714D01*
X189653571Y-119607142D01*
X190796428Y-120821428D02*
X191939285Y-120821428D01*
X192153571Y-119178571D02*
X193153571Y-120678571D01*
X193153571Y-119178571D02*
X192153571Y-120678571D01*
X194439285Y-120678571D02*
X193725000Y-120678571D01*
X193725000Y-119178571D01*
X195796428Y-120678571D02*
X195296428Y-119964285D01*
X194939285Y-120678571D02*
X194939285Y-119178571D01*
X195510714Y-119178571D01*
X195653571Y-119250000D01*
X195725000Y-119321428D01*
X195796428Y-119464285D01*
X195796428Y-119678571D01*
X195725000Y-119821428D01*
X195653571Y-119892857D01*
X195510714Y-119964285D01*
X194939285Y-119964285D01*
X175142857Y-120678571D02*
X175428571Y-120678571D01*
X175571428Y-120607142D01*
X175642857Y-120535714D01*
X175785714Y-120321428D01*
X175857142Y-120035714D01*
X175857142Y-119464285D01*
X175785714Y-119321428D01*
X175714285Y-119250000D01*
X175571428Y-119178571D01*
X175285714Y-119178571D01*
X175142857Y-119250000D01*
X175071428Y-119321428D01*
X175000000Y-119464285D01*
X175000000Y-119821428D01*
X175071428Y-119964285D01*
X175142857Y-120035714D01*
X175285714Y-120107142D01*
X175571428Y-120107142D01*
X175714285Y-120035714D01*
X175785714Y-119964285D01*
X175857142Y-119821428D01*
X176285714Y-119178571D02*
X176785714Y-120678571D01*
X177285714Y-119178571D01*
X177785714Y-120107142D02*
X178928571Y-120107142D01*
X178357142Y-120678571D02*
X178357142Y-119535714D01*
D11*
%TO.C,REF\u002A\u002A*%
X133666666Y-117602380D02*
X133333333Y-117126190D01*
X133095238Y-117602380D02*
X133095238Y-116602380D01*
X133476190Y-116602380D01*
X133571428Y-116650000D01*
X133619047Y-116697619D01*
X133666666Y-116792857D01*
X133666666Y-116935714D01*
X133619047Y-117030952D01*
X133571428Y-117078571D01*
X133476190Y-117126190D01*
X133095238Y-117126190D01*
X134095238Y-117078571D02*
X134428571Y-117078571D01*
X134571428Y-117602380D02*
X134095238Y-117602380D01*
X134095238Y-116602380D01*
X134571428Y-116602380D01*
X135333333Y-117078571D02*
X135000000Y-117078571D01*
X135000000Y-117602380D02*
X135000000Y-116602380D01*
X135476190Y-116602380D01*
X136000000Y-116602380D02*
X136000000Y-116840476D01*
X135761904Y-116745238D02*
X136000000Y-116840476D01*
X136238095Y-116745238D01*
X135857142Y-117030952D02*
X136000000Y-116840476D01*
X136142857Y-117030952D01*
X136761904Y-116602380D02*
X136761904Y-116840476D01*
X136523809Y-116745238D02*
X136761904Y-116840476D01*
X137000000Y-116745238D01*
X136619047Y-117030952D02*
X136761904Y-116840476D01*
X136904761Y-117030952D01*
%TO.C,R11*%
X165382380Y-97162857D02*
X164906190Y-97496190D01*
X165382380Y-97734285D02*
X164382380Y-97734285D01*
X164382380Y-97353333D01*
X164430000Y-97258095D01*
X164477619Y-97210476D01*
X164572857Y-97162857D01*
X164715714Y-97162857D01*
X164810952Y-97210476D01*
X164858571Y-97258095D01*
X164906190Y-97353333D01*
X164906190Y-97734285D01*
X165382380Y-96210476D02*
X165382380Y-96781904D01*
X165382380Y-96496190D02*
X164382380Y-96496190D01*
X164525238Y-96591428D01*
X164620476Y-96686666D01*
X164668095Y-96781904D01*
X165382380Y-95258095D02*
X165382380Y-95829523D01*
X165382380Y-95543809D02*
X164382380Y-95543809D01*
X164525238Y-95639047D01*
X164620476Y-95734285D01*
X164668095Y-95829523D01*
%TO.C,REF\u002A\u002A*%
X133666666Y-49602380D02*
X133333333Y-49126190D01*
X133095238Y-49602380D02*
X133095238Y-48602380D01*
X133476190Y-48602380D01*
X133571428Y-48650000D01*
X133619047Y-48697619D01*
X133666666Y-48792857D01*
X133666666Y-48935714D01*
X133619047Y-49030952D01*
X133571428Y-49078571D01*
X133476190Y-49126190D01*
X133095238Y-49126190D01*
X134095238Y-49078571D02*
X134428571Y-49078571D01*
X134571428Y-49602380D02*
X134095238Y-49602380D01*
X134095238Y-48602380D01*
X134571428Y-48602380D01*
X135333333Y-49078571D02*
X135000000Y-49078571D01*
X135000000Y-49602380D02*
X135000000Y-48602380D01*
X135476190Y-48602380D01*
X136000000Y-48602380D02*
X136000000Y-48840476D01*
X135761904Y-48745238D02*
X136000000Y-48840476D01*
X136238095Y-48745238D01*
X135857142Y-49030952D02*
X136000000Y-48840476D01*
X136142857Y-49030952D01*
X136761904Y-48602380D02*
X136761904Y-48840476D01*
X136523809Y-48745238D02*
X136761904Y-48840476D01*
X137000000Y-48745238D01*
X136619047Y-49030952D02*
X136761904Y-48840476D01*
X136904761Y-49030952D01*
%TO.C,R5*%
X205768380Y-96686666D02*
X205292190Y-97020000D01*
X205768380Y-97258095D02*
X204768380Y-97258095D01*
X204768380Y-96877142D01*
X204816000Y-96781904D01*
X204863619Y-96734285D01*
X204958857Y-96686666D01*
X205101714Y-96686666D01*
X205196952Y-96734285D01*
X205244571Y-96781904D01*
X205292190Y-96877142D01*
X205292190Y-97258095D01*
X204768380Y-95781904D02*
X204768380Y-96258095D01*
X205244571Y-96305714D01*
X205196952Y-96258095D01*
X205149333Y-96162857D01*
X205149333Y-95924761D01*
X205196952Y-95829523D01*
X205244571Y-95781904D01*
X205339809Y-95734285D01*
X205577904Y-95734285D01*
X205673142Y-95781904D01*
X205720761Y-95829523D01*
X205768380Y-95924761D01*
X205768380Y-96162857D01*
X205720761Y-96258095D01*
X205673142Y-96305714D01*
%TO.C,D7*%
X139436380Y-64738095D02*
X138436380Y-64738095D01*
X138436380Y-64500000D01*
X138484000Y-64357142D01*
X138579238Y-64261904D01*
X138674476Y-64214285D01*
X138864952Y-64166666D01*
X139007809Y-64166666D01*
X139198285Y-64214285D01*
X139293523Y-64261904D01*
X139388761Y-64357142D01*
X139436380Y-64500000D01*
X139436380Y-64738095D01*
X138436380Y-63833333D02*
X138436380Y-63166666D01*
X139436380Y-63595238D01*
X138306380Y-77223904D02*
X137306380Y-77223904D01*
X138306380Y-76652476D02*
X137734952Y-77081047D01*
X137306380Y-76652476D02*
X137877809Y-77223904D01*
%TO.C,K1*%
X195301904Y-78732380D02*
X195301904Y-77732380D01*
X195873333Y-78732380D02*
X195444761Y-78160952D01*
X195873333Y-77732380D02*
X195301904Y-78303809D01*
X196825714Y-78732380D02*
X196254285Y-78732380D01*
X196540000Y-78732380D02*
X196540000Y-77732380D01*
X196444761Y-77875238D01*
X196349523Y-77970476D01*
X196254285Y-78018095D01*
%TO.C,R10*%
X147856380Y-104782857D02*
X147380190Y-105116190D01*
X147856380Y-105354285D02*
X146856380Y-105354285D01*
X146856380Y-104973333D01*
X146904000Y-104878095D01*
X146951619Y-104830476D01*
X147046857Y-104782857D01*
X147189714Y-104782857D01*
X147284952Y-104830476D01*
X147332571Y-104878095D01*
X147380190Y-104973333D01*
X147380190Y-105354285D01*
X147856380Y-103830476D02*
X147856380Y-104401904D01*
X147856380Y-104116190D02*
X146856380Y-104116190D01*
X146999238Y-104211428D01*
X147094476Y-104306666D01*
X147142095Y-104401904D01*
X146856380Y-103211428D02*
X146856380Y-103116190D01*
X146904000Y-103020952D01*
X146951619Y-102973333D01*
X147046857Y-102925714D01*
X147237333Y-102878095D01*
X147475428Y-102878095D01*
X147665904Y-102925714D01*
X147761142Y-102973333D01*
X147808761Y-103020952D01*
X147856380Y-103116190D01*
X147856380Y-103211428D01*
X147808761Y-103306666D01*
X147761142Y-103354285D01*
X147665904Y-103401904D01*
X147475428Y-103449523D01*
X147237333Y-103449523D01*
X147046857Y-103401904D01*
X146951619Y-103354285D01*
X146904000Y-103306666D01*
X146856380Y-103211428D01*
%TO.C,R8*%
X144436380Y-61626666D02*
X143960190Y-61960000D01*
X144436380Y-62198095D02*
X143436380Y-62198095D01*
X143436380Y-61817142D01*
X143484000Y-61721904D01*
X143531619Y-61674285D01*
X143626857Y-61626666D01*
X143769714Y-61626666D01*
X143864952Y-61674285D01*
X143912571Y-61721904D01*
X143960190Y-61817142D01*
X143960190Y-62198095D01*
X143864952Y-61055238D02*
X143817333Y-61150476D01*
X143769714Y-61198095D01*
X143674476Y-61245714D01*
X143626857Y-61245714D01*
X143531619Y-61198095D01*
X143484000Y-61150476D01*
X143436380Y-61055238D01*
X143436380Y-60864761D01*
X143484000Y-60769523D01*
X143531619Y-60721904D01*
X143626857Y-60674285D01*
X143674476Y-60674285D01*
X143769714Y-60721904D01*
X143817333Y-60769523D01*
X143864952Y-60864761D01*
X143864952Y-61055238D01*
X143912571Y-61150476D01*
X143960190Y-61198095D01*
X144055428Y-61245714D01*
X144245904Y-61245714D01*
X144341142Y-61198095D01*
X144388761Y-61150476D01*
X144436380Y-61055238D01*
X144436380Y-60864761D01*
X144388761Y-60769523D01*
X144341142Y-60721904D01*
X144245904Y-60674285D01*
X144055428Y-60674285D01*
X143960190Y-60721904D01*
X143912571Y-60769523D01*
X143864952Y-60864761D01*
%TO.C,D3*%
X205518380Y-85828095D02*
X204518380Y-85828095D01*
X204518380Y-85590000D01*
X204566000Y-85447142D01*
X204661238Y-85351904D01*
X204756476Y-85304285D01*
X204946952Y-85256666D01*
X205089809Y-85256666D01*
X205280285Y-85304285D01*
X205375523Y-85351904D01*
X205470761Y-85447142D01*
X205518380Y-85590000D01*
X205518380Y-85828095D01*
X204518380Y-84923333D02*
X204518380Y-84304285D01*
X204899333Y-84637619D01*
X204899333Y-84494761D01*
X204946952Y-84399523D01*
X204994571Y-84351904D01*
X205089809Y-84304285D01*
X205327904Y-84304285D01*
X205423142Y-84351904D01*
X205470761Y-84399523D01*
X205518380Y-84494761D01*
X205518380Y-84780476D01*
X205470761Y-84875714D01*
X205423142Y-84923333D01*
X205198380Y-81541904D02*
X204198380Y-81541904D01*
X205198380Y-80970476D02*
X204626952Y-81399047D01*
X204198380Y-80970476D02*
X204769809Y-81541904D01*
%TO.C,K3*%
X154915904Y-78732380D02*
X154915904Y-77732380D01*
X155487333Y-78732380D02*
X155058761Y-78160952D01*
X155487333Y-77732380D02*
X154915904Y-78303809D01*
X155820666Y-77732380D02*
X156439714Y-77732380D01*
X156106380Y-78113333D01*
X156249238Y-78113333D01*
X156344476Y-78160952D01*
X156392095Y-78208571D01*
X156439714Y-78303809D01*
X156439714Y-78541904D01*
X156392095Y-78637142D01*
X156344476Y-78684761D01*
X156249238Y-78732380D01*
X155963523Y-78732380D01*
X155868285Y-78684761D01*
X155820666Y-78637142D01*
%TO.C,D4*%
X203468380Y-64738095D02*
X202468380Y-64738095D01*
X202468380Y-64500000D01*
X202516000Y-64357142D01*
X202611238Y-64261904D01*
X202706476Y-64214285D01*
X202896952Y-64166666D01*
X203039809Y-64166666D01*
X203230285Y-64214285D01*
X203325523Y-64261904D01*
X203420761Y-64357142D01*
X203468380Y-64500000D01*
X203468380Y-64738095D01*
X202801714Y-63309523D02*
X203468380Y-63309523D01*
X202420761Y-63547619D02*
X203135047Y-63785714D01*
X203135047Y-63166666D01*
X201598380Y-74683904D02*
X200598380Y-74683904D01*
X201598380Y-74112476D02*
X201026952Y-74541047D01*
X200598380Y-74112476D02*
X201169809Y-74683904D01*
%TO.C,R1*%
X198468380Y-61626666D02*
X197992190Y-61960000D01*
X198468380Y-62198095D02*
X197468380Y-62198095D01*
X197468380Y-61817142D01*
X197516000Y-61721904D01*
X197563619Y-61674285D01*
X197658857Y-61626666D01*
X197801714Y-61626666D01*
X197896952Y-61674285D01*
X197944571Y-61721904D01*
X197992190Y-61817142D01*
X197992190Y-62198095D01*
X198468380Y-60674285D02*
X198468380Y-61245714D01*
X198468380Y-60960000D02*
X197468380Y-60960000D01*
X197611238Y-61055238D01*
X197706476Y-61150476D01*
X197754095Y-61245714D01*
%TO.C,R2*%
X185436380Y-61626666D02*
X184960190Y-61960000D01*
X185436380Y-62198095D02*
X184436380Y-62198095D01*
X184436380Y-61817142D01*
X184484000Y-61721904D01*
X184531619Y-61674285D01*
X184626857Y-61626666D01*
X184769714Y-61626666D01*
X184864952Y-61674285D01*
X184912571Y-61721904D01*
X184960190Y-61817142D01*
X184960190Y-62198095D01*
X184531619Y-61245714D02*
X184484000Y-61198095D01*
X184436380Y-61102857D01*
X184436380Y-60864761D01*
X184484000Y-60769523D01*
X184531619Y-60721904D01*
X184626857Y-60674285D01*
X184722095Y-60674285D01*
X184864952Y-60721904D01*
X185436380Y-61293333D01*
X185436380Y-60674285D01*
%TO.C,D9*%
X165132380Y-85828095D02*
X164132380Y-85828095D01*
X164132380Y-85590000D01*
X164180000Y-85447142D01*
X164275238Y-85351904D01*
X164370476Y-85304285D01*
X164560952Y-85256666D01*
X164703809Y-85256666D01*
X164894285Y-85304285D01*
X164989523Y-85351904D01*
X165084761Y-85447142D01*
X165132380Y-85590000D01*
X165132380Y-85828095D01*
X165132380Y-84780476D02*
X165132380Y-84590000D01*
X165084761Y-84494761D01*
X165037142Y-84447142D01*
X164894285Y-84351904D01*
X164703809Y-84304285D01*
X164322857Y-84304285D01*
X164227619Y-84351904D01*
X164180000Y-84399523D01*
X164132380Y-84494761D01*
X164132380Y-84685238D01*
X164180000Y-84780476D01*
X164227619Y-84828095D01*
X164322857Y-84875714D01*
X164560952Y-84875714D01*
X164656190Y-84828095D01*
X164703809Y-84780476D01*
X164751428Y-84685238D01*
X164751428Y-84494761D01*
X164703809Y-84399523D01*
X164656190Y-84351904D01*
X164560952Y-84304285D01*
X164812380Y-81541904D02*
X163812380Y-81541904D01*
X164812380Y-80970476D02*
X164240952Y-81399047D01*
X163812380Y-80970476D02*
X164383809Y-81541904D01*
%TO.C,D1*%
X193468380Y-64738095D02*
X192468380Y-64738095D01*
X192468380Y-64500000D01*
X192516000Y-64357142D01*
X192611238Y-64261904D01*
X192706476Y-64214285D01*
X192896952Y-64166666D01*
X193039809Y-64166666D01*
X193230285Y-64214285D01*
X193325523Y-64261904D01*
X193420761Y-64357142D01*
X193468380Y-64500000D01*
X193468380Y-64738095D01*
X193468380Y-63214285D02*
X193468380Y-63785714D01*
X193468380Y-63500000D02*
X192468380Y-63500000D01*
X192611238Y-63595238D01*
X192706476Y-63690476D01*
X192754095Y-63785714D01*
X191392380Y-77223904D02*
X190392380Y-77223904D01*
X191392380Y-76652476D02*
X190820952Y-77081047D01*
X190392380Y-76652476D02*
X190963809Y-77223904D01*
%TO.C,R4*%
X188242380Y-104306666D02*
X187766190Y-104640000D01*
X188242380Y-104878095D02*
X187242380Y-104878095D01*
X187242380Y-104497142D01*
X187290000Y-104401904D01*
X187337619Y-104354285D01*
X187432857Y-104306666D01*
X187575714Y-104306666D01*
X187670952Y-104354285D01*
X187718571Y-104401904D01*
X187766190Y-104497142D01*
X187766190Y-104878095D01*
X187575714Y-103449523D02*
X188242380Y-103449523D01*
X187194761Y-103687619D02*
X187909047Y-103925714D01*
X187909047Y-103306666D01*
%TO.C,D2*%
X180436380Y-64738095D02*
X179436380Y-64738095D01*
X179436380Y-64500000D01*
X179484000Y-64357142D01*
X179579238Y-64261904D01*
X179674476Y-64214285D01*
X179864952Y-64166666D01*
X180007809Y-64166666D01*
X180198285Y-64214285D01*
X180293523Y-64261904D01*
X180388761Y-64357142D01*
X180436380Y-64500000D01*
X180436380Y-64738095D01*
X179531619Y-63785714D02*
X179484000Y-63738095D01*
X179436380Y-63642857D01*
X179436380Y-63404761D01*
X179484000Y-63309523D01*
X179531619Y-63261904D01*
X179626857Y-63214285D01*
X179722095Y-63214285D01*
X179864952Y-63261904D01*
X180436380Y-63833333D01*
X180436380Y-63214285D01*
X178692380Y-77223904D02*
X177692380Y-77223904D01*
X178692380Y-76652476D02*
X178120952Y-77081047D01*
X177692380Y-76652476D02*
X178263809Y-77223904D01*
%TO.C,C5*%
X136719333Y-113977142D02*
X136671714Y-114024761D01*
X136528857Y-114072380D01*
X136433619Y-114072380D01*
X136290761Y-114024761D01*
X136195523Y-113929523D01*
X136147904Y-113834285D01*
X136100285Y-113643809D01*
X136100285Y-113500952D01*
X136147904Y-113310476D01*
X136195523Y-113215238D01*
X136290761Y-113120000D01*
X136433619Y-113072380D01*
X136528857Y-113072380D01*
X136671714Y-113120000D01*
X136719333Y-113167619D01*
X137624095Y-113072380D02*
X137147904Y-113072380D01*
X137100285Y-113548571D01*
X137147904Y-113500952D01*
X137243142Y-113453333D01*
X137481238Y-113453333D01*
X137576476Y-113500952D01*
X137624095Y-113548571D01*
X137671714Y-113643809D01*
X137671714Y-113881904D01*
X137624095Y-113977142D01*
X137576476Y-114024761D01*
X137481238Y-114072380D01*
X137243142Y-114072380D01*
X137147904Y-114024761D01*
X137100285Y-113977142D01*
%TO.C,J4*%
X142122380Y-50333333D02*
X142836666Y-50333333D01*
X142979523Y-50380952D01*
X143074761Y-50476190D01*
X143122380Y-50619047D01*
X143122380Y-50714285D01*
X142455714Y-49428571D02*
X143122380Y-49428571D01*
X142074761Y-49666666D02*
X142789047Y-49904761D01*
X142789047Y-49285714D01*
%TO.C,D12*%
X135436380Y-65214285D02*
X134436380Y-65214285D01*
X134436380Y-64976190D01*
X134484000Y-64833333D01*
X134579238Y-64738095D01*
X134674476Y-64690476D01*
X134864952Y-64642857D01*
X135007809Y-64642857D01*
X135198285Y-64690476D01*
X135293523Y-64738095D01*
X135388761Y-64833333D01*
X135436380Y-64976190D01*
X135436380Y-65214285D01*
X135436380Y-63690476D02*
X135436380Y-64261904D01*
X135436380Y-63976190D02*
X134436380Y-63976190D01*
X134579238Y-64071428D01*
X134674476Y-64166666D01*
X134722095Y-64261904D01*
X134531619Y-63309523D02*
X134484000Y-63261904D01*
X134436380Y-63166666D01*
X134436380Y-62928571D01*
X134484000Y-62833333D01*
X134531619Y-62785714D01*
X134626857Y-62738095D01*
X134722095Y-62738095D01*
X134864952Y-62785714D01*
X135436380Y-63357142D01*
X135436380Y-62738095D01*
X134288380Y-74683904D02*
X133288380Y-74683904D01*
X134288380Y-74112476D02*
X133716952Y-74541047D01*
X133288380Y-74112476D02*
X133859809Y-74683904D01*
%TO.C,D10*%
X162468380Y-65214285D02*
X161468380Y-65214285D01*
X161468380Y-64976190D01*
X161516000Y-64833333D01*
X161611238Y-64738095D01*
X161706476Y-64690476D01*
X161896952Y-64642857D01*
X162039809Y-64642857D01*
X162230285Y-64690476D01*
X162325523Y-64738095D01*
X162420761Y-64833333D01*
X162468380Y-64976190D01*
X162468380Y-65214285D01*
X162468380Y-63690476D02*
X162468380Y-64261904D01*
X162468380Y-63976190D02*
X161468380Y-63976190D01*
X161611238Y-64071428D01*
X161706476Y-64166666D01*
X161754095Y-64261904D01*
X161468380Y-63071428D02*
X161468380Y-62976190D01*
X161516000Y-62880952D01*
X161563619Y-62833333D01*
X161658857Y-62785714D01*
X161849333Y-62738095D01*
X162087428Y-62738095D01*
X162277904Y-62785714D01*
X162373142Y-62833333D01*
X162420761Y-62880952D01*
X162468380Y-62976190D01*
X162468380Y-63071428D01*
X162420761Y-63166666D01*
X162373142Y-63214285D01*
X162277904Y-63261904D01*
X162087428Y-63309523D01*
X161849333Y-63309523D01*
X161658857Y-63261904D01*
X161563619Y-63214285D01*
X161516000Y-63166666D01*
X161468380Y-63071428D01*
X161212380Y-74683904D02*
X160212380Y-74683904D01*
X161212380Y-74112476D02*
X160640952Y-74541047D01*
X160212380Y-74112476D02*
X160783809Y-74683904D01*
%TO.C,J3*%
X194782380Y-50333333D02*
X195496666Y-50333333D01*
X195639523Y-50380952D01*
X195734761Y-50476190D01*
X195782380Y-50619047D01*
X195782380Y-50714285D01*
X194782380Y-49952380D02*
X194782380Y-49333333D01*
X195163333Y-49666666D01*
X195163333Y-49523809D01*
X195210952Y-49428571D01*
X195258571Y-49380952D01*
X195353809Y-49333333D01*
X195591904Y-49333333D01*
X195687142Y-49380952D01*
X195734761Y-49428571D01*
X195782380Y-49523809D01*
X195782380Y-49809523D01*
X195734761Y-49904761D01*
X195687142Y-49952380D01*
%TO.C,K2*%
X182601904Y-78732380D02*
X182601904Y-77732380D01*
X183173333Y-78732380D02*
X182744761Y-78160952D01*
X183173333Y-77732380D02*
X182601904Y-78303809D01*
X183554285Y-77827619D02*
X183601904Y-77780000D01*
X183697142Y-77732380D01*
X183935238Y-77732380D01*
X184030476Y-77780000D01*
X184078095Y-77827619D01*
X184125714Y-77922857D01*
X184125714Y-78018095D01*
X184078095Y-78160952D01*
X183506666Y-78732380D01*
X184125714Y-78732380D01*
%TO.C,R9*%
X155476380Y-104306666D02*
X155000190Y-104640000D01*
X155476380Y-104878095D02*
X154476380Y-104878095D01*
X154476380Y-104497142D01*
X154524000Y-104401904D01*
X154571619Y-104354285D01*
X154666857Y-104306666D01*
X154809714Y-104306666D01*
X154904952Y-104354285D01*
X154952571Y-104401904D01*
X155000190Y-104497142D01*
X155000190Y-104878095D01*
X155476380Y-103830476D02*
X155476380Y-103640000D01*
X155428761Y-103544761D01*
X155381142Y-103497142D01*
X155238285Y-103401904D01*
X155047809Y-103354285D01*
X154666857Y-103354285D01*
X154571619Y-103401904D01*
X154524000Y-103449523D01*
X154476380Y-103544761D01*
X154476380Y-103735238D01*
X154524000Y-103830476D01*
X154571619Y-103878095D01*
X154666857Y-103925714D01*
X154904952Y-103925714D01*
X155000190Y-103878095D01*
X155047809Y-103830476D01*
X155095428Y-103735238D01*
X155095428Y-103544761D01*
X155047809Y-103449523D01*
X155000190Y-103401904D01*
X154904952Y-103354285D01*
%TO.C,D5*%
X174436380Y-86056095D02*
X173436380Y-86056095D01*
X173436380Y-85818000D01*
X173484000Y-85675142D01*
X173579238Y-85579904D01*
X173674476Y-85532285D01*
X173864952Y-85484666D01*
X174007809Y-85484666D01*
X174198285Y-85532285D01*
X174293523Y-85579904D01*
X174388761Y-85675142D01*
X174436380Y-85818000D01*
X174436380Y-86056095D01*
X173436380Y-84579904D02*
X173436380Y-85056095D01*
X173912571Y-85103714D01*
X173864952Y-85056095D01*
X173817333Y-84960857D01*
X173817333Y-84722761D01*
X173864952Y-84627523D01*
X173912571Y-84579904D01*
X174007809Y-84532285D01*
X174245904Y-84532285D01*
X174341142Y-84579904D01*
X174388761Y-84627523D01*
X174436380Y-84722761D01*
X174436380Y-84960857D01*
X174388761Y-85056095D01*
X174341142Y-85103714D01*
X174436380Y-81541904D02*
X173436380Y-81541904D01*
X174436380Y-80970476D02*
X173864952Y-81399047D01*
X173436380Y-80970476D02*
X174007809Y-81541904D01*
%TO.C,D11*%
X138208380Y-86304285D02*
X137208380Y-86304285D01*
X137208380Y-86066190D01*
X137256000Y-85923333D01*
X137351238Y-85828095D01*
X137446476Y-85780476D01*
X137636952Y-85732857D01*
X137779809Y-85732857D01*
X137970285Y-85780476D01*
X138065523Y-85828095D01*
X138160761Y-85923333D01*
X138208380Y-86066190D01*
X138208380Y-86304285D01*
X138208380Y-84780476D02*
X138208380Y-85351904D01*
X138208380Y-85066190D02*
X137208380Y-85066190D01*
X137351238Y-85161428D01*
X137446476Y-85256666D01*
X137494095Y-85351904D01*
X138208380Y-83828095D02*
X138208380Y-84399523D01*
X138208380Y-84113809D02*
X137208380Y-84113809D01*
X137351238Y-84209047D01*
X137446476Y-84304285D01*
X137494095Y-84399523D01*
X133436380Y-81579904D02*
X132436380Y-81579904D01*
X133436380Y-81008476D02*
X132864952Y-81437047D01*
X132436380Y-81008476D02*
X133007809Y-81579904D01*
%TO.C,J5*%
X167782380Y-124333333D02*
X168496666Y-124333333D01*
X168639523Y-124380952D01*
X168734761Y-124476190D01*
X168782380Y-124619047D01*
X168782380Y-124714285D01*
X167782380Y-123380952D02*
X167782380Y-123857142D01*
X168258571Y-123904761D01*
X168210952Y-123857142D01*
X168163333Y-123761904D01*
X168163333Y-123523809D01*
X168210952Y-123428571D01*
X168258571Y-123380952D01*
X168353809Y-123333333D01*
X168591904Y-123333333D01*
X168687142Y-123380952D01*
X168734761Y-123428571D01*
X168782380Y-123523809D01*
X168782380Y-123761904D01*
X168734761Y-123857142D01*
X168687142Y-123904761D01*
%TO.C,R3*%
X195862380Y-104306666D02*
X195386190Y-104640000D01*
X195862380Y-104878095D02*
X194862380Y-104878095D01*
X194862380Y-104497142D01*
X194910000Y-104401904D01*
X194957619Y-104354285D01*
X195052857Y-104306666D01*
X195195714Y-104306666D01*
X195290952Y-104354285D01*
X195338571Y-104401904D01*
X195386190Y-104497142D01*
X195386190Y-104878095D01*
X194862380Y-103973333D02*
X194862380Y-103354285D01*
X195243333Y-103687619D01*
X195243333Y-103544761D01*
X195290952Y-103449523D01*
X195338571Y-103401904D01*
X195433809Y-103354285D01*
X195671904Y-103354285D01*
X195767142Y-103401904D01*
X195814761Y-103449523D01*
X195862380Y-103544761D01*
X195862380Y-103830476D01*
X195814761Y-103925714D01*
X195767142Y-103973333D01*
%TO.C,D6*%
X176436380Y-64738095D02*
X175436380Y-64738095D01*
X175436380Y-64500000D01*
X175484000Y-64357142D01*
X175579238Y-64261904D01*
X175674476Y-64214285D01*
X175864952Y-64166666D01*
X176007809Y-64166666D01*
X176198285Y-64214285D01*
X176293523Y-64261904D01*
X176388761Y-64357142D01*
X176436380Y-64500000D01*
X176436380Y-64738095D01*
X175436380Y-63309523D02*
X175436380Y-63500000D01*
X175484000Y-63595238D01*
X175531619Y-63642857D01*
X175674476Y-63738095D01*
X175864952Y-63785714D01*
X176245904Y-63785714D01*
X176341142Y-63738095D01*
X176388761Y-63690476D01*
X176436380Y-63595238D01*
X176436380Y-63404761D01*
X176388761Y-63309523D01*
X176341142Y-63261904D01*
X176245904Y-63214285D01*
X176007809Y-63214285D01*
X175912571Y-63261904D01*
X175864952Y-63309523D01*
X175817333Y-63404761D01*
X175817333Y-63595238D01*
X175864952Y-63690476D01*
X175912571Y-63738095D01*
X176007809Y-63785714D01*
X174928380Y-74683904D02*
X173928380Y-74683904D01*
X174928380Y-74112476D02*
X174356952Y-74541047D01*
X173928380Y-74112476D02*
X174499809Y-74683904D01*
%TO.C,J1*%
X194782380Y-124333333D02*
X195496666Y-124333333D01*
X195639523Y-124380952D01*
X195734761Y-124476190D01*
X195782380Y-124619047D01*
X195782380Y-124714285D01*
X195782380Y-123333333D02*
X195782380Y-123904761D01*
X195782380Y-123619047D02*
X194782380Y-123619047D01*
X194925238Y-123714285D01*
X195020476Y-123809523D01*
X195068095Y-123904761D01*
%TO.C,LutrarmyMic*%
X173785714Y-52263529D02*
X174261904Y-52263529D01*
X174261904Y-53263529D01*
X173023809Y-52930195D02*
X173023809Y-52263529D01*
X173452380Y-52930195D02*
X173452380Y-52406386D01*
X173404761Y-52311148D01*
X173309523Y-52263529D01*
X173166666Y-52263529D01*
X173071428Y-52311148D01*
X173023809Y-52358767D01*
X172690476Y-52930195D02*
X172309523Y-52930195D01*
X172547619Y-53263529D02*
X172547619Y-52406386D01*
X172500000Y-52311148D01*
X172404761Y-52263529D01*
X172309523Y-52263529D01*
X171976190Y-52263529D02*
X171976190Y-52930195D01*
X171976190Y-52739719D02*
X171928571Y-52834957D01*
X171880952Y-52882576D01*
X171785714Y-52930195D01*
X171690476Y-52930195D01*
X170928571Y-52263529D02*
X170928571Y-52787338D01*
X170976190Y-52882576D01*
X171071428Y-52930195D01*
X171261904Y-52930195D01*
X171357142Y-52882576D01*
X170928571Y-52311148D02*
X171023809Y-52263529D01*
X171261904Y-52263529D01*
X171357142Y-52311148D01*
X171404761Y-52406386D01*
X171404761Y-52501624D01*
X171357142Y-52596862D01*
X171261904Y-52644481D01*
X171023809Y-52644481D01*
X170928571Y-52692100D01*
X170452380Y-52263529D02*
X170452380Y-52930195D01*
X170452380Y-52739719D02*
X170404761Y-52834957D01*
X170357142Y-52882576D01*
X170261904Y-52930195D01*
X170166666Y-52930195D01*
X169833333Y-52263529D02*
X169833333Y-52930195D01*
X169833333Y-52834957D02*
X169785714Y-52882576D01*
X169690476Y-52930195D01*
X169547619Y-52930195D01*
X169452380Y-52882576D01*
X169404761Y-52787338D01*
X169404761Y-52263529D01*
X169404761Y-52787338D02*
X169357142Y-52882576D01*
X169261904Y-52930195D01*
X169119047Y-52930195D01*
X169023809Y-52882576D01*
X168976190Y-52787338D01*
X168976190Y-52263529D01*
X168595238Y-52930195D02*
X168357142Y-52263529D01*
X168119047Y-52930195D02*
X168357142Y-52263529D01*
X168452380Y-52025433D01*
X168500000Y-51977814D01*
X168595238Y-51930195D01*
X167738095Y-52263529D02*
X167738095Y-53263529D01*
X167404761Y-52549243D01*
X167071428Y-53263529D01*
X167071428Y-52263529D01*
X166595238Y-52263529D02*
X166595238Y-52930195D01*
X166595238Y-53263529D02*
X166642857Y-53215910D01*
X166595238Y-53168290D01*
X166547619Y-53215910D01*
X166595238Y-53263529D01*
X166595238Y-53168290D01*
X165690476Y-52311148D02*
X165785714Y-52263529D01*
X165976190Y-52263529D01*
X166071428Y-52311148D01*
X166119047Y-52358767D01*
X166166666Y-52454005D01*
X166166666Y-52739719D01*
X166119047Y-52834957D01*
X166071428Y-52882576D01*
X165976190Y-52930195D01*
X165785714Y-52930195D01*
X165690476Y-52882576D01*
X174666666Y-55858767D02*
X174714285Y-55811148D01*
X174857142Y-55763529D01*
X174952380Y-55763529D01*
X175095238Y-55811148D01*
X175190476Y-55906386D01*
X175238095Y-56001624D01*
X175285714Y-56192100D01*
X175285714Y-56334957D01*
X175238095Y-56525433D01*
X175190476Y-56620671D01*
X175095238Y-56715910D01*
X174952380Y-56763529D01*
X174857142Y-56763529D01*
X174714285Y-56715910D01*
X174666666Y-56668290D01*
X173666666Y-55858767D02*
X173714285Y-55811148D01*
X173857142Y-55763529D01*
X173952380Y-55763529D01*
X174095238Y-55811148D01*
X174190476Y-55906386D01*
X174238095Y-56001624D01*
X174285714Y-56192100D01*
X174285714Y-56334957D01*
X174238095Y-56525433D01*
X174190476Y-56620671D01*
X174095238Y-56715910D01*
X173952380Y-56763529D01*
X173857142Y-56763529D01*
X173714285Y-56715910D01*
X173666666Y-56668290D01*
X172142857Y-56287338D02*
X172000000Y-56239719D01*
X171952380Y-56192100D01*
X171904761Y-56096862D01*
X171904761Y-55954005D01*
X171952380Y-55858767D01*
X172000000Y-55811148D01*
X172095238Y-55763529D01*
X172476190Y-55763529D01*
X172476190Y-56763529D01*
X172142857Y-56763529D01*
X172047619Y-56715910D01*
X172000000Y-56668290D01*
X171952380Y-56573052D01*
X171952380Y-56477814D01*
X172000000Y-56382576D01*
X172047619Y-56334957D01*
X172142857Y-56287338D01*
X172476190Y-56287338D01*
X171285714Y-56239719D02*
X171285714Y-55763529D01*
X171619047Y-56763529D02*
X171285714Y-56239719D01*
X170952380Y-56763529D01*
X170619047Y-56144481D02*
X169857142Y-56144481D01*
X169380952Y-55763529D02*
X169380952Y-56763529D01*
X168809523Y-55763529D01*
X168809523Y-56763529D01*
X167761904Y-55858767D02*
X167809523Y-55811148D01*
X167952380Y-55763529D01*
X168047619Y-55763529D01*
X168190476Y-55811148D01*
X168285714Y-55906386D01*
X168333333Y-56001624D01*
X168380952Y-56192100D01*
X168380952Y-56334957D01*
X168333333Y-56525433D01*
X168285714Y-56620671D01*
X168190476Y-56715910D01*
X168047619Y-56763529D01*
X167952380Y-56763529D01*
X167809523Y-56715910D01*
X167761904Y-56668290D01*
X167333333Y-56144481D02*
X166571428Y-56144481D01*
X166142857Y-55811148D02*
X166000000Y-55763529D01*
X165761904Y-55763529D01*
X165666666Y-55811148D01*
X165619047Y-55858767D01*
X165571428Y-55954005D01*
X165571428Y-56049243D01*
X165619047Y-56144481D01*
X165666666Y-56192100D01*
X165761904Y-56239719D01*
X165952380Y-56287338D01*
X166047619Y-56334957D01*
X166095238Y-56382576D01*
X166142857Y-56477814D01*
X166142857Y-56573052D01*
X166095238Y-56668290D01*
X166047619Y-56715910D01*
X165952380Y-56763529D01*
X165714285Y-56763529D01*
X165571428Y-56715910D01*
X165190476Y-56049243D02*
X164714285Y-56049243D01*
X165285714Y-55763529D02*
X164952380Y-56763529D01*
X164619047Y-55763529D01*
X178333333Y-54870195D02*
X178333333Y-54060671D01*
X178380952Y-53965433D01*
X178428571Y-53917814D01*
X178523809Y-53870195D01*
X178666666Y-53870195D01*
X178761904Y-53917814D01*
X178333333Y-54251148D02*
X178428571Y-54203529D01*
X178619047Y-54203529D01*
X178714285Y-54251148D01*
X178761904Y-54298767D01*
X178809523Y-54394005D01*
X178809523Y-54679719D01*
X178761904Y-54774957D01*
X178714285Y-54822576D01*
X178619047Y-54870195D01*
X178428571Y-54870195D01*
X178333333Y-54822576D01*
X177857142Y-54203529D02*
X177857142Y-54870195D01*
X177857142Y-55203529D02*
X177904761Y-55155910D01*
X177857142Y-55108290D01*
X177809523Y-55155910D01*
X177857142Y-55203529D01*
X177857142Y-55108290D01*
X177523809Y-54870195D02*
X177142857Y-54870195D01*
X177380952Y-55203529D02*
X177380952Y-54346386D01*
X177333333Y-54251148D01*
X177238095Y-54203529D01*
X177142857Y-54203529D01*
X176809523Y-54203529D02*
X176809523Y-55203529D01*
X176380952Y-54203529D02*
X176380952Y-54727338D01*
X176428571Y-54822576D01*
X176523809Y-54870195D01*
X176666666Y-54870195D01*
X176761904Y-54822576D01*
X176809523Y-54774957D01*
X175476190Y-54870195D02*
X175476190Y-54203529D01*
X175904761Y-54870195D02*
X175904761Y-54346386D01*
X175857142Y-54251148D01*
X175761904Y-54203529D01*
X175619047Y-54203529D01*
X175523809Y-54251148D01*
X175476190Y-54298767D01*
X175000000Y-54203529D02*
X175000000Y-55203529D01*
X175000000Y-54822576D02*
X174904761Y-54870195D01*
X174714285Y-54870195D01*
X174619047Y-54822576D01*
X174571428Y-54774957D01*
X174523809Y-54679719D01*
X174523809Y-54394005D01*
X174571428Y-54298767D01*
X174619047Y-54251148D01*
X174714285Y-54203529D01*
X174904761Y-54203529D01*
X175000000Y-54251148D01*
X174095238Y-54298767D02*
X174047619Y-54251148D01*
X174095238Y-54203529D01*
X174142857Y-54251148D01*
X174095238Y-54298767D01*
X174095238Y-54203529D01*
X173190476Y-54251148D02*
X173285714Y-54203529D01*
X173476190Y-54203529D01*
X173571428Y-54251148D01*
X173619047Y-54298767D01*
X173666666Y-54394005D01*
X173666666Y-54679719D01*
X173619047Y-54774957D01*
X173571428Y-54822576D01*
X173476190Y-54870195D01*
X173285714Y-54870195D01*
X173190476Y-54822576D01*
X172619047Y-54203529D02*
X172714285Y-54251148D01*
X172761904Y-54298767D01*
X172809523Y-54394005D01*
X172809523Y-54679719D01*
X172761904Y-54774957D01*
X172714285Y-54822576D01*
X172619047Y-54870195D01*
X172476190Y-54870195D01*
X172380952Y-54822576D01*
X172333333Y-54774957D01*
X172285714Y-54679719D01*
X172285714Y-54394005D01*
X172333333Y-54298767D01*
X172380952Y-54251148D01*
X172476190Y-54203529D01*
X172619047Y-54203529D01*
X171857142Y-54203529D02*
X171857142Y-54870195D01*
X171857142Y-54774957D02*
X171809523Y-54822576D01*
X171714285Y-54870195D01*
X171571428Y-54870195D01*
X171476190Y-54822576D01*
X171428571Y-54727338D01*
X171428571Y-54203529D01*
X171428571Y-54727338D02*
X171380952Y-54822576D01*
X171285714Y-54870195D01*
X171142857Y-54870195D01*
X171047619Y-54822576D01*
X171000000Y-54727338D01*
X171000000Y-54203529D01*
X169809523Y-55251148D02*
X170666666Y-53965433D01*
X169047619Y-54203529D02*
X169047619Y-55203529D01*
X169047619Y-54251148D02*
X169142857Y-54203529D01*
X169333333Y-54203529D01*
X169428571Y-54251148D01*
X169476190Y-54298767D01*
X169523809Y-54394005D01*
X169523809Y-54679719D01*
X169476190Y-54774957D01*
X169428571Y-54822576D01*
X169333333Y-54870195D01*
X169142857Y-54870195D01*
X169047619Y-54822576D01*
X168142857Y-54203529D02*
X168142857Y-54727338D01*
X168190476Y-54822576D01*
X168285714Y-54870195D01*
X168476190Y-54870195D01*
X168571428Y-54822576D01*
X168142857Y-54251148D02*
X168238095Y-54203529D01*
X168476190Y-54203529D01*
X168571428Y-54251148D01*
X168619047Y-54346386D01*
X168619047Y-54441624D01*
X168571428Y-54536862D01*
X168476190Y-54584481D01*
X168238095Y-54584481D01*
X168142857Y-54632100D01*
X167761904Y-54870195D02*
X167523809Y-54203529D01*
X167285714Y-54870195D01*
X166904761Y-54203529D02*
X166904761Y-54870195D01*
X166904761Y-55203529D02*
X166952380Y-55155910D01*
X166904761Y-55108290D01*
X166857142Y-55155910D01*
X166904761Y-55203529D01*
X166904761Y-55108290D01*
X166000000Y-54203529D02*
X166000000Y-55203529D01*
X166000000Y-54251148D02*
X166095238Y-54203529D01*
X166285714Y-54203529D01*
X166380952Y-54251148D01*
X166428571Y-54298767D01*
X166476190Y-54394005D01*
X166476190Y-54679719D01*
X166428571Y-54774957D01*
X166380952Y-54822576D01*
X166285714Y-54870195D01*
X166095238Y-54870195D01*
X166000000Y-54822576D01*
X165000000Y-54203529D02*
X165571428Y-54203529D01*
X165285714Y-54203529D02*
X165285714Y-55203529D01*
X165380952Y-55060671D01*
X165476190Y-54965433D01*
X165571428Y-54917814D01*
X164047619Y-54203529D02*
X164619047Y-54203529D01*
X164333333Y-54203529D02*
X164333333Y-55203529D01*
X164428571Y-55060671D01*
X164523809Y-54965433D01*
X164619047Y-54917814D01*
X163428571Y-55203529D02*
X163333333Y-55203529D01*
X163238095Y-55155910D01*
X163190476Y-55108290D01*
X163142857Y-55013052D01*
X163095238Y-54822576D01*
X163095238Y-54584481D01*
X163142857Y-54394005D01*
X163190476Y-54298767D01*
X163238095Y-54251148D01*
X163333333Y-54203529D01*
X163428571Y-54203529D01*
X163523809Y-54251148D01*
X163571428Y-54298767D01*
X163619047Y-54394005D01*
X163666666Y-54584481D01*
X163666666Y-54822576D01*
X163619047Y-55013052D01*
X163571428Y-55108290D01*
X163523809Y-55155910D01*
X163428571Y-55203529D01*
X162142857Y-54203529D02*
X162714285Y-54203529D01*
X162428571Y-54203529D02*
X162428571Y-55203529D01*
X162523809Y-55060671D01*
X162619047Y-54965433D01*
X162714285Y-54917814D01*
X161285714Y-54870195D02*
X161285714Y-54203529D01*
X161523809Y-55251148D02*
X161761904Y-54536862D01*
X161142857Y-54536862D01*
%TO.C,J2*%
X142122380Y-124333333D02*
X142836666Y-124333333D01*
X142979523Y-124380952D01*
X143074761Y-124476190D01*
X143122380Y-124619047D01*
X143122380Y-124714285D01*
X142217619Y-123904761D02*
X142170000Y-123857142D01*
X142122380Y-123761904D01*
X142122380Y-123523809D01*
X142170000Y-123428571D01*
X142217619Y-123380952D01*
X142312857Y-123333333D01*
X142408095Y-123333333D01*
X142550952Y-123380952D01*
X143122380Y-123952380D01*
X143122380Y-123333333D01*
%TO.C,R12*%
X138458380Y-97162857D02*
X137982190Y-97496190D01*
X138458380Y-97734285D02*
X137458380Y-97734285D01*
X137458380Y-97353333D01*
X137506000Y-97258095D01*
X137553619Y-97210476D01*
X137648857Y-97162857D01*
X137791714Y-97162857D01*
X137886952Y-97210476D01*
X137934571Y-97258095D01*
X137982190Y-97353333D01*
X137982190Y-97734285D01*
X138458380Y-96210476D02*
X138458380Y-96781904D01*
X138458380Y-96496190D02*
X137458380Y-96496190D01*
X137601238Y-96591428D01*
X137696476Y-96686666D01*
X137744095Y-96781904D01*
X137553619Y-95829523D02*
X137506000Y-95781904D01*
X137458380Y-95686666D01*
X137458380Y-95448571D01*
X137506000Y-95353333D01*
X137553619Y-95305714D01*
X137648857Y-95258095D01*
X137744095Y-95258095D01*
X137886952Y-95305714D01*
X138458380Y-95877142D01*
X138458380Y-95258095D01*
%TO.C,REF\u002A\u002A*%
X201666666Y-117602380D02*
X201333333Y-117126190D01*
X201095238Y-117602380D02*
X201095238Y-116602380D01*
X201476190Y-116602380D01*
X201571428Y-116650000D01*
X201619047Y-116697619D01*
X201666666Y-116792857D01*
X201666666Y-116935714D01*
X201619047Y-117030952D01*
X201571428Y-117078571D01*
X201476190Y-117126190D01*
X201095238Y-117126190D01*
X202095238Y-117078571D02*
X202428571Y-117078571D01*
X202571428Y-117602380D02*
X202095238Y-117602380D01*
X202095238Y-116602380D01*
X202571428Y-116602380D01*
X203333333Y-117078571D02*
X203000000Y-117078571D01*
X203000000Y-117602380D02*
X203000000Y-116602380D01*
X203476190Y-116602380D01*
X204000000Y-116602380D02*
X204000000Y-116840476D01*
X203761904Y-116745238D02*
X204000000Y-116840476D01*
X204238095Y-116745238D01*
X203857142Y-117030952D02*
X204000000Y-116840476D01*
X204142857Y-117030952D01*
X204761904Y-116602380D02*
X204761904Y-116840476D01*
X204523809Y-116745238D02*
X204761904Y-116840476D01*
X205000000Y-116745238D01*
X204619047Y-117030952D02*
X204761904Y-116840476D01*
X204904761Y-117030952D01*
%TO.C,K4*%
X142215904Y-78732380D02*
X142215904Y-77732380D01*
X142787333Y-78732380D02*
X142358761Y-78160952D01*
X142787333Y-77732380D02*
X142215904Y-78303809D01*
X143644476Y-78065714D02*
X143644476Y-78732380D01*
X143406380Y-77684761D02*
X143168285Y-78399047D01*
X143787333Y-78399047D01*
%TO.C,C3*%
X165375142Y-112200666D02*
X165422761Y-112248285D01*
X165470380Y-112391142D01*
X165470380Y-112486380D01*
X165422761Y-112629238D01*
X165327523Y-112724476D01*
X165232285Y-112772095D01*
X165041809Y-112819714D01*
X164898952Y-112819714D01*
X164708476Y-112772095D01*
X164613238Y-112724476D01*
X164518000Y-112629238D01*
X164470380Y-112486380D01*
X164470380Y-112391142D01*
X164518000Y-112248285D01*
X164565619Y-112200666D01*
X164470380Y-111867333D02*
X164470380Y-111248285D01*
X164851333Y-111581619D01*
X164851333Y-111438761D01*
X164898952Y-111343523D01*
X164946571Y-111295904D01*
X165041809Y-111248285D01*
X165279904Y-111248285D01*
X165375142Y-111295904D01*
X165422761Y-111343523D01*
X165470380Y-111438761D01*
X165470380Y-111724476D01*
X165422761Y-111819714D01*
X165375142Y-111867333D01*
%TO.C,R7*%
X157468380Y-61626666D02*
X156992190Y-61960000D01*
X157468380Y-62198095D02*
X156468380Y-62198095D01*
X156468380Y-61817142D01*
X156516000Y-61721904D01*
X156563619Y-61674285D01*
X156658857Y-61626666D01*
X156801714Y-61626666D01*
X156896952Y-61674285D01*
X156944571Y-61721904D01*
X156992190Y-61817142D01*
X156992190Y-62198095D01*
X156468380Y-61293333D02*
X156468380Y-60626666D01*
X157468380Y-61055238D01*
%TO.C,R6*%
X174436380Y-96686666D02*
X173960190Y-97020000D01*
X174436380Y-97258095D02*
X173436380Y-97258095D01*
X173436380Y-96877142D01*
X173484000Y-96781904D01*
X173531619Y-96734285D01*
X173626857Y-96686666D01*
X173769714Y-96686666D01*
X173864952Y-96734285D01*
X173912571Y-96781904D01*
X173960190Y-96877142D01*
X173960190Y-97258095D01*
X173436380Y-95829523D02*
X173436380Y-96020000D01*
X173484000Y-96115238D01*
X173531619Y-96162857D01*
X173674476Y-96258095D01*
X173864952Y-96305714D01*
X174245904Y-96305714D01*
X174341142Y-96258095D01*
X174388761Y-96210476D01*
X174436380Y-96115238D01*
X174436380Y-95924761D01*
X174388761Y-95829523D01*
X174341142Y-95781904D01*
X174245904Y-95734285D01*
X174007809Y-95734285D01*
X173912571Y-95781904D01*
X173864952Y-95829523D01*
X173817333Y-95924761D01*
X173817333Y-96115238D01*
X173864952Y-96210476D01*
X173912571Y-96258095D01*
X174007809Y-96305714D01*
%TO.C,REF\u002A\u002A*%
X201666666Y-49602380D02*
X201333333Y-49126190D01*
X201095238Y-49602380D02*
X201095238Y-48602380D01*
X201476190Y-48602380D01*
X201571428Y-48650000D01*
X201619047Y-48697619D01*
X201666666Y-48792857D01*
X201666666Y-48935714D01*
X201619047Y-49030952D01*
X201571428Y-49078571D01*
X201476190Y-49126190D01*
X201095238Y-49126190D01*
X202095238Y-49078571D02*
X202428571Y-49078571D01*
X202571428Y-49602380D02*
X202095238Y-49602380D01*
X202095238Y-48602380D01*
X202571428Y-48602380D01*
X203333333Y-49078571D02*
X203000000Y-49078571D01*
X203000000Y-49602380D02*
X203000000Y-48602380D01*
X203476190Y-48602380D01*
X204000000Y-48602380D02*
X204000000Y-48840476D01*
X203761904Y-48745238D02*
X204000000Y-48840476D01*
X204238095Y-48745238D01*
X203857142Y-49030952D02*
X204000000Y-48840476D01*
X204142857Y-49030952D01*
X204761904Y-48602380D02*
X204761904Y-48840476D01*
X204523809Y-48745238D02*
X204761904Y-48840476D01*
X205000000Y-48745238D01*
X204619047Y-49030952D02*
X204761904Y-48840476D01*
X204904761Y-49030952D01*
%TO.C,C1*%
X201529333Y-105177142D02*
X201481714Y-105224761D01*
X201338857Y-105272380D01*
X201243619Y-105272380D01*
X201100761Y-105224761D01*
X201005523Y-105129523D01*
X200957904Y-105034285D01*
X200910285Y-104843809D01*
X200910285Y-104700952D01*
X200957904Y-104510476D01*
X201005523Y-104415238D01*
X201100761Y-104320000D01*
X201243619Y-104272380D01*
X201338857Y-104272380D01*
X201481714Y-104320000D01*
X201529333Y-104367619D01*
X202481714Y-105272380D02*
X201910285Y-105272380D01*
X202196000Y-105272380D02*
X202196000Y-104272380D01*
X202100761Y-104415238D01*
X202005523Y-104510476D01*
X201910285Y-104558095D01*
%TO.C,D8*%
X152468380Y-64738095D02*
X151468380Y-64738095D01*
X151468380Y-64500000D01*
X151516000Y-64357142D01*
X151611238Y-64261904D01*
X151706476Y-64214285D01*
X151896952Y-64166666D01*
X152039809Y-64166666D01*
X152230285Y-64214285D01*
X152325523Y-64261904D01*
X152420761Y-64357142D01*
X152468380Y-64500000D01*
X152468380Y-64738095D01*
X151896952Y-63595238D02*
X151849333Y-63690476D01*
X151801714Y-63738095D01*
X151706476Y-63785714D01*
X151658857Y-63785714D01*
X151563619Y-63738095D01*
X151516000Y-63690476D01*
X151468380Y-63595238D01*
X151468380Y-63404761D01*
X151516000Y-63309523D01*
X151563619Y-63261904D01*
X151658857Y-63214285D01*
X151706476Y-63214285D01*
X151801714Y-63261904D01*
X151849333Y-63309523D01*
X151896952Y-63404761D01*
X151896952Y-63595238D01*
X151944571Y-63690476D01*
X151992190Y-63738095D01*
X152087428Y-63785714D01*
X152277904Y-63785714D01*
X152373142Y-63738095D01*
X152420761Y-63690476D01*
X152468380Y-63595238D01*
X152468380Y-63404761D01*
X152420761Y-63309523D01*
X152373142Y-63261904D01*
X152277904Y-63214285D01*
X152087428Y-63214285D01*
X151992190Y-63261904D01*
X151944571Y-63309523D01*
X151896952Y-63404761D01*
X151006380Y-77223904D02*
X150006380Y-77223904D01*
X151006380Y-76652476D02*
X150434952Y-77081047D01*
X150006380Y-76652476D02*
X150577809Y-77223904D01*
%TO.C,C4*%
X161143333Y-105177142D02*
X161095714Y-105224761D01*
X160952857Y-105272380D01*
X160857619Y-105272380D01*
X160714761Y-105224761D01*
X160619523Y-105129523D01*
X160571904Y-105034285D01*
X160524285Y-104843809D01*
X160524285Y-104700952D01*
X160571904Y-104510476D01*
X160619523Y-104415238D01*
X160714761Y-104320000D01*
X160857619Y-104272380D01*
X160952857Y-104272380D01*
X161095714Y-104320000D01*
X161143333Y-104367619D01*
X162000476Y-104605714D02*
X162000476Y-105272380D01*
X161762380Y-104224761D02*
X161524285Y-104939047D01*
X162143333Y-104939047D01*
%TO.C,C2*%
X177359333Y-113977142D02*
X177311714Y-114024761D01*
X177168857Y-114072380D01*
X177073619Y-114072380D01*
X176930761Y-114024761D01*
X176835523Y-113929523D01*
X176787904Y-113834285D01*
X176740285Y-113643809D01*
X176740285Y-113500952D01*
X176787904Y-113310476D01*
X176835523Y-113215238D01*
X176930761Y-113120000D01*
X177073619Y-113072380D01*
X177168857Y-113072380D01*
X177311714Y-113120000D01*
X177359333Y-113167619D01*
X177740285Y-113167619D02*
X177787904Y-113120000D01*
X177883142Y-113072380D01*
X178121238Y-113072380D01*
X178216476Y-113120000D01*
X178264095Y-113167619D01*
X178311714Y-113262857D01*
X178311714Y-113358095D01*
X178264095Y-113500952D01*
X177692666Y-114072380D01*
X178311714Y-114072380D01*
%TO.C,J6*%
X180147380Y-124333333D02*
X180861666Y-124333333D01*
X181004523Y-124380952D01*
X181099761Y-124476190D01*
X181147380Y-124619047D01*
X181147380Y-124714285D01*
X180147380Y-123428571D02*
X180147380Y-123619047D01*
X180195000Y-123714285D01*
X180242619Y-123761904D01*
X180385476Y-123857142D01*
X180575952Y-123904761D01*
X180956904Y-123904761D01*
X181052142Y-123857142D01*
X181099761Y-123809523D01*
X181147380Y-123714285D01*
X181147380Y-123523809D01*
X181099761Y-123428571D01*
X181052142Y-123380952D01*
X180956904Y-123333333D01*
X180718809Y-123333333D01*
X180623571Y-123380952D01*
X180575952Y-123428571D01*
X180528333Y-123523809D01*
X180528333Y-123714285D01*
X180575952Y-123809523D01*
X180623571Y-123857142D01*
X180718809Y-123904761D01*
D12*
%TO.C,R11*%
X162560000Y-100560000D02*
X162560000Y-99790000D01*
X161190000Y-99790000D02*
X163930000Y-99790000D01*
X163930000Y-93250000D02*
X161190000Y-93250000D01*
X163930000Y-99790000D02*
X163930000Y-93250000D01*
X161190000Y-93250000D02*
X161190000Y-99790000D01*
X162560000Y-92480000D02*
X162560000Y-93250000D01*
%TO.C,R5*%
X201576000Y-93250000D02*
X201576000Y-99790000D01*
X201576000Y-99790000D02*
X204316000Y-99790000D01*
X204316000Y-99790000D02*
X204316000Y-93250000D01*
X202946000Y-92480000D02*
X202946000Y-93250000D01*
X204316000Y-93250000D02*
X201576000Y-93250000D01*
X202946000Y-100560000D02*
X202946000Y-99790000D01*
%TO.C,D7*%
X139954000Y-68142000D02*
X139954000Y-69162000D01*
X141424000Y-69162000D02*
X138484000Y-69162000D01*
X138484000Y-74602000D02*
X141424000Y-74602000D01*
X138484000Y-73582000D02*
X141424000Y-73582000D01*
X141424000Y-74602000D02*
X141424000Y-69162000D01*
X138484000Y-73822000D02*
X141424000Y-73822000D01*
X138484000Y-69162000D02*
X138484000Y-74602000D01*
X138484000Y-73702000D02*
X141424000Y-73702000D01*
X139954000Y-75622000D02*
X139954000Y-74602000D01*
%TO.C,K1*%
X199470000Y-79990000D02*
X199470000Y-95270000D01*
X195870000Y-80680000D02*
X195170000Y-80680000D01*
X195870000Y-81880000D02*
X195870000Y-80680000D01*
X195170000Y-80680000D02*
X195170000Y-81880000D01*
X195170000Y-81480000D02*
X195870000Y-81080000D01*
X195170000Y-81880000D02*
X195870000Y-81880000D01*
X191470000Y-82110000D02*
X191470000Y-79770000D01*
X199470000Y-79990000D02*
X191690000Y-79990000D01*
X191470000Y-79770000D02*
X193660000Y-79770000D01*
X199470000Y-95270000D02*
X191690000Y-95270000D01*
X191690000Y-80010000D02*
X191690000Y-95270000D01*
%TO.C,R10*%
X145034000Y-100100000D02*
X145034000Y-100870000D01*
X146404000Y-107410000D02*
X146404000Y-100870000D01*
X143664000Y-107410000D02*
X146404000Y-107410000D01*
X145034000Y-108180000D02*
X145034000Y-107410000D01*
X143664000Y-100870000D02*
X143664000Y-107410000D01*
X146404000Y-100870000D02*
X143664000Y-100870000D01*
%TO.C,R8*%
X145034000Y-73382000D02*
X145034000Y-72612000D01*
X146404000Y-72612000D02*
X146404000Y-66072000D01*
X145034000Y-65302000D02*
X145034000Y-66072000D01*
X143664000Y-66072000D02*
X143664000Y-72612000D01*
X143664000Y-72612000D02*
X146404000Y-72612000D01*
X146404000Y-66072000D02*
X143664000Y-66072000D01*
%TO.C,D3*%
X204066000Y-83810000D02*
X201826000Y-83810000D01*
X202946000Y-82320000D02*
X202946000Y-82970000D01*
X204066000Y-83690000D02*
X201826000Y-83690000D01*
X202946000Y-87860000D02*
X202946000Y-87210000D01*
X201826000Y-82970000D02*
X201826000Y-87210000D01*
X204066000Y-82970000D02*
X201826000Y-82970000D01*
X201826000Y-87210000D02*
X204066000Y-87210000D01*
X204066000Y-83570000D02*
X201826000Y-83570000D01*
X204066000Y-87210000D02*
X204066000Y-82970000D01*
%TO.C,K3*%
X155484000Y-80680000D02*
X154784000Y-80680000D01*
X159084000Y-95270000D02*
X151304000Y-95270000D01*
X154784000Y-81480000D02*
X155484000Y-81080000D01*
X154784000Y-81880000D02*
X155484000Y-81880000D01*
X155484000Y-81880000D02*
X155484000Y-80680000D01*
X154784000Y-80680000D02*
X154784000Y-81880000D01*
X159084000Y-79990000D02*
X159084000Y-95270000D01*
X159084000Y-79990000D02*
X151304000Y-79990000D01*
X151304000Y-80010000D02*
X151304000Y-95270000D01*
X151084000Y-79770000D02*
X153274000Y-79770000D01*
X151084000Y-82110000D02*
X151084000Y-79770000D01*
%TO.C,D4*%
X202946000Y-73382000D02*
X202946000Y-72732000D01*
X204066000Y-68492000D02*
X201826000Y-68492000D01*
X202946000Y-67842000D02*
X202946000Y-68492000D01*
X201826000Y-68492000D02*
X201826000Y-72732000D01*
X201826000Y-72732000D02*
X204066000Y-72732000D01*
X204066000Y-72732000D02*
X204066000Y-68492000D01*
X201826000Y-72012000D02*
X204066000Y-72012000D01*
X201826000Y-72132000D02*
X204066000Y-72132000D01*
X201826000Y-71892000D02*
X204066000Y-71892000D01*
%TO.C,R1*%
X198120000Y-73382000D02*
X198120000Y-72612000D01*
X198120000Y-65302000D02*
X198120000Y-66072000D01*
X199490000Y-66072000D02*
X196750000Y-66072000D01*
X199490000Y-72612000D02*
X199490000Y-66072000D01*
X196750000Y-66072000D02*
X196750000Y-72612000D01*
X196750000Y-72612000D02*
X199490000Y-72612000D01*
%TO.C,R2*%
X184050000Y-72612000D02*
X186790000Y-72612000D01*
X185420000Y-73382000D02*
X185420000Y-72612000D01*
X186790000Y-72612000D02*
X186790000Y-66072000D01*
X185420000Y-65302000D02*
X185420000Y-66072000D01*
X186790000Y-66072000D02*
X184050000Y-66072000D01*
X184050000Y-66072000D02*
X184050000Y-72612000D01*
%TO.C,D9*%
X163680000Y-82970000D02*
X161440000Y-82970000D01*
X163680000Y-87210000D02*
X163680000Y-82970000D01*
X162560000Y-82320000D02*
X162560000Y-82970000D01*
X163680000Y-83690000D02*
X161440000Y-83690000D01*
X161440000Y-87210000D02*
X163680000Y-87210000D01*
X163680000Y-83570000D02*
X161440000Y-83570000D01*
X161440000Y-82970000D02*
X161440000Y-87210000D01*
X163680000Y-83810000D02*
X161440000Y-83810000D01*
X162560000Y-87860000D02*
X162560000Y-87210000D01*
%TO.C,D1*%
X191570000Y-69162000D02*
X191570000Y-74602000D01*
X194510000Y-74602000D02*
X194510000Y-69162000D01*
X191570000Y-73702000D02*
X194510000Y-73702000D01*
X194510000Y-69162000D02*
X191570000Y-69162000D01*
X191570000Y-74602000D02*
X194510000Y-74602000D01*
X193040000Y-75622000D02*
X193040000Y-74602000D01*
X191570000Y-73582000D02*
X194510000Y-73582000D01*
X191570000Y-73822000D02*
X194510000Y-73822000D01*
X193040000Y-68142000D02*
X193040000Y-69162000D01*
%TO.C,R4*%
X184050000Y-107410000D02*
X186790000Y-107410000D01*
X186790000Y-107410000D02*
X186790000Y-100870000D01*
X184050000Y-100870000D02*
X184050000Y-107410000D01*
X185420000Y-100100000D02*
X185420000Y-100870000D01*
X185420000Y-108180000D02*
X185420000Y-107410000D01*
X186790000Y-100870000D02*
X184050000Y-100870000D01*
%TO.C,D2*%
X181810000Y-74602000D02*
X181810000Y-69162000D01*
X181810000Y-69162000D02*
X178870000Y-69162000D01*
X180340000Y-75622000D02*
X180340000Y-74602000D01*
X178870000Y-69162000D02*
X178870000Y-74602000D01*
X178870000Y-73582000D02*
X181810000Y-73582000D01*
X178870000Y-73702000D02*
X181810000Y-73702000D01*
X178870000Y-73822000D02*
X181810000Y-73822000D01*
X180340000Y-68142000D02*
X180340000Y-69162000D01*
X178870000Y-74602000D02*
X181810000Y-74602000D01*
%TO.C,C5*%
X136085000Y-108180000D02*
X136085000Y-106089000D01*
X136646000Y-108180000D02*
X136646000Y-105998000D01*
X135885000Y-108180000D02*
X135885000Y-106146000D01*
X133885000Y-110482000D02*
X133885000Y-107958000D01*
X135285000Y-108180000D02*
X135285000Y-106408000D01*
X136406000Y-108180000D02*
X136406000Y-106025000D01*
X135365000Y-112076000D02*
X135365000Y-110260000D01*
X135845000Y-108180000D02*
X135845000Y-106159000D01*
X135525000Y-108180000D02*
X135525000Y-106286000D01*
X136566000Y-108180000D02*
X136566000Y-106005000D01*
X135085000Y-108180000D02*
X135085000Y-106530000D01*
X136406000Y-112415000D02*
X136406000Y-110260000D01*
X135445000Y-108180000D02*
X135445000Y-106324000D01*
X135645000Y-112206000D02*
X135645000Y-110260000D01*
X136606000Y-108180000D02*
X136606000Y-106002000D01*
X135165000Y-111962000D02*
X135165000Y-110260000D01*
X135165000Y-108180000D02*
X135165000Y-106478000D01*
X136446000Y-108180000D02*
X136446000Y-106019000D01*
X135245000Y-108180000D02*
X135245000Y-106430000D01*
X135125000Y-111936000D02*
X135125000Y-110260000D01*
X136045000Y-112341000D02*
X136045000Y-110260000D01*
X135405000Y-108180000D02*
X135405000Y-106344000D01*
X136806000Y-112450000D02*
X136806000Y-105990000D01*
X136206000Y-112379000D02*
X136206000Y-110260000D01*
X134725000Y-111636000D02*
X134725000Y-110260000D01*
X135485000Y-112136000D02*
X135485000Y-110260000D01*
X134525000Y-111444000D02*
X134525000Y-106996000D01*
X134645000Y-111563000D02*
X134645000Y-110260000D01*
X136606000Y-112438000D02*
X136606000Y-110260000D01*
X135285000Y-112032000D02*
X135285000Y-110260000D01*
X134725000Y-108180000D02*
X134725000Y-106804000D01*
X135885000Y-112294000D02*
X135885000Y-110260000D01*
X135765000Y-112253000D02*
X135765000Y-110260000D01*
X136125000Y-112361000D02*
X136125000Y-110260000D01*
X135405000Y-112096000D02*
X135405000Y-110260000D01*
X135365000Y-108180000D02*
X135365000Y-106364000D01*
X134365000Y-111264000D02*
X134365000Y-107176000D01*
X136366000Y-108180000D02*
X136366000Y-106031000D01*
X134485000Y-111402000D02*
X134485000Y-107038000D01*
X136486000Y-112426000D02*
X136486000Y-110260000D01*
X133725000Y-110022000D02*
X133725000Y-108418000D01*
X134445000Y-111357000D02*
X134445000Y-107083000D01*
X135565000Y-112172000D02*
X135565000Y-110260000D01*
X135205000Y-111986000D02*
X135205000Y-110260000D01*
X134925000Y-108180000D02*
X134925000Y-106642000D01*
X136286000Y-112395000D02*
X136286000Y-110260000D01*
X133685000Y-109853000D02*
X133685000Y-108587000D01*
X135005000Y-108180000D02*
X135005000Y-106584000D01*
X135765000Y-108180000D02*
X135765000Y-106187000D01*
X134805000Y-108180000D02*
X134805000Y-106736000D01*
X136246000Y-108180000D02*
X136246000Y-106053000D01*
X136366000Y-112409000D02*
X136366000Y-110260000D01*
X136085000Y-112351000D02*
X136085000Y-110260000D01*
X136646000Y-112442000D02*
X136646000Y-110260000D01*
X136726000Y-112447000D02*
X136726000Y-105993000D01*
X134245000Y-111110000D02*
X134245000Y-107330000D01*
X133965000Y-110652000D02*
X133965000Y-107788000D01*
X136326000Y-112402000D02*
X136326000Y-110260000D01*
X136486000Y-108180000D02*
X136486000Y-106014000D01*
X136005000Y-108180000D02*
X136005000Y-106110000D01*
X136526000Y-112431000D02*
X136526000Y-110260000D01*
X134685000Y-111600000D02*
X134685000Y-110260000D01*
X136846000Y-112450000D02*
X136846000Y-105990000D01*
X136446000Y-112421000D02*
X136446000Y-110260000D01*
X135045000Y-108180000D02*
X135045000Y-106556000D01*
X134845000Y-108180000D02*
X134845000Y-106704000D01*
X135445000Y-112116000D02*
X135445000Y-110260000D01*
X135805000Y-108180000D02*
X135805000Y-106173000D01*
X135325000Y-108180000D02*
X135325000Y-106386000D01*
X134325000Y-111215000D02*
X134325000Y-107225000D01*
X134685000Y-108180000D02*
X134685000Y-106840000D01*
X136526000Y-108180000D02*
X136526000Y-106009000D01*
X135725000Y-112238000D02*
X135725000Y-110260000D01*
X136886000Y-112450000D02*
X136886000Y-105990000D01*
X136326000Y-108180000D02*
X136326000Y-106038000D01*
X135605000Y-108180000D02*
X135605000Y-106250000D01*
X134045000Y-110801000D02*
X134045000Y-107639000D01*
X134965000Y-111827000D02*
X134965000Y-110260000D01*
X136165000Y-108180000D02*
X136165000Y-106070000D01*
X136165000Y-112370000D02*
X136165000Y-110260000D01*
X136045000Y-108180000D02*
X136045000Y-106099000D01*
X136686000Y-112444000D02*
X136686000Y-105996000D01*
X134005000Y-110729000D02*
X134005000Y-107711000D01*
X134085000Y-110870000D02*
X134085000Y-107570000D01*
X136125000Y-108180000D02*
X136125000Y-106079000D01*
X134765000Y-111670000D02*
X134765000Y-110260000D01*
X135925000Y-108180000D02*
X135925000Y-106134000D01*
X133765000Y-110160000D02*
X133765000Y-108280000D01*
X135685000Y-112222000D02*
X135685000Y-110260000D01*
X134885000Y-111768000D02*
X134885000Y-110260000D01*
X135125000Y-108180000D02*
X135125000Y-106504000D01*
X134645000Y-108180000D02*
X134645000Y-106877000D01*
X136286000Y-108180000D02*
X136286000Y-106045000D01*
X136766000Y-112448000D02*
X136766000Y-105992000D01*
X134605000Y-111525000D02*
X134605000Y-110260000D01*
X135645000Y-108180000D02*
X135645000Y-106234000D01*
X135605000Y-112190000D02*
X135605000Y-110260000D01*
X134845000Y-111736000D02*
X134845000Y-110260000D01*
X134605000Y-108180000D02*
X134605000Y-106915000D01*
X140071241Y-111374000D02*
X140071241Y-110744000D01*
X135925000Y-112306000D02*
X135925000Y-110260000D01*
X133645000Y-109622000D02*
X133645000Y-108818000D01*
X135085000Y-111910000D02*
X135085000Y-110260000D01*
X134285000Y-111164000D02*
X134285000Y-107276000D01*
X134805000Y-111704000D02*
X134805000Y-110260000D01*
X136566000Y-112435000D02*
X136566000Y-110260000D01*
X134405000Y-111312000D02*
X134405000Y-107128000D01*
X134765000Y-108180000D02*
X134765000Y-106770000D01*
X134885000Y-108180000D02*
X134885000Y-106672000D01*
X135325000Y-112054000D02*
X135325000Y-110260000D01*
X135245000Y-112010000D02*
X135245000Y-110260000D01*
X133805000Y-110279000D02*
X133805000Y-108161000D01*
X133925000Y-110570000D02*
X133925000Y-107870000D01*
X135525000Y-112154000D02*
X135525000Y-110260000D01*
X135205000Y-108180000D02*
X135205000Y-106454000D01*
X134165000Y-110996000D02*
X134165000Y-107444000D01*
X140386241Y-111059000D02*
X139756241Y-111059000D01*
X135965000Y-108180000D02*
X135965000Y-106122000D01*
X134965000Y-108180000D02*
X134965000Y-106613000D01*
X135565000Y-108180000D02*
X135565000Y-106268000D01*
X135845000Y-112281000D02*
X135845000Y-110260000D01*
X136206000Y-108180000D02*
X136206000Y-106061000D01*
X135005000Y-111856000D02*
X135005000Y-110260000D01*
X135685000Y-108180000D02*
X135685000Y-106218000D01*
X134925000Y-111798000D02*
X134925000Y-110260000D01*
X135725000Y-108180000D02*
X135725000Y-106202000D01*
X135045000Y-111884000D02*
X135045000Y-110260000D01*
X135805000Y-112267000D02*
X135805000Y-110260000D01*
X136005000Y-112330000D02*
X136005000Y-110260000D01*
X134125000Y-110934000D02*
X134125000Y-107506000D01*
X133845000Y-110385000D02*
X133845000Y-108055000D01*
X135965000Y-112318000D02*
X135965000Y-110260000D01*
X134205000Y-111054000D02*
X134205000Y-107386000D01*
X135485000Y-108180000D02*
X135485000Y-106304000D01*
X134565000Y-111485000D02*
X134565000Y-106955000D01*
X136246000Y-112387000D02*
X136246000Y-110260000D01*
X140156000Y-109220000D02*
G75*
G03*
X140156000Y-109220000I-3270000J0D01*
G01*
%TO.C,J4*%
X143670000Y-51330000D02*
X143670000Y-50000000D01*
X151410000Y-51330000D02*
X151410000Y-48670000D01*
X146270000Y-51330000D02*
X151410000Y-51330000D01*
X146270000Y-51330000D02*
X146270000Y-48670000D01*
X146270000Y-48670000D02*
X151410000Y-48670000D01*
X145000000Y-51330000D02*
X143670000Y-51330000D01*
%TO.C,D12*%
X135636000Y-73382000D02*
X135636000Y-72732000D01*
X134516000Y-72012000D02*
X136756000Y-72012000D01*
X136756000Y-68492000D02*
X134516000Y-68492000D01*
X134516000Y-68492000D02*
X134516000Y-72732000D01*
X134516000Y-72732000D02*
X136756000Y-72732000D01*
X135636000Y-67842000D02*
X135636000Y-68492000D01*
X136756000Y-72732000D02*
X136756000Y-68492000D01*
X134516000Y-71892000D02*
X136756000Y-71892000D01*
X134516000Y-72132000D02*
X136756000Y-72132000D01*
%TO.C,D10*%
X161440000Y-72012000D02*
X163680000Y-72012000D01*
X161440000Y-71892000D02*
X163680000Y-71892000D01*
X163680000Y-68492000D02*
X161440000Y-68492000D01*
X162560000Y-67842000D02*
X162560000Y-68492000D01*
X161440000Y-68492000D02*
X161440000Y-72732000D01*
X162560000Y-73382000D02*
X162560000Y-72732000D01*
X161440000Y-72732000D02*
X163680000Y-72732000D01*
X163680000Y-72732000D02*
X163680000Y-68492000D01*
X161440000Y-72132000D02*
X163680000Y-72132000D01*
%TO.C,J3*%
X191730000Y-51330000D02*
X186590000Y-51330000D01*
X193000000Y-48670000D02*
X194330000Y-48670000D01*
X191730000Y-48670000D02*
X191730000Y-51330000D01*
X191730000Y-48670000D02*
X186590000Y-48670000D01*
X186590000Y-48670000D02*
X186590000Y-51330000D01*
X194330000Y-48670000D02*
X194330000Y-50000000D01*
%TO.C,K2*%
X178990000Y-80010000D02*
X178990000Y-95270000D01*
X186770000Y-95270000D02*
X178990000Y-95270000D01*
X183170000Y-80680000D02*
X182470000Y-80680000D01*
X182470000Y-81880000D02*
X183170000Y-81880000D01*
X183170000Y-81880000D02*
X183170000Y-80680000D01*
X182470000Y-81480000D02*
X183170000Y-81080000D01*
X178770000Y-79770000D02*
X180960000Y-79770000D01*
X186770000Y-79990000D02*
X178990000Y-79990000D01*
X178770000Y-82110000D02*
X178770000Y-79770000D01*
X186770000Y-79990000D02*
X186770000Y-95270000D01*
X182470000Y-80680000D02*
X182470000Y-81880000D01*
%TO.C,R9*%
X152654000Y-100100000D02*
X152654000Y-100870000D01*
X154024000Y-107410000D02*
X154024000Y-100870000D01*
X152654000Y-108180000D02*
X152654000Y-107410000D01*
X154024000Y-100870000D02*
X151284000Y-100870000D01*
X151284000Y-107410000D02*
X154024000Y-107410000D01*
X151284000Y-100870000D02*
X151284000Y-107410000D01*
%TO.C,D5*%
X176276000Y-87860000D02*
X176276000Y-87210000D01*
X177396000Y-83570000D02*
X175156000Y-83570000D01*
X177396000Y-82970000D02*
X175156000Y-82970000D01*
X175156000Y-82970000D02*
X175156000Y-87210000D01*
X177396000Y-83690000D02*
X175156000Y-83690000D01*
X176276000Y-82320000D02*
X176276000Y-82970000D01*
X175156000Y-87210000D02*
X177396000Y-87210000D01*
X177396000Y-83810000D02*
X175156000Y-83810000D01*
X177396000Y-87210000D02*
X177396000Y-82970000D01*
%TO.C,D11*%
X136756000Y-83570000D02*
X134516000Y-83570000D01*
X135636000Y-82320000D02*
X135636000Y-82970000D01*
X134516000Y-82970000D02*
X134516000Y-87210000D01*
X136756000Y-83810000D02*
X134516000Y-83810000D01*
X136756000Y-83690000D02*
X134516000Y-83690000D01*
X135636000Y-87860000D02*
X135636000Y-87210000D01*
X134516000Y-87210000D02*
X136756000Y-87210000D01*
X136756000Y-87210000D02*
X136756000Y-82970000D01*
X136756000Y-82970000D02*
X134516000Y-82970000D01*
%TO.C,J5*%
X164730000Y-122670000D02*
X164730000Y-125330000D01*
X167330000Y-122670000D02*
X167330000Y-124000000D01*
X166000000Y-122670000D02*
X167330000Y-122670000D01*
X164730000Y-122670000D02*
X162130000Y-122670000D01*
X164730000Y-125330000D02*
X162130000Y-125330000D01*
X162130000Y-122670000D02*
X162130000Y-125330000D01*
%TO.C,R3*%
X193040000Y-100100000D02*
X193040000Y-100870000D01*
X194410000Y-100870000D02*
X191670000Y-100870000D01*
X194410000Y-107410000D02*
X194410000Y-100870000D01*
X191670000Y-100870000D02*
X191670000Y-107410000D01*
X191670000Y-107410000D02*
X194410000Y-107410000D01*
X193040000Y-108180000D02*
X193040000Y-107410000D01*
%TO.C,D6*%
X175156000Y-68492000D02*
X175156000Y-72732000D01*
X176276000Y-67842000D02*
X176276000Y-68492000D01*
X177396000Y-68492000D02*
X175156000Y-68492000D01*
X177396000Y-72732000D02*
X177396000Y-68492000D01*
X175156000Y-71892000D02*
X177396000Y-71892000D01*
X176276000Y-73382000D02*
X176276000Y-72732000D01*
X175156000Y-72012000D02*
X177396000Y-72012000D01*
X175156000Y-72132000D02*
X177396000Y-72132000D01*
X175156000Y-72732000D02*
X177396000Y-72732000D01*
%TO.C,J1*%
X191730000Y-122670000D02*
X191730000Y-125330000D01*
X194330000Y-122670000D02*
X194330000Y-124000000D01*
X191730000Y-125330000D02*
X186590000Y-125330000D01*
X193000000Y-122670000D02*
X194330000Y-122670000D01*
X191730000Y-122670000D02*
X186590000Y-122670000D01*
X186590000Y-122670000D02*
X186590000Y-125330000D01*
%TO.C,LutrarmyMic*%
G36*
X167771247Y-57560698D02*
G01*
X167838557Y-57583268D01*
X167917423Y-57637921D01*
X167967961Y-57714058D01*
X167983400Y-57765170D01*
X167994102Y-57818680D01*
X167902559Y-57818680D01*
X167848100Y-57816851D01*
X167820625Y-57809152D01*
X167811484Y-57792268D01*
X167811015Y-57783584D01*
X167796163Y-57744536D01*
X167758363Y-57720163D01*
X167707747Y-57711657D01*
X167654447Y-57720205D01*
X167608596Y-57746999D01*
X167597965Y-57758571D01*
X167572295Y-57813943D01*
X167560879Y-57887497D01*
X167564675Y-57964254D01*
X167581124Y-58022047D01*
X167620387Y-58070296D01*
X167676352Y-58093937D01*
X167736930Y-58088304D01*
X167744583Y-58085146D01*
X167782176Y-58059930D01*
X167803355Y-58030710D01*
X167802769Y-58006965D01*
X167792617Y-58000100D01*
X167791952Y-57985722D01*
X167810525Y-57957117D01*
X167840286Y-57923110D01*
X167873180Y-57892527D01*
X167901156Y-57874194D01*
X167909257Y-57872266D01*
X167932393Y-57884184D01*
X167968871Y-57914472D01*
X167989637Y-57934784D01*
X168022799Y-57973639D01*
X168030634Y-57994763D01*
X168024399Y-57997723D01*
X168003419Y-58013079D01*
X167976947Y-58052133D01*
X167959310Y-58087489D01*
X167927940Y-58147092D01*
X167891374Y-58184972D01*
X167843206Y-58211711D01*
X167737032Y-58242974D01*
X167635168Y-58240167D01*
X167541665Y-58204050D01*
X167465471Y-58140911D01*
X167416873Y-58073351D01*
X167390233Y-57998026D01*
X167382941Y-57905250D01*
X167386008Y-57845934D01*
X167410318Y-57742048D01*
X167462889Y-57658896D01*
X167541421Y-57598711D01*
X167643615Y-57563725D01*
X167682475Y-57558056D01*
X167771247Y-57560698D01*
G37*
G36*
X169624355Y-58365194D02*
G01*
X169526124Y-58446410D01*
X169418409Y-58499525D01*
X169294009Y-58527301D01*
X169186402Y-58533167D01*
X169048376Y-58523283D01*
X168932112Y-58491330D01*
X168828881Y-58433855D01*
X168738419Y-58355974D01*
X168654569Y-58257019D01*
X168599400Y-58153019D01*
X168569459Y-58035243D01*
X168561226Y-57907991D01*
X168562910Y-57885766D01*
X168687562Y-57885766D01*
X168690019Y-57930318D01*
X168707835Y-58050968D01*
X168746669Y-58149984D01*
X168811016Y-58237403D01*
X168841042Y-58267731D01*
X168912985Y-58329489D01*
X168979853Y-58368847D01*
X169053568Y-58390340D01*
X169146050Y-58398499D01*
X169186402Y-58399046D01*
X169266073Y-58397670D01*
X169322029Y-58391721D01*
X169366219Y-58378764D01*
X169410588Y-58356361D01*
X169418610Y-58351673D01*
X169478089Y-58311557D01*
X169533699Y-58266210D01*
X169551092Y-58249342D01*
X169603194Y-58194539D01*
X169501757Y-58148099D01*
X169400319Y-58101659D01*
X169345577Y-58147722D01*
X169301890Y-58177556D01*
X169263010Y-58193134D01*
X169256480Y-58193785D01*
X169231166Y-58202860D01*
X169222385Y-58235796D01*
X169222126Y-58247372D01*
X169217320Y-58285669D01*
X169196890Y-58299679D01*
X169177471Y-58300958D01*
X169145557Y-58295191D01*
X169133882Y-58270675D01*
X169132815Y-58247372D01*
X169125236Y-58205422D01*
X169105135Y-58193785D01*
X169070881Y-58185925D01*
X169025413Y-58166853D01*
X169022441Y-58165337D01*
X168967428Y-58136888D01*
X169006202Y-58098354D01*
X169044909Y-58072029D01*
X169098820Y-58060918D01*
X169133077Y-58059819D01*
X169184187Y-58056585D01*
X169217141Y-58048331D01*
X169223538Y-58042168D01*
X169208986Y-58029923D01*
X169168249Y-58006828D01*
X169108027Y-57975995D01*
X169035017Y-57940537D01*
X168955918Y-57903566D01*
X168877428Y-57868194D01*
X168806246Y-57837535D01*
X168749070Y-57814699D01*
X168712598Y-57802801D01*
X168706240Y-57801805D01*
X168693528Y-57808595D01*
X168687567Y-57834480D01*
X168687562Y-57885766D01*
X168562910Y-57885766D01*
X168571948Y-57766513D01*
X168605955Y-57647076D01*
X168607628Y-57644162D01*
X168768412Y-57644162D01*
X168778879Y-57661550D01*
X168812107Y-57681540D01*
X168858092Y-57702765D01*
X168911475Y-57725439D01*
X168949654Y-57739889D01*
X168963451Y-57742997D01*
X168973599Y-57725425D01*
X168987510Y-57699262D01*
X169017622Y-57667007D01*
X169064303Y-57639936D01*
X169070310Y-57637622D01*
X169113319Y-57616736D01*
X169130668Y-57589262D01*
X169132815Y-57565021D01*
X169138479Y-57528405D01*
X169161902Y-57515778D01*
X169177471Y-57515023D01*
X169209385Y-57520790D01*
X169221060Y-57545307D01*
X169222126Y-57568610D01*
X169227264Y-57607264D01*
X169247787Y-57621270D01*
X169262316Y-57622263D01*
X169303818Y-57631470D01*
X169354150Y-57654047D01*
X169362828Y-57659105D01*
X169423151Y-57695881D01*
X169372963Y-57748266D01*
X169339249Y-57780701D01*
X169316050Y-57789842D01*
X169290241Y-57779181D01*
X169280395Y-57772883D01*
X169234288Y-57753992D01*
X169185264Y-57750045D01*
X169144838Y-57759911D01*
X169124521Y-57782458D01*
X169123884Y-57788270D01*
X169132652Y-57805001D01*
X169161257Y-57826962D01*
X169213153Y-57856112D01*
X169291792Y-57894408D01*
X169388928Y-57938601D01*
X169493901Y-57985051D01*
X169570662Y-58016621D01*
X169623636Y-58032962D01*
X169657248Y-58033724D01*
X169675922Y-58018559D01*
X169684083Y-57987116D01*
X169686154Y-57939047D01*
X169686269Y-57915122D01*
X169670268Y-57788459D01*
X169624615Y-57674459D01*
X169554024Y-57576525D01*
X169463208Y-57498058D01*
X169356881Y-57442461D01*
X169239757Y-57413137D01*
X169116548Y-57413487D01*
X169021976Y-57435613D01*
X168956386Y-57466362D01*
X168886676Y-57512092D01*
X168824362Y-57564038D01*
X168780960Y-57613441D01*
X168774751Y-57623729D01*
X168768412Y-57644162D01*
X168607628Y-57644162D01*
X168666008Y-57542478D01*
X168729198Y-57470037D01*
X168818751Y-57390489D01*
X168905939Y-57336920D01*
X169001491Y-57304877D01*
X169116141Y-57289906D01*
X169168540Y-57287730D01*
X169287522Y-57289261D01*
X169374213Y-57300140D01*
X169404988Y-57309044D01*
X169513736Y-57364721D01*
X169616441Y-57443115D01*
X169695927Y-57529895D01*
X169755308Y-57624867D01*
X169791719Y-57721220D01*
X169808184Y-57829952D01*
X169808631Y-57915122D01*
X169808762Y-57940174D01*
X169795258Y-58068269D01*
X169763108Y-58174527D01*
X169751457Y-58194539D01*
X169707495Y-58270053D01*
X169624355Y-58365194D01*
G37*
G36*
X172045878Y-57717366D02*
G01*
X172090753Y-57740005D01*
X172117171Y-57763719D01*
X172149767Y-57802497D01*
X172165231Y-57843329D01*
X172169368Y-57902253D01*
X172169384Y-57907991D01*
X172165877Y-57968969D01*
X172151490Y-58010623D01*
X172120417Y-58048989D01*
X172117171Y-58052262D01*
X172074187Y-58087170D01*
X172027557Y-58102104D01*
X171982576Y-58104475D01*
X171913800Y-58097007D01*
X171860039Y-58077525D01*
X171825644Y-58050411D01*
X171814965Y-58020045D01*
X171832352Y-57990810D01*
X171855702Y-57976687D01*
X171894161Y-57966332D01*
X171923730Y-57981487D01*
X171928427Y-57986001D01*
X171961309Y-58011386D01*
X171988659Y-58007000D01*
X172014787Y-57982498D01*
X172040799Y-57930557D01*
X172037996Y-57873764D01*
X172009082Y-57828025D01*
X171981644Y-57807332D01*
X171957843Y-57808575D01*
X171927888Y-57826202D01*
X171881957Y-57845220D01*
X171847050Y-57845215D01*
X171816568Y-57825090D01*
X171814400Y-57797463D01*
X171835385Y-57767313D01*
X171874366Y-57739618D01*
X171926181Y-57719356D01*
X171985614Y-57711507D01*
X172045878Y-57717366D01*
G37*
G36*
X170793997Y-57648989D02*
G01*
X170794636Y-57722759D01*
X170797676Y-57767814D01*
X170804796Y-57791154D01*
X170817678Y-57799782D01*
X170830443Y-57800818D01*
X170848250Y-57803282D01*
X170858653Y-57815417D01*
X170863160Y-57844335D01*
X170863280Y-57897149D01*
X170861702Y-57948181D01*
X170856514Y-58095543D01*
X170517133Y-58095543D01*
X170511945Y-57948181D01*
X170510008Y-57875832D01*
X170511467Y-57832045D01*
X170517833Y-57809706D01*
X170530614Y-57801702D01*
X170543204Y-57800818D01*
X170560913Y-57798153D01*
X170571728Y-57785491D01*
X170577331Y-57755830D01*
X170579402Y-57702169D01*
X170579651Y-57648989D01*
X170579651Y-57497161D01*
X170793997Y-57497161D01*
X170793997Y-57648989D01*
G37*
G36*
X172778481Y-58067018D02*
G01*
X172746955Y-58172611D01*
X172692432Y-58266864D01*
X172610138Y-58360654D01*
X172604376Y-58366345D01*
X172506044Y-58446969D01*
X172400683Y-58499457D01*
X172280020Y-58526983D01*
X172169384Y-58533167D01*
X172031358Y-58523283D01*
X171915094Y-58491330D01*
X171811862Y-58433855D01*
X171721400Y-58355974D01*
X171637551Y-58257019D01*
X171582381Y-58153019D01*
X171552440Y-58035243D01*
X171544208Y-57907991D01*
X171548275Y-57864827D01*
X171673552Y-57864827D01*
X171677015Y-57993751D01*
X171711029Y-58107376D01*
X171777687Y-58211329D01*
X171819486Y-58257048D01*
X171923092Y-58337837D01*
X172037013Y-58387452D01*
X172155897Y-58406751D01*
X172274390Y-58396597D01*
X172387142Y-58357851D01*
X172488798Y-58291372D01*
X172574008Y-58198022D01*
X172615216Y-58129067D01*
X172657849Y-58007244D01*
X172667270Y-57884409D01*
X172645522Y-57765337D01*
X172594644Y-57654806D01*
X172516677Y-57557590D01*
X172413663Y-57478468D01*
X172317592Y-57432517D01*
X172232910Y-57414993D01*
X172132902Y-57415378D01*
X172032444Y-57432507D01*
X171954512Y-57460989D01*
X171838492Y-57536204D01*
X171752750Y-57630248D01*
X171697489Y-57742834D01*
X171673552Y-57864827D01*
X171548275Y-57864827D01*
X171558742Y-57753757D01*
X171602659Y-57619706D01*
X171676428Y-57505035D01*
X171780516Y-57408945D01*
X171868925Y-57353771D01*
X171928901Y-57323678D01*
X171979710Y-57305101D01*
X172034586Y-57294896D01*
X172106764Y-57289914D01*
X172142590Y-57288704D01*
X172221768Y-57288424D01*
X172293325Y-57291722D01*
X172345360Y-57297930D01*
X172356936Y-57300722D01*
X172445440Y-57339339D01*
X172538281Y-57397786D01*
X172621317Y-57466170D01*
X172669913Y-57519685D01*
X172733636Y-57618181D01*
X172772848Y-57716821D01*
X172790819Y-57826865D01*
X172791311Y-57884409D01*
X172791780Y-57939208D01*
X172778481Y-58067018D01*
G37*
G36*
X168298700Y-58125775D02*
G01*
X168276337Y-58184854D01*
X168215825Y-58280352D01*
X168133837Y-58370348D01*
X168040609Y-58445229D01*
X167946381Y-58495381D01*
X167945147Y-58495846D01*
X167825223Y-58525615D01*
X167691387Y-58534090D01*
X167558386Y-58521312D01*
X167459039Y-58494537D01*
X167353664Y-58438778D01*
X167255242Y-58356935D01*
X167173319Y-58258557D01*
X167117444Y-58153190D01*
X167117295Y-58152794D01*
X167086223Y-58028173D01*
X167077740Y-57890604D01*
X167080754Y-57861597D01*
X167208270Y-57861597D01*
X167213850Y-57992910D01*
X167249657Y-58111967D01*
X167311458Y-58215431D01*
X167395024Y-58299966D01*
X167496123Y-58362236D01*
X167610524Y-58398902D01*
X167733996Y-58406630D01*
X167862307Y-58382081D01*
X167866516Y-58380702D01*
X167973621Y-58327228D01*
X168065975Y-58246461D01*
X168138521Y-58145492D01*
X168186204Y-58031413D01*
X168203965Y-57911314D01*
X168203983Y-57907474D01*
X168186896Y-57786370D01*
X168138735Y-57671622D01*
X168064152Y-57569607D01*
X167967796Y-57486704D01*
X167855670Y-57429772D01*
X167773769Y-57412973D01*
X167676322Y-57411252D01*
X167580025Y-57424299D01*
X167539416Y-57435613D01*
X167427093Y-57491958D01*
X167332824Y-57575192D01*
X167261534Y-57678980D01*
X167218147Y-57796988D01*
X167208270Y-57861597D01*
X167080754Y-57861597D01*
X167091850Y-57754817D01*
X167117241Y-57663056D01*
X167170720Y-57562093D01*
X167250000Y-57465910D01*
X167345477Y-57384054D01*
X167447545Y-57326074D01*
X167461986Y-57320341D01*
X167549188Y-57297757D01*
X167653629Y-57285653D01*
X167761844Y-57284335D01*
X167860370Y-57294112D01*
X167922429Y-57309854D01*
X168043357Y-57371837D01*
X168151681Y-57461061D01*
X168239929Y-57569896D01*
X168300630Y-57690713D01*
X168303524Y-57699035D01*
X168323618Y-57794059D01*
X168329001Y-57905993D01*
X168328891Y-57907474D01*
X168320439Y-58021134D01*
X168298700Y-58125775D01*
G37*
G36*
X171295680Y-58068269D02*
G01*
X171263530Y-58174527D01*
X171207917Y-58270053D01*
X171124777Y-58365194D01*
X171026546Y-58446410D01*
X170918831Y-58499525D01*
X170794431Y-58527301D01*
X170686824Y-58533167D01*
X170548798Y-58523283D01*
X170432534Y-58491330D01*
X170329303Y-58433855D01*
X170238841Y-58355974D01*
X170154991Y-58257019D01*
X170099822Y-58153019D01*
X170069880Y-58035243D01*
X170062031Y-57913918D01*
X170188509Y-57913918D01*
X170205021Y-58040183D01*
X170213956Y-58070195D01*
X170268008Y-58178901D01*
X170349260Y-58271960D01*
X170450836Y-58344459D01*
X170565865Y-58391487D01*
X170686824Y-58408131D01*
X170811870Y-58391290D01*
X170926396Y-58343892D01*
X171025721Y-58270623D01*
X171105161Y-58176169D01*
X171160037Y-58065217D01*
X171185666Y-57942453D01*
X171186964Y-57907474D01*
X171169877Y-57786370D01*
X171121717Y-57671622D01*
X171047133Y-57569607D01*
X170950778Y-57486704D01*
X170838652Y-57429772D01*
X170756751Y-57412973D01*
X170659304Y-57411252D01*
X170563007Y-57424299D01*
X170522398Y-57435613D01*
X170409319Y-57491892D01*
X170316623Y-57573556D01*
X170247078Y-57674911D01*
X170203450Y-57790263D01*
X170188509Y-57913918D01*
X170062031Y-57913918D01*
X170061648Y-57907991D01*
X170072370Y-57766513D01*
X170106376Y-57647076D01*
X170166430Y-57542478D01*
X170229620Y-57470037D01*
X170319173Y-57390489D01*
X170406361Y-57336920D01*
X170501913Y-57304877D01*
X170616563Y-57289906D01*
X170668962Y-57287730D01*
X170787944Y-57289261D01*
X170874635Y-57300140D01*
X170905410Y-57309044D01*
X171014158Y-57364721D01*
X171116863Y-57443115D01*
X171196349Y-57529895D01*
X171255730Y-57624867D01*
X171292141Y-57721220D01*
X171308606Y-57829952D01*
X171309013Y-57907474D01*
X171309184Y-57940174D01*
X171295680Y-58068269D01*
G37*
G36*
X170744876Y-58141630D02*
G01*
X170767213Y-58172387D01*
X170776043Y-58220276D01*
X170770335Y-58268952D01*
X170754700Y-58297386D01*
X170721299Y-58313891D01*
X170686824Y-58318821D01*
X170633856Y-58306983D01*
X170604849Y-58269935D01*
X170597513Y-58217635D01*
X170611494Y-58162816D01*
X170648139Y-58130513D01*
X170699496Y-58124824D01*
X170744876Y-58141630D01*
G37*
G36*
X172420487Y-57721836D02*
G01*
X172448675Y-57732398D01*
X172494233Y-57773991D01*
X172520272Y-57844391D01*
X172526627Y-57919136D01*
X172521169Y-57979342D01*
X172499906Y-58023539D01*
X172474414Y-58052262D01*
X172409212Y-58094220D01*
X172333514Y-58107233D01*
X172258251Y-58090942D01*
X172210569Y-58060952D01*
X172178789Y-58031570D01*
X172171887Y-58013969D01*
X172187551Y-57996762D01*
X172196177Y-57990072D01*
X172240935Y-57965102D01*
X172275431Y-57970642D01*
X172294419Y-57988370D01*
X172323491Y-58012422D01*
X172352445Y-58005446D01*
X172373523Y-57987095D01*
X172395243Y-57946341D01*
X172398348Y-57895724D01*
X172385556Y-57846910D01*
X172359582Y-57811566D01*
X172330143Y-57800818D01*
X172306673Y-57812181D01*
X172285670Y-57829980D01*
X172255865Y-57849078D01*
X172219859Y-57842322D01*
X172212946Y-57839294D01*
X172177713Y-57816718D01*
X172174456Y-57791876D01*
X172203391Y-57759186D01*
X172216448Y-57748528D01*
X172274300Y-57721760D01*
X172347711Y-57712487D01*
X172420487Y-57721836D01*
G37*
%TO.C,J2*%
X151410000Y-125330000D02*
X151410000Y-122670000D01*
X146270000Y-125330000D02*
X146270000Y-122670000D01*
X146270000Y-125330000D02*
X151410000Y-125330000D01*
X143670000Y-125330000D02*
X143670000Y-124000000D01*
X145000000Y-125330000D02*
X143670000Y-125330000D01*
X146270000Y-122670000D02*
X151410000Y-122670000D01*
%TO.C,R12*%
X135636000Y-100560000D02*
X135636000Y-99790000D01*
X137006000Y-93250000D02*
X134266000Y-93250000D01*
X134266000Y-93250000D02*
X134266000Y-99790000D01*
X134266000Y-99790000D02*
X137006000Y-99790000D01*
X137006000Y-99790000D02*
X137006000Y-93250000D01*
X135636000Y-92480000D02*
X135636000Y-93250000D01*
%TO.C,K4*%
X142084000Y-81480000D02*
X142784000Y-81080000D01*
X138384000Y-79770000D02*
X140574000Y-79770000D01*
X146384000Y-79990000D02*
X146384000Y-95270000D01*
X142084000Y-80680000D02*
X142084000Y-81880000D01*
X138604000Y-80010000D02*
X138604000Y-95270000D01*
X138384000Y-82110000D02*
X138384000Y-79770000D01*
X142084000Y-81880000D02*
X142784000Y-81880000D01*
X142784000Y-81880000D02*
X142784000Y-80680000D01*
X146384000Y-95270000D02*
X138604000Y-95270000D01*
X146384000Y-79990000D02*
X138604000Y-79990000D01*
X142784000Y-80680000D02*
X142084000Y-80680000D01*
%TO.C,C3*%
X170458000Y-110313000D02*
X172160000Y-110313000D01*
X170458000Y-111394000D02*
X172585000Y-111394000D01*
X167374000Y-109513000D02*
X171462000Y-109513000D01*
X170458000Y-110673000D02*
X172352000Y-110673000D01*
X167986000Y-109113000D02*
X170850000Y-109113000D01*
X166236000Y-111474000D02*
X168378000Y-111474000D01*
X166243000Y-111434000D02*
X168378000Y-111434000D01*
X166934000Y-109953000D02*
X168378000Y-109953000D01*
X166357000Y-110993000D02*
X168378000Y-110993000D01*
X170458000Y-110273000D02*
X172134000Y-110273000D01*
X170458000Y-109753000D02*
X171723000Y-109753000D01*
X167837000Y-109193000D02*
X170999000Y-109193000D01*
X170458000Y-110753000D02*
X172388000Y-110753000D01*
X169016000Y-108793000D02*
X169820000Y-108793000D01*
X167642000Y-109313000D02*
X171194000Y-109313000D01*
X167194000Y-109673000D02*
X171642000Y-109673000D01*
X166522000Y-110593000D02*
X168378000Y-110593000D01*
X170458000Y-111674000D02*
X172629000Y-111674000D01*
X170458000Y-111193000D02*
X172539000Y-111193000D01*
X166371000Y-110953000D02*
X168378000Y-110953000D01*
X166416000Y-110833000D02*
X168378000Y-110833000D01*
X166217000Y-111594000D02*
X168378000Y-111594000D01*
X167113000Y-109753000D02*
X168378000Y-109753000D01*
X166400000Y-110873000D02*
X168378000Y-110873000D01*
X168785000Y-108833000D02*
X170051000Y-108833000D01*
X167075000Y-109793000D02*
X168378000Y-109793000D01*
X166229000Y-111514000D02*
X168378000Y-111514000D01*
X166484000Y-110673000D02*
X168378000Y-110673000D01*
X168156000Y-109033000D02*
X170680000Y-109033000D01*
X166320000Y-111113000D02*
X168378000Y-111113000D01*
X166196000Y-111794000D02*
X168378000Y-111794000D01*
X166188000Y-111954000D02*
X172648000Y-111954000D01*
X166584000Y-110473000D02*
X168378000Y-110473000D01*
X170458000Y-110713000D02*
X172370000Y-110713000D01*
X168253000Y-108993000D02*
X170583000Y-108993000D01*
X170458000Y-111794000D02*
X172640000Y-111794000D01*
X167768000Y-109233000D02*
X171068000Y-109233000D01*
X166287000Y-111233000D02*
X168378000Y-111233000D01*
X167002000Y-109873000D02*
X168378000Y-109873000D01*
X166308000Y-111153000D02*
X168378000Y-111153000D01*
X167704000Y-109273000D02*
X171132000Y-109273000D01*
X167528000Y-109393000D02*
X171308000Y-109393000D01*
X166606000Y-110433000D02*
X168378000Y-110433000D01*
X170458000Y-111634000D02*
X172624000Y-111634000D01*
X166448000Y-110753000D02*
X168378000Y-110753000D01*
X166754000Y-110193000D02*
X168378000Y-110193000D01*
X167281000Y-109593000D02*
X171555000Y-109593000D01*
X166188000Y-112034000D02*
X172648000Y-112034000D01*
X166562000Y-110513000D02*
X168378000Y-110513000D01*
X170458000Y-111754000D02*
X172636000Y-111754000D01*
X170458000Y-111153000D02*
X172528000Y-111153000D01*
X167326000Y-109553000D02*
X171510000Y-109553000D01*
X166277000Y-111273000D02*
X168378000Y-111273000D01*
X167474000Y-109433000D02*
X171362000Y-109433000D01*
X168359000Y-108953000D02*
X170477000Y-108953000D01*
X170458000Y-109793000D02*
X171761000Y-109793000D01*
X170458000Y-110633000D02*
X172334000Y-110633000D01*
X166728000Y-110233000D02*
X168378000Y-110233000D01*
X167153000Y-109713000D02*
X171683000Y-109713000D01*
X166191000Y-111874000D02*
X172645000Y-111874000D01*
X166200000Y-111754000D02*
X168378000Y-111754000D01*
X166466000Y-110713000D02*
X168378000Y-110713000D01*
X170458000Y-110113000D02*
X172025000Y-110113000D01*
X170458000Y-110153000D02*
X172054000Y-110153000D01*
X166702000Y-110273000D02*
X168378000Y-110273000D01*
X167236000Y-109633000D02*
X171600000Y-109633000D01*
X166190000Y-111914000D02*
X172646000Y-111914000D01*
X170458000Y-111714000D02*
X172633000Y-111714000D01*
X170458000Y-109913000D02*
X171868000Y-109913000D01*
X166194000Y-111834000D02*
X172642000Y-111834000D01*
X170458000Y-110953000D02*
X172465000Y-110953000D01*
X167038000Y-109833000D02*
X168378000Y-109833000D01*
X167264000Y-115219241D02*
X167894000Y-115219241D01*
X170458000Y-110593000D02*
X172314000Y-110593000D01*
X170458000Y-109993000D02*
X171934000Y-109993000D01*
X170458000Y-111073000D02*
X172504000Y-111073000D01*
X170458000Y-111113000D02*
X172516000Y-111113000D01*
X168478000Y-108913000D02*
X170358000Y-108913000D01*
X167579000Y-115534241D02*
X167579000Y-114904241D01*
X166297000Y-111193000D02*
X168378000Y-111193000D01*
X170458000Y-109873000D02*
X171834000Y-109873000D01*
X170458000Y-110793000D02*
X172404000Y-110793000D01*
X166652000Y-110353000D02*
X168378000Y-110353000D01*
X166385000Y-110913000D02*
X168378000Y-110913000D01*
X170458000Y-110513000D02*
X172274000Y-110513000D01*
X166432000Y-110793000D02*
X168378000Y-110793000D01*
X166332000Y-111073000D02*
X168378000Y-111073000D01*
X170458000Y-110193000D02*
X172082000Y-110193000D01*
X170458000Y-111233000D02*
X172549000Y-111233000D01*
X170458000Y-109833000D02*
X171798000Y-109833000D01*
X170458000Y-111273000D02*
X172559000Y-111273000D01*
X168068000Y-109073000D02*
X170768000Y-109073000D01*
X166676000Y-110313000D02*
X168378000Y-110313000D01*
X170458000Y-110473000D02*
X172252000Y-110473000D01*
X166968000Y-109913000D02*
X168378000Y-109913000D01*
X166840000Y-110073000D02*
X168378000Y-110073000D01*
X170458000Y-111554000D02*
X172613000Y-111554000D01*
X167423000Y-109473000D02*
X171413000Y-109473000D01*
X166902000Y-109993000D02*
X168378000Y-109993000D01*
X170458000Y-110553000D02*
X172294000Y-110553000D01*
X170458000Y-111354000D02*
X172577000Y-111354000D01*
X167909000Y-109153000D02*
X170927000Y-109153000D01*
X170458000Y-110353000D02*
X172184000Y-110353000D01*
X166203000Y-111714000D02*
X168378000Y-111714000D01*
X170458000Y-110833000D02*
X172420000Y-110833000D01*
X170458000Y-111514000D02*
X172607000Y-111514000D01*
X170458000Y-111434000D02*
X172593000Y-111434000D01*
X166259000Y-111354000D02*
X168378000Y-111354000D01*
X166344000Y-111033000D02*
X168378000Y-111033000D01*
X166811000Y-110113000D02*
X168378000Y-110113000D01*
X166188000Y-111994000D02*
X172648000Y-111994000D01*
X166212000Y-111634000D02*
X168378000Y-111634000D01*
X166502000Y-110633000D02*
X168378000Y-110633000D01*
X170458000Y-111313000D02*
X172568000Y-111313000D01*
X170458000Y-110393000D02*
X172208000Y-110393000D01*
X170458000Y-111594000D02*
X172619000Y-111594000D01*
X170458000Y-110433000D02*
X172230000Y-110433000D01*
X166223000Y-111554000D02*
X168378000Y-111554000D01*
X168616000Y-108873000D02*
X170220000Y-108873000D01*
X170458000Y-110873000D02*
X172436000Y-110873000D01*
X170458000Y-111474000D02*
X172600000Y-111474000D01*
X166268000Y-111313000D02*
X168378000Y-111313000D01*
X166782000Y-110153000D02*
X168378000Y-110153000D01*
X166628000Y-110393000D02*
X168378000Y-110393000D01*
X170458000Y-110913000D02*
X172451000Y-110913000D01*
X166207000Y-111674000D02*
X168378000Y-111674000D01*
X170458000Y-109953000D02*
X171902000Y-109953000D01*
X170458000Y-110073000D02*
X171996000Y-110073000D01*
X167584000Y-109353000D02*
X171252000Y-109353000D01*
X166870000Y-110033000D02*
X168378000Y-110033000D01*
X170458000Y-111033000D02*
X172492000Y-111033000D01*
X166542000Y-110553000D02*
X168378000Y-110553000D01*
X170458000Y-110233000D02*
X172108000Y-110233000D01*
X170458000Y-110993000D02*
X172479000Y-110993000D01*
X166251000Y-111394000D02*
X168378000Y-111394000D01*
X170458000Y-110033000D02*
X171966000Y-110033000D01*
X172688000Y-112034000D02*
G75*
G03*
X172688000Y-112034000I-3270000J0D01*
G01*
%TO.C,R7*%
X159104000Y-66072000D02*
X156364000Y-66072000D01*
X157734000Y-65302000D02*
X157734000Y-66072000D01*
X156364000Y-72612000D02*
X159104000Y-72612000D01*
X156364000Y-66072000D02*
X156364000Y-72612000D01*
X157734000Y-73382000D02*
X157734000Y-72612000D01*
X159104000Y-72612000D02*
X159104000Y-66072000D01*
%TO.C,R6*%
X174906000Y-93250000D02*
X174906000Y-99790000D01*
X176276000Y-100560000D02*
X176276000Y-99790000D01*
X177646000Y-93250000D02*
X174906000Y-93250000D01*
X176276000Y-92480000D02*
X176276000Y-93250000D01*
X174906000Y-99790000D02*
X177646000Y-99790000D01*
X177646000Y-99790000D02*
X177646000Y-93250000D01*
%TO.C,C1*%
X202256000Y-106038000D02*
X202256000Y-108180000D01*
X204297000Y-107276000D02*
X204297000Y-111164000D01*
X202056000Y-106009000D02*
X202056000Y-108180000D01*
X203937000Y-110260000D02*
X203937000Y-111563000D01*
X203897000Y-110260000D02*
X203897000Y-111600000D01*
X203777000Y-106736000D02*
X203777000Y-108180000D01*
X201936000Y-105998000D02*
X201936000Y-108180000D01*
X204937000Y-108818000D02*
X204937000Y-109622000D01*
X198510759Y-107066000D02*
X198510759Y-107696000D01*
X203617000Y-110260000D02*
X203617000Y-111827000D01*
X202136000Y-106019000D02*
X202136000Y-108180000D01*
X204737000Y-108055000D02*
X204737000Y-110385000D01*
X204177000Y-107128000D02*
X204177000Y-111312000D01*
X202376000Y-106061000D02*
X202376000Y-108180000D01*
X203737000Y-106704000D02*
X203737000Y-108180000D01*
X202577000Y-106110000D02*
X202577000Y-108180000D01*
X202777000Y-110260000D02*
X202777000Y-112267000D01*
X203497000Y-106530000D02*
X203497000Y-108180000D01*
X202497000Y-110260000D02*
X202497000Y-112351000D01*
X203857000Y-110260000D02*
X203857000Y-111636000D01*
X201896000Y-105996000D02*
X201896000Y-112444000D01*
X203457000Y-110260000D02*
X203457000Y-111936000D01*
X203217000Y-110260000D02*
X203217000Y-112076000D01*
X202056000Y-110260000D02*
X202056000Y-112431000D01*
X203137000Y-110260000D02*
X203137000Y-112116000D01*
X202417000Y-110260000D02*
X202417000Y-112370000D01*
X203097000Y-106304000D02*
X203097000Y-108180000D01*
X204097000Y-107038000D02*
X204097000Y-111402000D01*
X204817000Y-108280000D02*
X204817000Y-110160000D01*
X203417000Y-106478000D02*
X203417000Y-108180000D01*
X204857000Y-108418000D02*
X204857000Y-110022000D01*
X202497000Y-106089000D02*
X202497000Y-108180000D01*
X202937000Y-110260000D02*
X202937000Y-112206000D01*
X201856000Y-105993000D02*
X201856000Y-112447000D01*
X202176000Y-110260000D02*
X202176000Y-112415000D01*
X204057000Y-106996000D02*
X204057000Y-111444000D01*
X204897000Y-108587000D02*
X204897000Y-109853000D01*
X203537000Y-106556000D02*
X203537000Y-108180000D01*
X204417000Y-107444000D02*
X204417000Y-110996000D01*
X203977000Y-110260000D02*
X203977000Y-111525000D01*
X202096000Y-106014000D02*
X202096000Y-108180000D01*
X202336000Y-110260000D02*
X202336000Y-112387000D01*
X202737000Y-106159000D02*
X202737000Y-108180000D01*
X204697000Y-107958000D02*
X204697000Y-110482000D01*
X202617000Y-106122000D02*
X202617000Y-108180000D01*
X204257000Y-107225000D02*
X204257000Y-111215000D01*
X201936000Y-110260000D02*
X201936000Y-112442000D01*
X203817000Y-106770000D02*
X203817000Y-108180000D01*
X203377000Y-106454000D02*
X203377000Y-108180000D01*
X202697000Y-106146000D02*
X202697000Y-108180000D01*
X202417000Y-106070000D02*
X202417000Y-108180000D01*
X202697000Y-110260000D02*
X202697000Y-112294000D01*
X203017000Y-106268000D02*
X203017000Y-108180000D01*
X202897000Y-110260000D02*
X202897000Y-112222000D01*
X202336000Y-106053000D02*
X202336000Y-108180000D01*
X203097000Y-110260000D02*
X203097000Y-112136000D01*
X202777000Y-106173000D02*
X202777000Y-108180000D01*
X203857000Y-106804000D02*
X203857000Y-108180000D01*
X204337000Y-107330000D02*
X204337000Y-111110000D01*
X202376000Y-110260000D02*
X202376000Y-112379000D01*
X204497000Y-107570000D02*
X204497000Y-110870000D01*
X202537000Y-110260000D02*
X202537000Y-112341000D01*
X202817000Y-106187000D02*
X202817000Y-108180000D01*
X201976000Y-106002000D02*
X201976000Y-108180000D01*
X204657000Y-107870000D02*
X204657000Y-110570000D01*
X203897000Y-106840000D02*
X203897000Y-108180000D01*
X202457000Y-106079000D02*
X202457000Y-108180000D01*
X203497000Y-110260000D02*
X203497000Y-111910000D01*
X203937000Y-106877000D02*
X203937000Y-108180000D01*
X203697000Y-106672000D02*
X203697000Y-108180000D01*
X203977000Y-106915000D02*
X203977000Y-108180000D01*
X204617000Y-107788000D02*
X204617000Y-110652000D01*
X202296000Y-106045000D02*
X202296000Y-108180000D01*
X201816000Y-105992000D02*
X201816000Y-112448000D01*
X203457000Y-106504000D02*
X203457000Y-108180000D01*
X203057000Y-106286000D02*
X203057000Y-108180000D01*
X202617000Y-110260000D02*
X202617000Y-112318000D01*
X203257000Y-110260000D02*
X203257000Y-112054000D01*
X202216000Y-106031000D02*
X202216000Y-108180000D01*
X204137000Y-107083000D02*
X204137000Y-111357000D01*
X203057000Y-110260000D02*
X203057000Y-112154000D01*
X202657000Y-110260000D02*
X202657000Y-112306000D01*
X198195759Y-107381000D02*
X198825759Y-107381000D01*
X202977000Y-110260000D02*
X202977000Y-112190000D01*
X202857000Y-106202000D02*
X202857000Y-108180000D01*
X202296000Y-110260000D02*
X202296000Y-112395000D01*
X201976000Y-110260000D02*
X201976000Y-112438000D01*
X203337000Y-110260000D02*
X203337000Y-112010000D01*
X203177000Y-106344000D02*
X203177000Y-108180000D01*
X204457000Y-107506000D02*
X204457000Y-110934000D01*
X203377000Y-110260000D02*
X203377000Y-111986000D01*
X202817000Y-110260000D02*
X202817000Y-112253000D01*
X202216000Y-110260000D02*
X202216000Y-112409000D01*
X203177000Y-110260000D02*
X203177000Y-112096000D01*
X203417000Y-110260000D02*
X203417000Y-111962000D01*
X202096000Y-110260000D02*
X202096000Y-112426000D01*
X203577000Y-110260000D02*
X203577000Y-111856000D01*
X203697000Y-110260000D02*
X203697000Y-111768000D01*
X202937000Y-106234000D02*
X202937000Y-108180000D01*
X202136000Y-110260000D02*
X202136000Y-112421000D01*
X203817000Y-110260000D02*
X203817000Y-111670000D01*
X201736000Y-105990000D02*
X201736000Y-112450000D01*
X203617000Y-106613000D02*
X203617000Y-108180000D01*
X202457000Y-110260000D02*
X202457000Y-112361000D01*
X202897000Y-106218000D02*
X202897000Y-108180000D01*
X202176000Y-106025000D02*
X202176000Y-108180000D01*
X203297000Y-106408000D02*
X203297000Y-108180000D01*
X202737000Y-110260000D02*
X202737000Y-112281000D01*
X202016000Y-106005000D02*
X202016000Y-108180000D01*
X204777000Y-108161000D02*
X204777000Y-110279000D01*
X202657000Y-106134000D02*
X202657000Y-108180000D01*
X203017000Y-110260000D02*
X203017000Y-112172000D01*
X202857000Y-110260000D02*
X202857000Y-112238000D01*
X204017000Y-106955000D02*
X204017000Y-111485000D01*
X202977000Y-106250000D02*
X202977000Y-108180000D01*
X204577000Y-107711000D02*
X204577000Y-110729000D01*
X203217000Y-106364000D02*
X203217000Y-108180000D01*
X202577000Y-110260000D02*
X202577000Y-112330000D01*
X203137000Y-106324000D02*
X203137000Y-108180000D01*
X204377000Y-107386000D02*
X204377000Y-111054000D01*
X203657000Y-106642000D02*
X203657000Y-108180000D01*
X201696000Y-105990000D02*
X201696000Y-112450000D01*
X203657000Y-110260000D02*
X203657000Y-111798000D01*
X203297000Y-110260000D02*
X203297000Y-112032000D01*
X203257000Y-106386000D02*
X203257000Y-108180000D01*
X203537000Y-110260000D02*
X203537000Y-111884000D01*
X204537000Y-107639000D02*
X204537000Y-110801000D01*
X201776000Y-105990000D02*
X201776000Y-112450000D01*
X202016000Y-110260000D02*
X202016000Y-112435000D01*
X203737000Y-110260000D02*
X203737000Y-111736000D01*
X203777000Y-110260000D02*
X203777000Y-111704000D01*
X202256000Y-110260000D02*
X202256000Y-112402000D01*
X203577000Y-106584000D02*
X203577000Y-108180000D01*
X203337000Y-106430000D02*
X203337000Y-108180000D01*
X202537000Y-106099000D02*
X202537000Y-108180000D01*
X204217000Y-107176000D02*
X204217000Y-111264000D01*
X204966000Y-109220000D02*
G75*
G03*
X204966000Y-109220000I-3270000J0D01*
G01*
%TO.C,D8*%
X151184000Y-73582000D02*
X154124000Y-73582000D01*
X151184000Y-74602000D02*
X154124000Y-74602000D01*
X152654000Y-68142000D02*
X152654000Y-69162000D01*
X154124000Y-74602000D02*
X154124000Y-69162000D01*
X152654000Y-75622000D02*
X152654000Y-74602000D01*
X151184000Y-69162000D02*
X151184000Y-74602000D01*
X151184000Y-73822000D02*
X154124000Y-73822000D01*
X154124000Y-69162000D02*
X151184000Y-69162000D01*
X151184000Y-73702000D02*
X154124000Y-73702000D01*
%TO.C,C4*%
X162711000Y-106304000D02*
X162711000Y-108180000D01*
X161670000Y-106009000D02*
X161670000Y-108180000D01*
X163551000Y-110260000D02*
X163551000Y-111563000D01*
X161910000Y-110260000D02*
X161910000Y-112395000D01*
X162591000Y-110260000D02*
X162591000Y-112190000D01*
X162151000Y-106099000D02*
X162151000Y-108180000D01*
X164231000Y-107788000D02*
X164231000Y-110652000D01*
X162551000Y-110260000D02*
X162551000Y-112206000D01*
X162191000Y-110260000D02*
X162191000Y-112330000D01*
X162751000Y-106324000D02*
X162751000Y-108180000D01*
X163991000Y-107386000D02*
X163991000Y-111054000D01*
X163111000Y-106530000D02*
X163111000Y-108180000D01*
X162231000Y-110260000D02*
X162231000Y-112318000D01*
X162191000Y-106110000D02*
X162191000Y-108180000D01*
X163231000Y-110260000D02*
X163231000Y-111827000D01*
X162671000Y-106286000D02*
X162671000Y-108180000D01*
X163311000Y-106672000D02*
X163311000Y-108180000D01*
X162751000Y-110260000D02*
X162751000Y-112116000D01*
X163711000Y-107038000D02*
X163711000Y-111402000D01*
X161790000Y-106025000D02*
X161790000Y-108180000D01*
X161470000Y-105993000D02*
X161470000Y-112447000D01*
X162471000Y-106202000D02*
X162471000Y-108180000D01*
X163071000Y-106504000D02*
X163071000Y-108180000D01*
X163111000Y-110260000D02*
X163111000Y-111910000D01*
X162351000Y-106159000D02*
X162351000Y-108180000D01*
X161630000Y-110260000D02*
X161630000Y-112435000D01*
X161950000Y-106053000D02*
X161950000Y-108180000D01*
X162791000Y-110260000D02*
X162791000Y-112096000D01*
X161670000Y-110260000D02*
X161670000Y-112431000D01*
X161870000Y-110260000D02*
X161870000Y-112402000D01*
X162631000Y-106268000D02*
X162631000Y-108180000D01*
X163511000Y-106840000D02*
X163511000Y-108180000D01*
X163191000Y-106584000D02*
X163191000Y-108180000D01*
X163271000Y-106642000D02*
X163271000Y-108180000D01*
X162311000Y-110260000D02*
X162311000Y-112294000D01*
X162031000Y-110260000D02*
X162031000Y-112370000D01*
X162591000Y-106250000D02*
X162591000Y-108180000D01*
X161750000Y-106019000D02*
X161750000Y-108180000D01*
X161790000Y-110260000D02*
X161790000Y-112415000D01*
X157809759Y-107381000D02*
X158439759Y-107381000D01*
X162311000Y-106146000D02*
X162311000Y-108180000D01*
X162031000Y-106070000D02*
X162031000Y-108180000D01*
X163591000Y-110260000D02*
X163591000Y-111525000D01*
X163791000Y-107128000D02*
X163791000Y-111312000D01*
X163151000Y-110260000D02*
X163151000Y-111884000D01*
X162431000Y-106187000D02*
X162431000Y-108180000D01*
X162991000Y-106454000D02*
X162991000Y-108180000D01*
X161590000Y-106002000D02*
X161590000Y-108180000D01*
X162831000Y-106364000D02*
X162831000Y-108180000D01*
X162071000Y-110260000D02*
X162071000Y-112361000D01*
X162791000Y-106344000D02*
X162791000Y-108180000D01*
X161910000Y-106045000D02*
X161910000Y-108180000D01*
X164191000Y-107711000D02*
X164191000Y-110729000D01*
X163631000Y-106955000D02*
X163631000Y-111485000D01*
X161350000Y-105990000D02*
X161350000Y-112450000D01*
X161550000Y-105998000D02*
X161550000Y-108180000D01*
X158124759Y-107066000D02*
X158124759Y-107696000D01*
X163151000Y-106556000D02*
X163151000Y-108180000D01*
X161310000Y-105990000D02*
X161310000Y-112450000D01*
X162351000Y-110260000D02*
X162351000Y-112281000D01*
X163031000Y-110260000D02*
X163031000Y-111962000D01*
X162111000Y-106089000D02*
X162111000Y-108180000D01*
X162511000Y-110260000D02*
X162511000Y-112222000D01*
X163871000Y-107225000D02*
X163871000Y-111215000D01*
X162951000Y-110260000D02*
X162951000Y-112010000D01*
X163591000Y-106915000D02*
X163591000Y-108180000D01*
X162391000Y-106173000D02*
X162391000Y-108180000D01*
X163431000Y-110260000D02*
X163431000Y-111670000D01*
X164511000Y-108587000D02*
X164511000Y-109853000D01*
X164151000Y-107639000D02*
X164151000Y-110801000D01*
X163231000Y-106613000D02*
X163231000Y-108180000D01*
X163471000Y-110260000D02*
X163471000Y-111636000D01*
X161710000Y-106014000D02*
X161710000Y-108180000D01*
X161990000Y-106061000D02*
X161990000Y-108180000D01*
X164431000Y-108280000D02*
X164431000Y-110160000D01*
X161990000Y-110260000D02*
X161990000Y-112379000D01*
X162911000Y-106408000D02*
X162911000Y-108180000D01*
X161390000Y-105990000D02*
X161390000Y-112450000D01*
X161870000Y-106038000D02*
X161870000Y-108180000D01*
X162431000Y-110260000D02*
X162431000Y-112253000D01*
X162911000Y-110260000D02*
X162911000Y-112032000D01*
X162831000Y-110260000D02*
X162831000Y-112076000D01*
X161750000Y-110260000D02*
X161750000Y-112421000D01*
X164391000Y-108161000D02*
X164391000Y-110279000D01*
X163191000Y-110260000D02*
X163191000Y-111856000D01*
X163391000Y-106736000D02*
X163391000Y-108180000D01*
X163351000Y-110260000D02*
X163351000Y-111736000D01*
X162631000Y-110260000D02*
X162631000Y-112172000D01*
X164351000Y-108055000D02*
X164351000Y-110385000D01*
X163311000Y-110260000D02*
X163311000Y-111768000D01*
X164471000Y-108418000D02*
X164471000Y-110022000D01*
X162111000Y-110260000D02*
X162111000Y-112351000D01*
X163351000Y-106704000D02*
X163351000Y-108180000D01*
X162071000Y-106079000D02*
X162071000Y-108180000D01*
X161710000Y-110260000D02*
X161710000Y-112426000D01*
X164111000Y-107570000D02*
X164111000Y-110870000D01*
X164271000Y-107870000D02*
X164271000Y-110570000D01*
X164031000Y-107444000D02*
X164031000Y-110996000D01*
X163911000Y-107276000D02*
X163911000Y-111164000D01*
X163071000Y-110260000D02*
X163071000Y-111936000D01*
X161430000Y-105992000D02*
X161430000Y-112448000D01*
X162271000Y-106134000D02*
X162271000Y-108180000D01*
X163551000Y-106877000D02*
X163551000Y-108180000D01*
X162991000Y-110260000D02*
X162991000Y-111986000D01*
X161510000Y-105996000D02*
X161510000Y-112444000D01*
X162391000Y-110260000D02*
X162391000Y-112267000D01*
X163391000Y-110260000D02*
X163391000Y-111704000D01*
X162551000Y-106234000D02*
X162551000Y-108180000D01*
X161630000Y-106005000D02*
X161630000Y-108180000D01*
X162871000Y-106386000D02*
X162871000Y-108180000D01*
X162151000Y-110260000D02*
X162151000Y-112341000D01*
X163431000Y-106770000D02*
X163431000Y-108180000D01*
X162671000Y-110260000D02*
X162671000Y-112154000D01*
X162871000Y-110260000D02*
X162871000Y-112054000D01*
X162511000Y-106218000D02*
X162511000Y-108180000D01*
X161950000Y-110260000D02*
X161950000Y-112387000D01*
X163831000Y-107176000D02*
X163831000Y-111264000D01*
X163671000Y-106996000D02*
X163671000Y-111444000D01*
X164071000Y-107506000D02*
X164071000Y-110934000D01*
X163271000Y-110260000D02*
X163271000Y-111798000D01*
X163471000Y-106804000D02*
X163471000Y-108180000D01*
X163031000Y-106478000D02*
X163031000Y-108180000D01*
X161550000Y-110260000D02*
X161550000Y-112442000D01*
X162471000Y-110260000D02*
X162471000Y-112238000D01*
X162271000Y-110260000D02*
X162271000Y-112306000D01*
X161830000Y-106031000D02*
X161830000Y-108180000D01*
X164311000Y-107958000D02*
X164311000Y-110482000D01*
X162231000Y-106122000D02*
X162231000Y-108180000D01*
X162951000Y-106430000D02*
X162951000Y-108180000D01*
X162711000Y-110260000D02*
X162711000Y-112136000D01*
X163951000Y-107330000D02*
X163951000Y-111110000D01*
X161830000Y-110260000D02*
X161830000Y-112409000D01*
X164551000Y-108818000D02*
X164551000Y-109622000D01*
X163511000Y-110260000D02*
X163511000Y-111600000D01*
X161590000Y-110260000D02*
X161590000Y-112438000D01*
X163751000Y-107083000D02*
X163751000Y-111357000D01*
X164580000Y-109220000D02*
G75*
G03*
X164580000Y-109220000I-3270000J0D01*
G01*
%TO.C,C2*%
X174885000Y-111110000D02*
X174885000Y-107330000D01*
X177526000Y-112450000D02*
X177526000Y-105990000D01*
X175565000Y-111798000D02*
X175565000Y-110260000D01*
X175885000Y-112010000D02*
X175885000Y-110260000D01*
X175365000Y-108180000D02*
X175365000Y-106804000D01*
X176565000Y-112306000D02*
X176565000Y-110260000D01*
X176926000Y-112395000D02*
X176926000Y-110260000D01*
X175685000Y-108180000D02*
X175685000Y-106556000D01*
X177486000Y-112450000D02*
X177486000Y-105990000D01*
X175325000Y-111600000D02*
X175325000Y-110260000D01*
X176325000Y-108180000D02*
X176325000Y-106218000D01*
X177326000Y-112444000D02*
X177326000Y-105996000D01*
X177286000Y-112442000D02*
X177286000Y-110260000D01*
X176405000Y-112253000D02*
X176405000Y-110260000D01*
X176765000Y-108180000D02*
X176765000Y-106079000D01*
X176205000Y-108180000D02*
X176205000Y-106268000D01*
X176645000Y-108180000D02*
X176645000Y-106110000D01*
X177166000Y-112431000D02*
X177166000Y-110260000D01*
X176966000Y-108180000D02*
X176966000Y-106038000D01*
X175245000Y-108180000D02*
X175245000Y-106915000D01*
X176525000Y-108180000D02*
X176525000Y-106146000D01*
X175965000Y-108180000D02*
X175965000Y-106386000D01*
X176846000Y-108180000D02*
X176846000Y-106061000D01*
X174805000Y-110996000D02*
X174805000Y-107444000D01*
X176485000Y-108180000D02*
X176485000Y-106159000D01*
X176085000Y-108180000D02*
X176085000Y-106324000D01*
X176245000Y-108180000D02*
X176245000Y-106250000D01*
X176165000Y-108180000D02*
X176165000Y-106286000D01*
X175165000Y-111444000D02*
X175165000Y-106996000D01*
X175085000Y-111357000D02*
X175085000Y-107083000D01*
X177086000Y-112421000D02*
X177086000Y-110260000D01*
X176285000Y-112206000D02*
X176285000Y-110260000D01*
X176846000Y-112379000D02*
X176846000Y-110260000D01*
X176045000Y-108180000D02*
X176045000Y-106344000D01*
X175485000Y-111736000D02*
X175485000Y-110260000D01*
X176565000Y-108180000D02*
X176565000Y-106134000D01*
X174725000Y-110870000D02*
X174725000Y-107570000D01*
X177086000Y-108180000D02*
X177086000Y-106019000D01*
X177046000Y-112415000D02*
X177046000Y-110260000D01*
X175205000Y-111485000D02*
X175205000Y-106955000D01*
X174405000Y-110160000D02*
X174405000Y-108280000D01*
X174845000Y-111054000D02*
X174845000Y-107386000D01*
X175885000Y-108180000D02*
X175885000Y-106430000D01*
X176005000Y-108180000D02*
X176005000Y-106364000D01*
X181026241Y-111059000D02*
X180396241Y-111059000D01*
X177446000Y-112450000D02*
X177446000Y-105990000D01*
X177366000Y-112447000D02*
X177366000Y-105993000D01*
X176005000Y-112076000D02*
X176005000Y-110260000D01*
X176205000Y-112172000D02*
X176205000Y-110260000D01*
X174485000Y-110385000D02*
X174485000Y-108055000D01*
X175405000Y-108180000D02*
X175405000Y-106770000D01*
X177126000Y-108180000D02*
X177126000Y-106014000D01*
X176445000Y-112267000D02*
X176445000Y-110260000D01*
X175845000Y-111986000D02*
X175845000Y-110260000D01*
X175285000Y-111563000D02*
X175285000Y-110260000D01*
X174925000Y-111164000D02*
X174925000Y-107276000D01*
X175285000Y-108180000D02*
X175285000Y-106877000D01*
X174965000Y-111215000D02*
X174965000Y-107225000D01*
X176365000Y-108180000D02*
X176365000Y-106202000D01*
X174445000Y-110279000D02*
X174445000Y-108161000D01*
X177406000Y-112448000D02*
X177406000Y-105992000D01*
X176165000Y-112154000D02*
X176165000Y-110260000D01*
X175805000Y-111962000D02*
X175805000Y-110260000D01*
X175765000Y-111936000D02*
X175765000Y-110260000D01*
X175325000Y-108180000D02*
X175325000Y-106840000D01*
X176886000Y-108180000D02*
X176886000Y-106053000D01*
X176245000Y-112190000D02*
X176245000Y-110260000D01*
X176605000Y-108180000D02*
X176605000Y-106122000D01*
X175445000Y-111704000D02*
X175445000Y-110260000D01*
X175405000Y-111670000D02*
X175405000Y-110260000D01*
X176125000Y-108180000D02*
X176125000Y-106304000D01*
X177286000Y-108180000D02*
X177286000Y-105998000D01*
X174645000Y-110729000D02*
X174645000Y-107711000D01*
X176805000Y-112370000D02*
X176805000Y-110260000D01*
X176405000Y-108180000D02*
X176405000Y-106187000D01*
X174765000Y-110934000D02*
X174765000Y-107506000D01*
X174365000Y-110022000D02*
X174365000Y-108418000D01*
X177246000Y-112438000D02*
X177246000Y-110260000D01*
X175005000Y-111264000D02*
X175005000Y-107176000D01*
X176765000Y-112361000D02*
X176765000Y-110260000D01*
X177126000Y-112426000D02*
X177126000Y-110260000D01*
X175365000Y-111636000D02*
X175365000Y-110260000D01*
X175925000Y-112032000D02*
X175925000Y-110260000D01*
X175965000Y-112054000D02*
X175965000Y-110260000D01*
X174685000Y-110801000D02*
X174685000Y-107639000D01*
X176926000Y-108180000D02*
X176926000Y-106045000D01*
X175525000Y-108180000D02*
X175525000Y-106672000D01*
X180711241Y-111374000D02*
X180711241Y-110744000D01*
X176725000Y-108180000D02*
X176725000Y-106089000D01*
X175605000Y-108180000D02*
X175605000Y-106613000D01*
X176685000Y-112341000D02*
X176685000Y-110260000D01*
X177006000Y-108180000D02*
X177006000Y-106031000D01*
X175805000Y-108180000D02*
X175805000Y-106478000D01*
X175725000Y-111910000D02*
X175725000Y-110260000D01*
X176805000Y-108180000D02*
X176805000Y-106070000D01*
X177046000Y-108180000D02*
X177046000Y-106025000D01*
X176645000Y-112330000D02*
X176645000Y-110260000D01*
X177206000Y-108180000D02*
X177206000Y-106005000D01*
X176886000Y-112387000D02*
X176886000Y-110260000D01*
X175725000Y-108180000D02*
X175725000Y-106530000D01*
X175485000Y-108180000D02*
X175485000Y-106704000D01*
X175565000Y-108180000D02*
X175565000Y-106642000D01*
X176725000Y-112351000D02*
X176725000Y-110260000D01*
X176685000Y-108180000D02*
X176685000Y-106099000D01*
X176485000Y-112281000D02*
X176485000Y-110260000D01*
X176085000Y-112116000D02*
X176085000Y-110260000D01*
X174325000Y-109853000D02*
X174325000Y-108587000D01*
X175605000Y-111827000D02*
X175605000Y-110260000D01*
X176365000Y-112238000D02*
X176365000Y-110260000D01*
X174605000Y-110652000D02*
X174605000Y-107788000D01*
X175765000Y-108180000D02*
X175765000Y-106504000D01*
X176966000Y-112402000D02*
X176966000Y-110260000D01*
X177206000Y-112435000D02*
X177206000Y-110260000D01*
X177006000Y-112409000D02*
X177006000Y-110260000D01*
X175685000Y-111884000D02*
X175685000Y-110260000D01*
X176605000Y-112318000D02*
X176605000Y-110260000D01*
X175845000Y-108180000D02*
X175845000Y-106454000D01*
X175245000Y-111525000D02*
X175245000Y-110260000D01*
X176045000Y-112096000D02*
X176045000Y-110260000D01*
X175645000Y-111856000D02*
X175645000Y-110260000D01*
X177166000Y-108180000D02*
X177166000Y-106009000D01*
X176125000Y-112136000D02*
X176125000Y-110260000D01*
X176445000Y-108180000D02*
X176445000Y-106173000D01*
X176285000Y-108180000D02*
X176285000Y-106234000D01*
X174565000Y-110570000D02*
X174565000Y-107870000D01*
X175525000Y-111768000D02*
X175525000Y-110260000D01*
X175125000Y-111402000D02*
X175125000Y-107038000D01*
X174285000Y-109622000D02*
X174285000Y-108818000D01*
X175645000Y-108180000D02*
X175645000Y-106584000D01*
X175925000Y-108180000D02*
X175925000Y-106408000D01*
X176525000Y-112294000D02*
X176525000Y-110260000D01*
X174525000Y-110482000D02*
X174525000Y-107958000D01*
X177246000Y-108180000D02*
X177246000Y-106002000D01*
X175445000Y-108180000D02*
X175445000Y-106736000D01*
X175045000Y-111312000D02*
X175045000Y-107128000D01*
X176325000Y-112222000D02*
X176325000Y-110260000D01*
X180796000Y-109220000D02*
G75*
G03*
X180796000Y-109220000I-3270000J0D01*
G01*
%TO.C,J6*%
X179695000Y-122670000D02*
X179695000Y-124000000D01*
X177095000Y-125330000D02*
X174495000Y-125330000D01*
X174495000Y-122670000D02*
X174495000Y-125330000D01*
X178365000Y-122670000D02*
X179695000Y-122670000D01*
X177095000Y-122670000D02*
X177095000Y-125330000D01*
X177095000Y-122670000D02*
X174495000Y-122670000D01*
%TD*%
M02*
