M48
; DRILL file {KiCad (6.0.10)} date Sat Feb 25 16:57:19 2023
; FORMAT={-:-/ absolute / inch / decimal}
; #@! TF.CreationDate,2023-02-25T16:57:19+08:00
; #@! TF.GenerationSoftware,Kicad,Pcbnew,(6.0.10)
; #@! TF.FileFunction,Plated,1,2,PTH
FMAT,2
INCH
; #@! TA.AperFunction,Plated,PTH,ComponentDrill
T1C0.0315
; #@! TA.AperFunction,Plated,PTH,ComponentDrill
T2C0.0394
; #@! TA.AperFunction,Plated,PTH,ComponentDrill
T3C0.0433
; #@! TA.AperFunction,Plated,PTH,ComponentDrill
T4C0.1260
%
G90
G05
T1
X5.34Y-2.63
X5.34Y-2.93
X5.34Y-3.2
X5.34Y-3.5
X5.34Y-3.6
X5.34Y-4.0
X5.34Y-4.3
X5.4384Y-4.3
X5.51Y-3.2
X5.51Y-3.4
X5.51Y-3.5
X5.51Y-3.6
X5.71Y-2.53
X5.71Y-2.93
X5.71Y-3.2
X5.71Y-3.4
X5.71Y-3.5
X5.71Y-3.6
X5.71Y-3.9
X5.71Y-4.3
X6.01Y-3.2
X6.01Y-3.4
X6.01Y-3.5
X6.01Y-3.6
X6.01Y-3.9
X6.01Y-4.3
X6.21Y-2.53
X6.21Y-2.93
X6.21Y-3.2
X6.21Y-3.4
X6.21Y-3.5
X6.21Y-3.6
X6.3016Y-4.3
X6.4Y-2.63
X6.4Y-2.93
X6.4Y-3.2
X6.4Y-3.5
X6.4Y-3.6
X6.4Y-4.0
X6.4Y-4.3
X6.67Y-4.3616
X6.67Y-4.46
X6.94Y-2.63
X6.94Y-2.93
X6.94Y-3.2
X6.94Y-3.5
X6.94Y-3.6
X6.94Y-4.0
X6.94Y-4.3
X7.0384Y-4.3
X7.1Y-3.2
X7.1Y-3.4
X7.1Y-3.5
X7.1Y-3.6
X7.3Y-2.53
X7.3Y-2.93
X7.3Y-3.2
X7.3Y-3.4
X7.3Y-3.5
X7.3Y-3.6
X7.3Y-3.9
X7.3Y-4.3
X7.6Y-3.2
X7.6Y-3.4
X7.6Y-3.5
X7.6Y-3.6
X7.6Y-3.9
X7.6Y-4.3
X7.8Y-2.53
X7.8Y-2.93
X7.8Y-3.2
X7.8Y-3.4
X7.8Y-3.5
X7.8Y-3.6
X7.8916Y-4.3
X7.99Y-2.63
X7.99Y-2.93
X7.99Y-3.2
X7.99Y-3.5
X7.99Y-3.6
X7.99Y-4.0
X7.99Y-4.3
T2
X5.7087Y-1.9685
X5.7087Y-4.8819
X5.8087Y-1.9685
X5.8087Y-4.8819
X5.9087Y-1.9685
X5.9087Y-4.8819
X6.4354Y-4.8819
X6.5354Y-4.8819
X6.9222Y-4.8819
X7.0222Y-4.8819
X7.3984Y-1.9685
X7.3984Y-4.8819
X7.4984Y-1.9685
X7.4984Y-4.8819
X7.5984Y-1.9685
X7.5984Y-4.8819
T3
X5.51Y-2.63
X5.51Y-3.03
X6.01Y-2.63
X6.01Y-3.03
X7.1Y-2.63
X7.1Y-3.03
X7.6Y-2.63
X7.6Y-3.03
T4
X5.315Y-2.0866
X5.315Y-4.7638
X7.9921Y-2.0866
X7.9921Y-4.7638
T0
M30
